Drafting-Bold.ufo
<glyph name="quotedbl" format="2">
  <advance width="1200"/>
  <unicode hex="0022"/>
  <outline>
    <contour>
      <point x="735" y="730" type="line"/>
      <point x="675" y="1340" type="line"/>
      <point x="985" y="1340" type="line"/>
      <point x="895" y="730" type="line"/>
    </contour>
    <contour>
      <point x="275" y="730" type="line"/>
      <point x="215" y="1340" type="line"/>
      <point x="525" y="1340" type="line"/>
      <point x="435" y="730" type="line"/>
    </contour>
  </outline>
</glyph>
<glyph name="numbersign" format="2">
  <advance width="1200"/>
  <unicode hex="0023"/>
  <outline>
    <contour>
      <point x="99" y="985" type="line"/>
      <point x="1191" y="985" type="line"/>
      <point x="1191" y="760" type="line"/>
      <point x="99" y="760" type="line"/>
    </contour>
    <contour>
      <point x="39" y="590" type="line"/>
      <point x="1131" y="590" type="line"/>
      <point x="1131" y="365" type="line"/>
      <point x="39" y="365" type="line"/>
    </contour>
    <contour>
      <point x="860" y="1330" type="line"/>
      <point x="1089" y="1270" type="line"/>
      <point x="779" y="-30" type="line"/>
      <point x="550" y="30" type="line"/>
    </contour>
    <contour>
      <point x="430" y="1330" type="line"/>
      <point x="659" y="1270" type="line"/>
      <point x="349" y="-30" type="line"/>
      <point x="120" y="30" type="line"/>
    </contour>
  </outline>
</glyph>
<glyph name="dollar" format="2">
  <advance width="1200"/>
  <unicode hex="0024"/>
  <outline>
    <contour>
      <point x="660" y="40" type="line"/>
      <point x="770" y="-260" type="line"/>
      <point x="390" y="-260" type="line"/>
      <point x="500" y="40" type="line"/>
    </contour>
    <contour>
      <point x="500" y="1260" type="line"/>
      <point x="390" y="1560" type="line"/>
      <point x="770" y="1560" type="line"/>
      <point x="660" y="1260" type="line"/>
    </contour>
    <contour>
      <point x="898" y="876" type="line"/>
      <point x="778" y="969"/>
      <point x="632" y="1080"/>
      <point x="524" y="1080" type="curve" smooth="yes"/>
      <point x="433" y="1080"/>
      <point x="369" y="1044"/>
      <point x="369" y="981" type="curve" smooth="yes"/>
      <point x="369" y="891"/>
      <point x="505" y="852"/>
      <point x="661" y="792" type="curve" smooth="yes"/>
      <point x="877" y="709"/>
      <point x="1139" y="633"/>
      <point x="1139" y="350" type="curve" smooth="yes"/>
      <point x="1139" y="100"/>
      <point x="842" y="-29"/>
      <point x="620" y="-29" type="curve" smooth="yes"/>
      <point x="393" y="-29"/>
      <point x="202" y="71"/>
      <point x="52" y="221" type="curve"/>
      <point x="190" y="441" type="line"/>
      <point x="310" y="322"/>
      <point x="447" y="211"/>
      <point x="640" y="211" type="curve" smooth="yes"/>
      <point x="832" y="211"/>
      <point x="879" y="272"/>
      <point x="879" y="341" type="curve" smooth="yes"/>
      <point x="879" y="435"/>
      <point x="755" y="478"/>
      <point x="601" y="539" type="curve" smooth="yes"/>
      <point x="421" y="610"/>
      <point x="109" y="678"/>
      <point x="109" y="960" type="curve" smooth="yes"/>
      <point x="109" y="1191"/>
      <point x="308" y="1320"/>
      <point x="554" y="1320" type="curve" smooth="yes"/>
      <point x="740" y="1320"/>
      <point x="907" y="1209"/>
      <point x="1037" y="1089" type="curve"/>
    </contour>
  </outline>
</glyph>
<glyph name="percent" format="2">
  <advance width="1200"/>
  <unicode hex="0025"/>
  <outline>
    <contour>
      <point x="858" y="280" type="curve" smooth="yes"/>
      <point x="858" y="333"/>
      <point x="847" y="355"/>
      <point x="824" y="355" type="curve" smooth="yes"/>
      <point x="801" y="355"/>
      <point x="780" y="333"/>
      <point x="780" y="280" type="curve" smooth="yes"/>
      <point x="780" y="227"/>
      <point x="791" y="205"/>
      <point x="814" y="205" type="curve" smooth="yes"/>
      <point x="837" y="205"/>
      <point x="858" y="227"/>
    </contour>
    <contour>
      <point x="574" y="280" type="curve" smooth="yes"/>
      <point x="574" y="456"/>
      <point x="657" y="580"/>
      <point x="814" y="580" type="curve" smooth="yes"/>
      <point x="981" y="580"/>
      <point x="1064" y="456"/>
      <point x="1064" y="280" type="curve" smooth="yes"/>
      <point x="1064" y="94"/>
      <point x="991" y="-20"/>
      <point x="824" y="-20" type="curve" smooth="yes"/>
      <point x="667" y="-20"/>
      <point x="574" y="94"/>
    </contour>
    <contour>
      <point x="330" y="1020" type="curve" smooth="yes"/>
      <point x="330" y="1073"/>
      <point x="324" y="1105"/>
      <point x="296" y="1105" type="curve" smooth="yes"/>
      <point x="278" y="1105"/>
      <point x="252" y="1073"/>
      <point x="252" y="1020" type="curve" smooth="yes"/>
      <point x="252" y="967"/>
      <point x="268" y="945"/>
      <point x="286" y="945" type="curve" smooth="yes"/>
      <point x="304" y="945"/>
      <point x="330" y="967"/>
    </contour>
    <contour>
      <point x="46" y="1020" type="curve" smooth="yes"/>
      <point x="46" y="1196"/>
      <point x="129" y="1320"/>
      <point x="286" y="1320" type="curve" smooth="yes"/>
      <point x="412" y="1320"/>
      <point x="499" y="1246"/>
      <point x="605" y="1246" type="curve" smooth="yes"/>
      <point x="715" y="1246"/>
      <point x="800" y="1302"/>
      <point x="924" y="1440" type="curve"/>
      <point x="1066" y="1370" type="line"/>
      <point x="257" y="-108" type="line"/>
      <point x="74" y="-20" type="line"/>
      <point x="809" y="1324" type="line"/>
      <point x="839" y="1236" type="line"/>
      <point x="760" y="1147"/>
      <point x="702" y="1071"/>
      <point x="609" y="1071" type="curve" smooth="yes"/>
      <point x="535" y="1071"/>
      <point x="461" y="1078"/>
      <point x="439" y="1164" type="curve"/>
      <point x="471" y="1201" type="line"/>
      <point x="504" y="1164"/>
      <point x="536" y="1076"/>
      <point x="536" y="990" type="curve" smooth="yes"/>
      <point x="536" y="874"/>
      <point x="463" y="720"/>
      <point x="296" y="720" type="curve" smooth="yes"/>
      <point x="139" y="720"/>
      <point x="46" y="834"/>
    </contour>
  </outline>
</glyph>
<glyph name="ampersand" format="2">
  <advance width="1200"/>
  <unicode hex="0026"/>
  <outline>
    <contour>
      <point x="529" y="790" type="line"/>
      <point x="1091" y="790" type="line"/>
      <point x="1091" y="560" type="line"/>
      <point x="529" y="560" type="line"/>
    </contour>
    <contour>
      <point x="928" y="650" type="line"/>
      <point x="1068" y="234"/>
      <point x="834" y="-20"/>
      <point x="508" y="-20" type="curve"/>
      <point x="488" y="220" type="line"/>
      <point x="646" y="220"/>
      <point x="808" y="307"/>
      <point x="668" y="650" type="curve"/>
    </contour>
    <contour>
      <point x="686" y="979" type="line"/>
      <point x="646" y="1042"/>
      <point x="566" y="1070"/>
      <point x="518" y="1070" type="curve"/>
      <point x="518" y="1300" type="line"/>
      <point x="644" y="1300"/>
      <point x="777" y="1249"/>
      <point x="857" y="1159" type="curve"/>
    </contour>
    <contour>
      <point x="618" y="790" type="curve"/>
      <point x="548" y="560" type="line"/>
      <point x="400" y="560"/>
      <point x="319" y="488"/>
      <point x="319" y="385" type="curve" smooth="yes"/>
      <point x="319" y="262"/>
      <point x="410" y="220"/>
      <point x="488" y="220" type="curve"/>
      <point x="508" y="-20" type="line"/>
      <point x="201" y="-20"/>
      <point x="39" y="134"/>
      <point x="39" y="350" type="curve" smooth="yes"/>
      <point x="39" y="555"/>
      <point x="194" y="661"/>
      <point x="436" y="685" type="curve"/>
      <point x="250" y="708"/>
      <point x="109" y="809"/>
      <point x="109" y="990" type="curve" smooth="yes"/>
      <point x="109" y="1196"/>
      <point x="292" y="1300"/>
      <point x="518" y="1300" type="curve"/>
      <point x="518" y="1070" type="line"/>
      <point x="410" y="1070"/>
      <point x="379" y="1003"/>
      <point x="379" y="950" type="curve" smooth="yes"/>
      <point x="379" y="867"/>
      <point x="430" y="790"/>
    </contour>
  </outline>
</glyph>
<glyph name="quotesingle" format="2">
  <advance width="1200"/>
  <unicode hex="0027"/>
  <outline>
    <contour>
      <point x="515" y="730" type="line"/>
      <point x="445" y="1340" type="line"/>
      <point x="755" y="1340" type="line"/>
      <point x="675" y="730" type="line"/>
    </contour>
  </outline>
</glyph>
<glyph name="parenleft" format="2">
  <advance width="1200"/>
  <unicode hex="0028"/>
  <outline>
    <contour>
      <point x="862" y="1420" type="curve"/>
      <point x="974" y="1300" type="line"/>
      <point x="649" y="1140"/>
      <point x="508" y="990"/>
      <point x="508" y="649" type="curve" smooth="yes"/>
      <point x="508" y="308"/>
      <point x="649" y="165"/>
      <point x="974" y="0" type="curve"/>
      <point x="862" y="-130" type="line"/>
      <point x="527" y="25"/>
      <point x="226" y="228"/>
      <point x="226" y="649" type="curve" smooth="yes"/>
      <point x="226" y="1070"/>
      <point x="527" y="1270"/>
    </contour>
  </outline>
</glyph>
<glyph name="parenright" format="2">
  <advance width="1200"/>
  <unicode hex="0029"/>
  <outline>
    <contour>
      <point x="338" y="-130" type="curve"/>
      <point x="226" y="-10" type="line"/>
      <point x="551" y="150"/>
      <point x="692" y="300"/>
      <point x="692" y="641" type="curve" smooth="yes"/>
      <point x="692" y="982"/>
      <point x="551" y="1125"/>
      <point x="226" y="1290" type="curve"/>
      <point x="338" y="1420" type="line"/>
      <point x="673" y="1265"/>
      <point x="974" y="1062"/>
      <point x="974" y="641" type="curve" smooth="yes"/>
      <point x="974" y="220"/>
      <point x="673" y="20"/>
    </contour>
  </outline>
</glyph>
<glyph name="asterisk" format="2">
  <advance width="1200"/>
  <unicode hex="002A"/>
  <outline>
    <contour>
      <point x="580" y="837" type="line"/>
      <point x="477" y="541" type="line"/>
      <point x="234" y="717" type="line"/>
      <point x="484" y="907" type="line"/>
    </contour>
    <contour>
      <point x="691" y="1057" type="line"/>
      <point x="949" y="1236" type="line"/>
      <point x="1042" y="951" type="line"/>
      <point x="728" y="944" type="line"/>
    </contour>
    <contour>
      <point x="472" y="944" type="line"/>
      <point x="159" y="951" type="line"/>
      <point x="251" y="1236" type="line"/>
      <point x="509" y="1057" type="line"/>
    </contour>
    <contour>
      <point x="716" y="907" type="line"/>
      <point x="965" y="717" type="line"/>
      <point x="723" y="541" type="line"/>
      <point x="619" y="837" type="line"/>
    </contour>
    <contour>
      <point x="540" y="1080" type="line"/>
      <point x="450" y="1380" type="line"/>
      <point x="750" y="1380" type="line"/>
      <point x="660" y="1080" type="line"/>
    </contour>
  </outline>
</glyph>
<glyph name="comma" format="2">
  <advance width="1200"/>
  <unicode hex="002C"/>
  <outline>
    <contour>
      <point x="440" y="-320" type="line"/>
      <point x="450" y="290" type="line"/>
      <point x="760" y="290" type="line"/>
      <point x="600" y="-320" type="line"/>
    </contour>
  </outline>
</glyph>
<glyph name="period" format="2">
  <advance width="1200"/>
  <unicode hex="002E"/>
  <outline>
    <contour>
      <point x="401" y="180" type="curve" smooth="yes"/>
      <point x="401" y="298"/>
      <point x="482" y="380"/>
      <point x="600" y="380" type="curve" smooth="yes"/>
      <point x="718" y="380"/>
      <point x="799" y="298"/>
      <point x="799" y="180" type="curve" smooth="yes"/>
      <point x="799" y="62"/>
      <point x="723" y="-20"/>
      <point x="605" y="-20" type="curve" smooth="yes"/>
      <point x="487" y="-20"/>
      <point x="401" y="62"/>
    </contour>
  </outline>
</glyph>
<glyph name="slash" format="2">
  <advance width="1200"/>
  <unicode hex="002F"/>
  <outline>
    <contour>
      <point x="784" y="1375" type="line"/>
      <point x="986" y="1275" type="line"/>
      <point x="356" y="-185" type="line"/>
      <point x="154" y="-85" type="line"/>
    </contour>
  </outline>
</glyph>
<glyph name="zero" format="2">
  <advance width="1200"/>
  <unicode hex="0030"/>
  <outline>
    <contour>
      <point x="599" y="-20" type="curve" smooth="yes"/>
      <point x="273" y="-20"/>
      <point x="70" y="154"/>
      <point x="70" y="650" type="curve" smooth="yes"/>
      <point x="70" y="1116"/>
      <point x="292" y="1320"/>
      <point x="599" y="1320" type="curve" smooth="yes"/>
      <point x="906" y="1320"/>
      <point x="1129" y="1116"/>
      <point x="1129" y="650" type="curve" smooth="yes"/>
      <point x="1129" y="154"/>
      <point x="925" y="-20"/>
    </contour>
    <contour>
      <point x="599" y="1090" type="curve" smooth="yes"/>
      <point x="441" y="1090"/>
      <point x="330" y="983"/>
      <point x="330" y="650" type="curve" smooth="yes"/>
      <point x="330" y="307"/>
      <point x="421" y="210"/>
      <point x="599" y="210" type="curve" smooth="yes"/>
      <point x="777" y="210"/>
      <point x="869" y="307"/>
      <point x="869" y="650" type="curve" smooth="yes"/>
      <point x="869" y="983"/>
      <point x="757" y="1090"/>
    </contour>
  </outline>
</glyph>
<glyph name="one" format="2">
  <advance width="1200"/>
  <unicode hex="0031"/>
  <outline>
    <contour>
      <point x="180" y="0" type="line"/>
      <point x="180" y="230" type="line"/>
      <point x="520" y="230" type="line"/>
      <point x="520" y="1070" type="line"/>
      <point x="190" y="1070" type="line"/>
      <point x="190" y="1300" type="line"/>
      <point x="789" y="1300" type="line"/>
      <point x="789" y="230" type="line"/>
      <point x="1080" y="230" type="line"/>
      <point x="1080" y="0" type="line"/>
    </contour>
  </outline>
</glyph>
<glyph name="two" format="2">
  <advance width="1200"/>
  <unicode hex="0032"/>
  <outline>
    <contour>
      <point x="110" y="929" type="line"/>
      <point x="180" y="1139"/>
      <point x="362" y="1320"/>
      <point x="638" y="1320" type="curve" smooth="yes"/>
      <point x="884" y="1320"/>
      <point x="1043" y="1206"/>
      <point x="1043" y="995" type="curve" smooth="yes"/>
      <point x="1043" y="773"/>
      <point x="793" y="577"/>
      <point x="631" y="461" type="curve" smooth="yes"/>
      <point x="513" y="377"/>
      <point x="438" y="345"/>
      <point x="358" y="230" type="curve"/>
      <point x="1059" y="230" type="line"/>
      <point x="1059" y="0" type="line"/>
      <point x="139" y="0" type="line"/>
      <point x="59" y="150" type="line"/>
      <point x="99" y="323"/>
      <point x="300" y="505"/>
      <point x="501" y="642" type="curve" smooth="yes"/>
      <point x="649" y="742"/>
      <point x="793" y="876"/>
      <point x="793" y="966" type="curve" smooth="yes"/>
      <point x="793" y="1029"/>
      <point x="752" y="1080"/>
      <point x="651" y="1080" type="curve" smooth="yes"/>
      <point x="493" y="1080"/>
      <point x="353" y="962"/>
      <point x="293" y="819" type="curve"/>
    </contour>
  </outline>
</glyph>
<glyph name="three" format="2">
  <advance width="1200"/>
  <unicode hex="0033"/>
  <outline>
    <contour>
      <point x="552" y="820" type="line" smooth="yes"/>
      <point x="733.218" y="868.111"/>
      <point x="791" y="912"/>
      <point x="791" y="985" type="curve" smooth="yes"/>
      <point x="791" y="1048"/>
      <point x="740" y="1094"/>
      <point x="622" y="1094" type="curve"/>
      <point x="652" y="1320" type="line"/>
      <point x="898" y="1320"/>
      <point x="1051" y="1201"/>
      <point x="1051" y="1045" type="curve" smooth="yes"/>
      <point x="1051" y="894"/>
      <point x="910" y="813"/>
      <point x="764" y="760" type="curve"/>
      <point x="996" y="738"/>
      <point x="1121" y="670"/>
      <point x="1121" y="455" type="curve" smooth="yes"/>
      <point x="1121" y="129"/>
      <point x="739" y="-73"/>
      <point x="192" y="-243" type="curve"/>
      <point x="117" y="-25" type="line"/>
      <point x="585" y="125"/>
      <point x="861" y="287"/>
      <point x="861" y="480" type="curve" smooth="yes"/>
      <point x="861" y="593"/>
      <point x="776.185" y="628.021"/>
      <point x="662" y="600" type="curve" smooth="yes"/>
      <point x="499" y="560" type="line"/>
      <point x="439" y="790" type="line"/>
    </contour>
    <contour>
      <point x="316" y="933" type="curve"/>
      <point x="123" y="1109" type="line"/>
      <point x="233" y="1199"/>
      <point x="406" y="1320"/>
      <point x="652" y="1320" type="curve"/>
      <point x="622" y="1094" type="line"/>
      <point x="514" y="1094"/>
      <point x="398" y="1026"/>
    </contour>
  </outline>
</glyph>
<glyph name="four" format="2">
  <advance width="1200"/>
  <unicode hex="0034"/>
  <outline>
    <contour>
      <point x="685" y="-220" type="line"/>
      <point x="735" y="610" type="line"/>
      <point x="959" y="610" type="line"/>
      <point x="949" y="-220" type="line"/>
    </contour>
    <contour>
      <point x="300" y="250" type="curve"/>
      <point x="1110" y="250" type="line"/>
      <point x="1110" y="20" type="line"/>
      <point x="120" y="20" type="line"/>
      <point x="0" y="250" type="line"/>
      <point x="290" y="610"/>
      <point x="510" y="850"/>
      <point x="590" y="1360" type="curve"/>
      <point x="850" y="1360" type="line"/>
      <point x="780" y="890"/>
      <point x="570" y="630"/>
    </contour>
  </outline>
</glyph>
<glyph name="five" format="2">
  <advance width="1200"/>
  <unicode hex="0035"/>
  <outline>
    <contour>
      <point x="824" y="845" type="line"/>
      <point x="1017" y="844"/>
      <point x="1141" y="745"/>
      <point x="1141" y="530" type="curve" smooth="yes"/>
      <point x="1141" y="154"/>
      <point x="689" y="-80"/>
      <point x="182" y="-230" type="curve"/>
      <point x="112" y="-50" type="line"/>
      <point x="540" y="110"/>
      <point x="881" y="282"/>
      <point x="881" y="475" type="curve" smooth="yes"/>
      <point x="881" y="558"/>
      <point x="812" y="625"/>
      <point x="684" y="625" type="curve"/>
    </contour>
    <contour>
      <point x="250" y="1300" type="line"/>
      <point x="1040" y="1300" type="line"/>
      <point x="1040" y="1060" type="line"/>
      <point x="300" y="1060" type="line"/>
    </contour>
    <contour>
      <point x="115" y="564" type="line"/>
      <point x="250" y="1300" type="line"/>
      <point x="489" y="1270" type="line"/>
      <point x="356" y="573" type="line"/>
      <point x="237" y="546" type="line"/>
      <point x="357" y="706"/>
      <point x="580" y="845"/>
      <point x="824" y="845" type="curve"/>
      <point x="684" y="625" type="line"/>
      <point x="546" y="625"/>
      <point x="413" y="546"/>
      <point x="353" y="473" type="curve"/>
    </contour>
  </outline>
</glyph>
<glyph name="six" format="2">
  <advance width="1200"/>
  <unicode hex="0036"/>
  <outline>
    <contour>
      <point x="943" y="1346" type="line"/>
      <point x="629" y="1164"/>
      <point x="264" y="864"/>
      <point x="264" y="540" type="curve"/>
      <point x="193" y="529" type="line"/>
      <point x="260" y="733"/>
      <point x="480" y="950"/>
      <point x="722" y="950" type="curve" smooth="yes"/>
      <point x="984" y="950"/>
      <point x="1180" y="790"/>
      <point x="1180" y="470" type="curve" smooth="yes"/>
      <point x="1180" y="190"/>
      <point x="960" y="-20"/>
      <point x="618" y="-20" type="curve" smooth="yes"/>
      <point x="256" y="-20"/>
      <point x="70" y="190"/>
      <point x="70" y="530" type="curve" smooth="yes"/>
      <point x="70" y="1032"/>
      <point x="506" y="1350"/>
      <point x="803" y="1530" type="curve"/>
    </contour>
    <contour>
      <point x="921" y="475" type="curve" smooth="yes"/>
      <point x="921" y="653"/>
      <point x="796" y="712"/>
      <point x="648" y="712" type="curve" smooth="yes"/>
      <point x="492" y="712"/>
      <point x="347" y="605"/>
      <point x="347" y="465" type="curve" smooth="yes"/>
      <point x="347" y="297"/>
      <point x="450" y="220"/>
      <point x="638" y="220" type="curve" smooth="yes"/>
      <point x="786" y="220"/>
      <point x="921" y="307"/>
    </contour>
  </outline>
</glyph>
<glyph name="seven" format="2">
  <advance width="1200"/>
  <unicode hex="0037"/>
  <outline>
    <contour>
      <point x="1070" y="1300" type="line"/>
      <point x="1150" y="1140" type="line"/>
      <point x="860" y="780"/>
      <point x="590" y="290"/>
      <point x="520" y="-220" type="curve"/>
      <point x="260" y="-190" type="line"/>
      <point x="340" y="320"/>
      <point x="551" y="710"/>
      <point x="841" y="1070" type="curve"/>
      <point x="339" y="1070" type="line"/>
      <point x="269" y="760" type="line"/>
      <point x="80" y="760" type="line"/>
      <point x="120" y="1300" type="line"/>
    </contour>
  </outline>
</glyph>
<glyph name="eight" format="2">
  <advance width="1200"/>
  <unicode hex="0038"/>
  <outline>
    <contour>
      <point x="594" y="671" type="curve" smooth="yes"/>
      <point x="308" y="671"/>
      <point x="126" y="795"/>
      <point x="126" y="1001" type="curve" smooth="yes"/>
      <point x="126" y="1217"/>
      <point x="327" y="1321"/>
      <point x="594" y="1321" type="curve" smooth="yes"/>
      <point x="861" y="1321"/>
      <point x="1074" y="1217"/>
      <point x="1074" y="1001" type="curve" smooth="yes"/>
      <point x="1074" y="785"/>
      <point x="880" y="671"/>
    </contour>
    <contour>
      <point x="594" y="1096" type="curve" smooth="yes"/>
      <point x="466" y="1096"/>
      <point x="380" y="1059"/>
      <point x="380" y="966" type="curve" smooth="yes"/>
      <point x="380" y="893"/>
      <point x="466" y="806"/>
      <point x="594" y="806" type="curve" smooth="yes"/>
      <point x="732" y="806"/>
      <point x="820" y="883"/>
      <point x="820" y="966" type="curve" smooth="yes"/>
      <point x="820" y="1059"/>
      <point x="732" y="1096"/>
    </contour>
    <contour>
      <point x="594" y="-20" type="curve" smooth="yes"/>
      <point x="268" y="-20"/>
      <point x="46" y="114"/>
      <point x="46" y="360" type="curve" smooth="yes"/>
      <point x="46" y="606"/>
      <point x="287" y="716"/>
      <point x="594" y="716" type="curve" smooth="yes"/>
      <point x="901" y="716"/>
      <point x="1144" y="606"/>
      <point x="1144" y="360" type="curve" smooth="yes"/>
      <point x="1144" y="114"/>
      <point x="920" y="-20"/>
    </contour>
    <contour>
      <point x="594" y="571" type="curve" smooth="yes"/>
      <point x="426" y="571"/>
      <point x="310" y="501"/>
      <point x="310" y="388" type="curve" smooth="yes"/>
      <point x="310" y="265"/>
      <point x="406" y="215"/>
      <point x="594" y="215" type="curve" smooth="yes"/>
      <point x="782" y="215"/>
      <point x="880" y="265"/>
      <point x="880" y="388" type="curve" smooth="yes"/>
      <point x="880" y="501"/>
      <point x="762" y="571"/>
    </contour>
  </outline>
</glyph>
<glyph name="colon" format="2">
  <advance width="1200"/>
  <unicode hex="003A"/>
  <outline>
    <contour>
      <point x="401" y="740" type="curve" smooth="yes"/>
      <point x="401" y="858"/>
      <point x="482" y="940"/>
      <point x="600" y="940" type="curve" smooth="yes"/>
      <point x="718" y="940"/>
      <point x="799" y="858"/>
      <point x="799" y="740" type="curve" smooth="yes"/>
      <point x="799" y="622"/>
      <point x="723" y="540"/>
      <point x="605" y="540" type="curve" smooth="yes"/>
      <point x="487" y="540"/>
      <point x="401" y="622"/>
    </contour>
    <contour>
      <point x="401" y="180" type="curve" smooth="yes"/>
      <point x="401" y="298"/>
      <point x="482" y="380"/>
      <point x="600" y="380" type="curve" smooth="yes"/>
      <point x="718" y="380"/>
      <point x="799" y="298"/>
      <point x="799" y="180" type="curve" smooth="yes"/>
      <point x="799" y="62"/>
      <point x="723" y="-20"/>
      <point x="605" y="-20" type="curve" smooth="yes"/>
      <point x="487" y="-20"/>
      <point x="401" y="62"/>
    </contour>
  </outline>
</glyph>
<glyph name="semicolon" format="2">
  <advance width="1200"/>
  <unicode hex="003B"/>
  <outline>
    <contour>
      <point x="440" y="-320" type="line"/>
      <point x="450" y="290" type="line"/>
      <point x="760" y="290" type="line"/>
      <point x="600" y="-320" type="line"/>
    </contour>
    <contour>
      <point x="401" y="740" type="curve" smooth="yes"/>
      <point x="401" y="858"/>
      <point x="482" y="940"/>
      <point x="600" y="940" type="curve" smooth="yes"/>
      <point x="718" y="940"/>
      <point x="799" y="858"/>
      <point x="799" y="740" type="curve" smooth="yes"/>
      <point x="799" y="622"/>
      <point x="723" y="540"/>
      <point x="605" y="540" type="curve" smooth="yes"/>
      <point x="487" y="540"/>
      <point x="401" y="622"/>
    </contour>
  </outline>
</glyph>
<glyph name="less" format="2">
  <advance width="1200"/>
  <unicode hex="003C"/>
  <outline>
    <contour>
      <point x="229" y="820" type="line"/>
      <point x="931" y="1060" type="line"/>
      <point x="991" y="840" type="line"/>
      <point x="380" y="675" type="line"/>
      <point x="991" y="510" type="line"/>
      <point x="931" y="290" type="line"/>
      <point x="229" y="530" type="line"/>
    </contour>
  </outline>
</glyph>
<glyph name="equal" format="2">
  <advance width="1200"/>
  <unicode hex="003D"/>
  <outline>
    <contour>
      <point x="229" y="980" type="line"/>
      <point x="971" y="980" type="line"/>
      <point x="971" y="750" type="line"/>
      <point x="229" y="750" type="line"/>
    </contour>
    <contour>
      <point x="229" y="600" type="line"/>
      <point x="971" y="600" type="line"/>
      <point x="971" y="370" type="line"/>
      <point x="229" y="370" type="line"/>
    </contour>
  </outline>
</glyph>
<glyph name="greater" format="2">
  <advance width="1200"/>
  <unicode hex="003E"/>
  <outline>
    <contour>
      <point x="971" y="820" type="line"/>
      <point x="971" y="530" type="line"/>
      <point x="269" y="290" type="line"/>
      <point x="209" y="510" type="line"/>
      <point x="820" y="675" type="line"/>
      <point x="209" y="840" type="line"/>
      <point x="269" y="1060" type="line"/>
    </contour>
  </outline>
</glyph>
<glyph name="question" format="2">
  <advance width="1200"/>
  <unicode hex="003F"/>
  <outline>
    <contour>
      <point x="268" y="893" type="curve"/>
      <point x="123" y="999" type="line"/>
      <point x="253" y="1149"/>
      <point x="496" y="1320"/>
      <point x="792" y="1320" type="curve"/>
      <point x="702" y="1100" type="line"/>
      <point x="584" y="1100"/>
      <point x="380" y="996"/>
    </contour>
    <contour>
      <point x="401" y="180" type="curve" smooth="yes"/>
      <point x="401" y="298"/>
      <point x="482" y="380"/>
      <point x="600" y="380" type="curve" smooth="yes"/>
      <point x="718" y="380"/>
      <point x="799" y="298"/>
      <point x="799" y="180" type="curve" smooth="yes"/>
      <point x="799" y="62"/>
      <point x="723" y="-20"/>
      <point x="605" y="-20" type="curve" smooth="yes"/>
      <point x="487" y="-20"/>
      <point x="401" y="62"/>
    </contour>
    <contour>
      <point x="811" y="1010" type="curve" smooth="yes"/>
      <point x="811" y="1073"/>
      <point x="760" y="1100"/>
      <point x="702" y="1100" type="curve"/>
      <point x="792" y="1320" type="line"/>
      <point x="978" y="1320"/>
      <point x="1121" y="1246"/>
      <point x="1121" y="1070" type="curve" smooth="yes"/>
      <point x="1121" y="906"/>
      <point x="1026" y="831"/>
      <point x="864" y="729" type="curve" smooth="yes"/>
      <point x="751.782" y="658.344"/>
      <point x="664" y="596"/>
      <point x="591" y="481" type="curve"/>
      <point x="471" y="532" type="line"/>
      <point x="492" y="636"/>
      <point x="569.289" y="734.667"/>
      <point x="666" y="820" type="curve" smooth="yes"/>
      <point x="756.296" y="899.672"/>
      <point x="811" y="930"/>
    </contour>
  </outline>
</glyph>
<glyph name="at" format="2">
  <advance width="1200"/>
  <unicode hex="0040"/>
  <outline>
    <contour>
      <point x="30" y="530" type="curve" smooth="yes"/>
      <point x="30" y="938"/>
      <point x="312" y="1320"/>
      <point x="720" y="1320" type="curve" smooth="yes"/>
      <point x="1058" y="1320"/>
      <point x="1150" y="1088"/>
      <point x="1150" y="800" type="curve" smooth="yes"/>
      <point x="1150" y="468"/>
      <point x="1012" y="300"/>
      <point x="872" y="300" type="curve" smooth="yes"/>
      <point x="750" y="300"/>
      <point x="672" y="408"/>
      <point x="692" y="540" type="curve"/>
      <point x="709" y="540" type="line"/>
      <point x="689" y="442"/>
      <point x="646" y="320"/>
      <point x="526" y="320" type="curve" smooth="yes"/>
      <point x="420" y="320"/>
      <point x="320" y="386"/>
      <point x="320" y="554" type="curve" smooth="yes"/>
      <point x="320" y="832"/>
      <point x="561" y="1040"/>
      <point x="761" y="1040" type="curve"/>
      <point x="877" y="991" type="line"/>
      <point x="838" y="578" type="line" smooth="yes"/>
      <point x="834.293" y="525.207"/>
      <point x="835" y="512"/>
      <point x="852" y="512" type="curve" smooth="yes"/>
      <point x="892" y="512"/>
      <point x="930" y="628"/>
      <point x="930" y="810" type="curve" smooth="yes"/>
      <point x="930" y="1006"/>
      <point x="906" y="1130"/>
      <point x="740" y="1130" type="curve" smooth="yes"/>
      <point x="444" y="1130"/>
      <point x="260" y="876"/>
      <point x="260" y="550" type="curve" smooth="yes"/>
      <point x="260" y="324"/>
      <point x="374" y="190"/>
      <point x="580" y="190" type="curve" smooth="yes"/>
      <point x="690" y="190"/>
      <point x="782" y="220"/>
      <point x="884" y="274" type="curve"/>
      <point x="972" y="90" type="line"/>
      <point x="872" y="28"/>
      <point x="708" y="-20"/>
      <point x="570" y="-20" type="curve" smooth="yes"/>
      <point x="192" y="-20"/>
      <point x="30" y="202"/>
    </contour>
    <contour>
      <point x="650" y="696" type="curve" smooth="yes"/>
      <point x="677" y="848" type="line"/>
      <point x="583" y="797"/>
      <point x="558" y="692"/>
      <point x="558" y="610" type="curve" smooth="yes"/>
      <point x="558" y="566"/>
      <point x="572" y="550"/>
      <point x="591" y="550" type="curve" smooth="yes"/>
      <point x="617" y="550"/>
      <point x="630.029" y="583.573"/>
    </contour>
  </outline>
</glyph>
<glyph name="A" format="2">
  <advance width="1200"/>
  <unicode hex="0041"/>
  <anchor x="599" y="1300" name="Anchor-0"/>
  <anchor x="599" y="0" name="Anchor-2"/>
  <anchor x="989" y="-20" name="Anchor-3"/>
  <outline>
    <contour>
      <point x="161" y="1300" type="line"/>
      <point x="490" y="1300" type="line"/>
      <point x="470" y="1110" type="line"/>
      <point x="161" y="1070" type="line"/>
    </contour>
    <contour>
      <point x="299" y="-20" type="line"/>
      <point x="27" y="-20" type="line"/>
      <point x="490" y="1300" type="line"/>
      <point x="770" y="1300" type="line"/>
      <point x="1173" y="-20" type="line"/>
      <point x="901" y="-20" type="line"/>
      <point x="590" y="1180" type="line"/>
      <point x="670" y="1180" type="line"/>
    </contour>
    <contour>
      <point x="319" y="500" type="line"/>
      <point x="882" y="500" type="line"/>
      <point x="882" y="270" type="line"/>
      <point x="319" y="270" type="line"/>
    </contour>
  </outline>
</glyph>
<glyph name="B" format="2">
  <advance width="1200"/>
  <unicode hex="0042"/>
  <anchor x="586" y="0" name="Anchor-2"/>
  <anchor x="514" y="1300" name="Anchor-0"/>
  <outline>
    <contour>
      <point x="200" y="1070" type="line"/>
      <point x="80" y="1070" type="line"/>
      <point x="80" y="1300" type="line"/>
      <point x="622" y="1300" type="line" smooth="yes"/>
      <point x="928" y="1300"/>
      <point x="1081" y="1211"/>
      <point x="1081" y="975" type="curve" smooth="yes"/>
      <point x="1081" y="739"/>
      <point x="859" y="670"/>
      <point x="572" y="670" type="curve"/>
      <point x="642" y="690" type="line"/>
      <point x="948" y="690"/>
      <point x="1151" y="602"/>
      <point x="1151" y="366" type="curve" smooth="yes"/>
      <point x="1151" y="100"/>
      <point x="959" y="-3.26981e-14"/>
      <point x="692" y="0" type="curve" smooth="yes"/>
      <point x="80" y="0" type="line"/>
      <point x="80" y="230" type="line"/>
      <point x="200" y="230" type="line"/>
    </contour>
    <contour>
      <point x="459" y="230" type="line"/>
      <point x="642" y="230" type="line" smooth="yes"/>
      <point x="800" y="230"/>
      <point x="881" y="273"/>
      <point x="881" y="386" type="curve" smooth="yes"/>
      <point x="881" y="509"/>
      <point x="810" y="560"/>
      <point x="642" y="560" type="curve" smooth="yes"/>
      <point x="459" y="560" type="line"/>
    </contour>
    <contour>
      <point x="592" y="790" type="line" smooth="yes"/>
      <point x="720" y="790"/>
      <point x="811" y="842"/>
      <point x="811" y="935" type="curve" smooth="yes"/>
      <point x="811" y="1048"/>
      <point x="730" y="1070"/>
      <point x="592" y="1070" type="curve" smooth="yes"/>
      <point x="459" y="1070" type="line"/>
      <point x="459" y="790" type="line"/>
    </contour>
  </outline>
</glyph>
<glyph name="C" format="2">
  <advance width="1200"/>
  <unicode hex="0043"/>
  <anchor x="606" y="0" name="Anchor-3"/>
  <anchor x="607" y="0" name="Anchor-2"/>
  <anchor x="646" y="1300" name="Anchor-0"/>
  <outline>
    <contour>
      <point x="928" y="470" type="curve"/>
      <point x="1128" y="350" type="line"/>
      <point x="1028" y="154"/>
      <point x="886" y="-20"/>
      <point x="599" y="-20" type="curve" smooth="yes"/>
      <point x="303" y="-20"/>
      <point x="70" y="184"/>
      <point x="70" y="650" type="curve" smooth="yes"/>
      <point x="70" y="1106"/>
      <point x="332" y="1320"/>
      <point x="579" y="1320" type="curve" smooth="yes"/>
      <point x="806" y="1320"/>
      <point x="888" y="1136"/>
      <point x="908" y="900" type="curve"/>
      <point x="848" y="950" type="line"/>
      <point x="927" y="1300" type="line"/>
      <point x="1107" y="1300" type="line"/>
      <point x="1107" y="820" type="line"/>
      <point x="848" y="820" type="line"/>
      <point x="818" y="993"/>
      <point x="737" y="1080"/>
      <point x="619" y="1080" type="curve" smooth="yes"/>
      <point x="461" y="1080"/>
      <point x="330" y="973"/>
      <point x="330" y="650" type="curve" smooth="yes"/>
      <point x="330" y="317"/>
      <point x="451" y="230"/>
      <point x="629" y="230" type="curve" smooth="yes"/>
      <point x="777" y="230"/>
      <point x="848" y="326"/>
    </contour>
  </outline>
</glyph>
<glyph name="D" format="2">
  <advance width="1200"/>
  <unicode hex="0044"/>
  <anchor x="513" y="0" name="Anchor-2"/>
  <anchor x="514" y="1300" name="Anchor-0"/>
  <outline>
    <contour>
      <point x="40" y="0" type="line"/>
      <point x="40" y="230" type="line"/>
      <point x="160" y="230" type="line"/>
      <point x="160" y="1070" type="line"/>
      <point x="40" y="1070" type="line"/>
      <point x="40" y="1300" type="line"/>
      <point x="552" y="1300" type="line" smooth="yes"/>
      <point x="928" y="1300"/>
      <point x="1151" y="1026"/>
      <point x="1151" y="650" type="curve" smooth="yes"/>
      <point x="1151" y="284"/>
      <point x="909" y="-4.37199e-14"/>
      <point x="552" y="0" type="curve" smooth="yes"/>
    </contour>
    <contour>
      <point x="419" y="230" type="line"/>
      <point x="512" y="230" type="line" smooth="yes"/>
      <point x="710" y="230"/>
      <point x="881" y="357"/>
      <point x="881" y="650" type="curve" smooth="yes"/>
      <point x="881" y="953"/>
      <point x="730" y="1070"/>
      <point x="512" y="1070" type="curve" smooth="yes"/>
      <point x="419" y="1070" type="line"/>
    </contour>
  </outline>
</glyph>
<glyph name="E" format="2">
  <advance width="1200"/>
  <unicode hex="0045"/>
  <anchor x="926" y="0" name="Anchor-3"/>
  <anchor x="546" y="0" name="Anchor-2"/>
  <anchor x="574" y="1300" name="Anchor-0"/>
  <outline>
    <contour>
      <point x="781" y="810" type="line"/>
      <point x="781" y="535" type="line"/>
      <point x="469" y="585" type="line"/>
      <point x="469" y="230" type="line"/>
      <point x="858" y="230" type="line"/>
      <point x="891" y="450" type="line"/>
      <point x="1110" y="450" type="line"/>
      <point x="1110" y="0" type="line"/>
      <point x="70" y="0" type="line"/>
      <point x="70" y="230" type="line"/>
      <point x="200" y="230" type="line"/>
      <point x="200" y="1070" type="line"/>
      <point x="70" y="1070" type="line"/>
      <point x="70" y="1300" type="line"/>
      <point x="1070" y="1300" type="line"/>
      <point x="1110" y="900" type="line"/>
      <point x="891" y="900" type="line"/>
      <point x="821" y="1070" type="line"/>
      <point x="469" y="1070" type="line"/>
      <point x="469" y="760" type="line"/>
    </contour>
  </outline>
</glyph>
<glyph name="F" format="2">
  <advance width="1200"/>
  <unicode hex="0046"/>
  <anchor x="376" y="0" name="Anchor-2"/>
  <anchor x="604" y="1300" name="Anchor-0"/>
  <outline>
    <contour>
      <point x="811" y="780" type="line"/>
      <point x="811" y="505" type="line"/>
      <point x="489" y="555" type="line"/>
      <point x="489" y="230" type="line"/>
      <point x="699" y="230" type="line"/>
      <point x="699" y="0" type="line"/>
      <point x="100" y="0" type="line"/>
      <point x="100" y="230" type="line"/>
      <point x="220" y="230" type="line"/>
      <point x="220" y="1070" type="line"/>
      <point x="100" y="1070" type="line"/>
      <point x="100" y="1300" type="line"/>
      <point x="1100" y="1300" type="line"/>
      <point x="1140" y="860" type="line"/>
      <point x="921" y="860" type="line"/>
      <point x="851" y="1070" type="line"/>
      <point x="489" y="1070" type="line"/>
      <point x="489" y="730" type="line"/>
    </contour>
  </outline>
</glyph>
<glyph name="G" format="2">
  <advance width="1200"/>
  <unicode hex="0047"/>
  <anchor x="637" y="0" name="Anchor-2"/>
  <anchor x="686" y="1300" name="Anchor-0"/>
  <outline>
    <contour>
      <point x="848" y="450" type="curve"/>
      <point x="988" y="440" type="line"/>
      <point x="968" y="224"/>
      <point x="866" y="-20"/>
      <point x="579" y="-20" type="curve" smooth="yes"/>
      <point x="283" y="-20"/>
      <point x="50" y="184"/>
      <point x="50" y="650" type="curve" smooth="yes"/>
      <point x="50" y="1106"/>
      <point x="302" y="1320"/>
      <point x="539" y="1320" type="curve" smooth="yes"/>
      <point x="766" y="1320"/>
      <point x="868" y="1106"/>
      <point x="888" y="900" type="curve"/>
      <point x="828" y="950" type="line"/>
      <point x="907" y="1300" type="line"/>
      <point x="1087" y="1300" type="line"/>
      <point x="1087" y="870" type="line"/>
      <point x="828" y="870" type="line"/>
      <point x="778" y="1023"/>
      <point x="697" y="1080"/>
      <point x="579" y="1080" type="curve" smooth="yes"/>
      <point x="461" y="1080"/>
      <point x="320" y="993"/>
      <point x="320" y="650" type="curve" smooth="yes"/>
      <point x="320" y="317"/>
      <point x="451" y="220"/>
      <point x="599" y="220" type="curve" smooth="yes"/>
      <point x="737" y="220"/>
      <point x="838" y="286"/>
    </contour>
    <contour>
      <point x="617" y="670" type="line"/>
      <point x="1107" y="670" type="line"/>
      <point x="1107" y="0" type="line"/>
      <point x="897" y="0" type="line"/>
      <point x="848" y="450" type="line"/>
      <point x="617" y="450" type="line"/>
    </contour>
  </outline>
</glyph>
<glyph name="H" format="2">
  <advance width="1200"/>
  <unicode hex="0048"/>
  <anchor x="596" y="0" name="Anchor-2"/>
  <anchor x="596" y="1300" name="Anchor-0"/>
  <outline>
    <contour>
      <point x="781" y="560" type="line"/>
      <point x="419" y="560" type="line"/>
      <point x="419" y="230" type="line"/>
      <point x="558" y="230" type="line"/>
      <point x="558" y="0" type="line"/>
      <point x="40" y="0" type="line"/>
      <point x="40" y="230" type="line"/>
      <point x="160" y="230" type="line"/>
      <point x="160" y="1070" type="line"/>
      <point x="40" y="1070" type="line"/>
      <point x="40" y="1300" type="line"/>
      <point x="558" y="1300" type="line"/>
      <point x="558" y="1070" type="line"/>
      <point x="419" y="1070" type="line"/>
      <point x="419" y="790" type="line"/>
      <point x="781" y="790" type="line"/>
      <point x="781" y="1070" type="line"/>
      <point x="642" y="1070" type="line"/>
      <point x="642" y="1300" type="line"/>
      <point x="1160" y="1300" type="line"/>
      <point x="1160" y="1070" type="line"/>
      <point x="1040" y="1070" type="line"/>
      <point x="1040" y="230" type="line"/>
      <point x="1160" y="230" type="line"/>
      <point x="1160" y="0" type="line"/>
      <point x="642" y="0" type="line"/>
      <point x="642" y="230" type="line"/>
      <point x="781" y="230" type="line"/>
    </contour>
  </outline>
</glyph>
<glyph name="I" format="2">
  <advance width="1200"/>
  <unicode hex="0049"/>
  <anchor x="602" y="0" name="Anchor-3"/>
  <anchor x="602" y="0" name="Anchor-2"/>
  <anchor x="586" y="1300" name="Anchor-0"/>
  <outline>
    <contour>
      <point x="150" y="0" type="line"/>
      <point x="150" y="230" type="line"/>
      <point x="465" y="230" type="line"/>
      <point x="465" y="1070" type="line"/>
      <point x="160" y="1070" type="line"/>
      <point x="160" y="1300" type="line"/>
      <point x="1040" y="1300" type="line"/>
      <point x="1040" y="1070" type="line"/>
      <point x="735" y="1070" type="line"/>
      <point x="735" y="230" type="line"/>
      <point x="1050" y="230" type="line"/>
      <point x="1050" y="0" type="line"/>
    </contour>
  </outline>
</glyph>
<glyph name="J" format="2">
  <advance width="1200"/>
  <unicode hex="004A"/>
  <anchor x="498" y="0" name="Anchor-2"/>
  <anchor x="766" y="1300" name="Anchor-0"/>
  <outline>
    <contour>
      <point x="50" y="450" type="curve"/>
      <point x="310" y="450" type="line"/>
      <point x="330" y="317"/>
      <point x="366" y="224"/>
      <point x="514" y="224" type="curve" smooth="yes"/>
      <point x="642" y="224"/>
      <point x="708.792" y="297"/>
      <point x="709" y="430" type="curve" smooth="yes"/>
      <point x="710" y="1070" type="line"/>
      <point x="491" y="1070" type="line"/>
      <point x="491" y="1300" type="line"/>
      <point x="1110" y="1300" type="line"/>
      <point x="1110" y="1070" type="line"/>
      <point x="970" y="1070" type="line"/>
      <point x="969" y="430" type="line" smooth="yes"/>
      <point x="968.522" y="124.001"/>
      <point x="785" y="-20"/>
      <point x="499" y="-20" type="curve" smooth="yes"/>
      <point x="203" y="-20"/>
      <point x="60" y="174"/>
    </contour>
  </outline>
</glyph>
<glyph name="K" format="2">
  <advance width="1200"/>
  <unicode hex="004B"/>
  <anchor x="661" y="0" name="Anchor-2"/>
  <anchor x="626" y="1300" name="Anchor-0"/>
  <outline>
    <contour>
      <point x="651" y="1300" type="line"/>
      <point x="1140" y="1300" type="line"/>
      <point x="1140" y="1070" type="line"/>
      <point x="982" y="1070" type="line"/>
      <point x="705" y="720" type="line"/>
      <point x="1065" y="230" type="line"/>
      <point x="1180" y="230" type="line"/>
      <point x="1180" y="0" type="line"/>
      <point x="671" y="0" type="line"/>
      <point x="671" y="230" type="line"/>
      <point x="776" y="230" type="line"/>
      <point x="550" y="558" type="line"/>
      <point x="420" y="410" type="line"/>
      <point x="420" y="230" type="line"/>
      <point x="529" y="230" type="line"/>
      <point x="529" y="0" type="line"/>
      <point x="70" y="0" type="line"/>
      <point x="70" y="230" type="line"/>
      <point x="170" y="230" type="line"/>
      <point x="170" y="1070" type="line"/>
      <point x="70" y="1070" type="line"/>
      <point x="70" y="1300" type="line"/>
      <point x="529" y="1300" type="line"/>
      <point x="529" y="1070" type="line"/>
      <point x="420" y="1070" type="line"/>
      <point x="420" y="684" type="line"/>
      <point x="712" y="1070" type="line"/>
      <point x="651" y="1070" type="line"/>
    </contour>
  </outline>
</glyph>
<glyph name="L" format="2">
  <advance width="1200"/>
  <unicode hex="004C"/>
  <anchor x="616" y="0" name="Anchor-2"/>
  <anchor x="789" y="943" name="Anchor-1"/>
  <anchor x="344" y="1300" name="Anchor-0"/>
  <outline>
    <contour>
      <point x="941" y="650" type="line"/>
      <point x="1150" y="650" type="line"/>
      <point x="1130" y="0" type="line"/>
      <point x="70" y="0" type="line"/>
      <point x="70" y="230" type="line"/>
      <point x="210" y="230" type="line"/>
      <point x="210" y="1080" type="line"/>
      <point x="90" y="1080" type="line"/>
      <point x="90" y="1300" type="line"/>
      <point x="619" y="1300" type="line"/>
      <point x="619" y="1080" type="line"/>
      <point x="469" y="1080" type="line"/>
      <point x="469" y="230" type="line"/>
      <point x="875" y="230" type="line"/>
    </contour>
  </outline>
</glyph>
<glyph name="M" format="2">
  <advance width="1200"/>
  <unicode hex="004D"/>
  <anchor x="606" y="0" name="Anchor-2"/>
  <anchor x="606" y="1300" name="Anchor-0"/>
  <outline>
    <contour>
      <point x="128" y="1070" type="line"/>
      <point x="0" y="1070" type="line"/>
      <point x="0" y="1300" type="line"/>
      <point x="433" y="1300" type="line"/>
      <point x="645" y="630" type="line"/>
      <point x="555" y="630" type="line"/>
      <point x="767" y="1300" type="line"/>
      <point x="1200" y="1300" type="line"/>
      <point x="1200" y="1070" type="line"/>
      <point x="1072" y="1070" type="line"/>
      <point x="1088" y="230" type="line"/>
      <point x="1200" y="230" type="line"/>
      <point x="1200" y="0" type="line"/>
      <point x="731" y="0" type="line"/>
      <point x="731" y="230" type="line"/>
      <point x="844" y="230" type="line"/>
      <point x="839" y="584" type="line"/>
      <point x="894" y="1074" type="line"/>
      <point x="670" y="350" type="line"/>
      <point x="530" y="350" type="line"/>
      <point x="306" y="1074" type="line"/>
      <point x="361" y="584" type="line"/>
      <point x="356" y="230" type="line"/>
      <point x="469" y="230" type="line"/>
      <point x="469" y="0" type="line"/>
      <point x="0" y="0" type="line"/>
      <point x="0" y="230" type="line"/>
      <point x="112" y="230" type="line"/>
    </contour>
  </outline>
</glyph>
<glyph name="N" format="2">
  <advance width="1200"/>
  <unicode hex="004E"/>
  <anchor x="626" y="0" name="Anchor-2"/>
  <anchor x="636" y="1300" name="Anchor-0"/>
  <outline>
    <contour>
      <point x="220" y="1060" type="line"/>
      <point x="62" y="1060" type="line"/>
      <point x="62" y="1300" type="line"/>
      <point x="220" y="1300" type="line"/>
    </contour>
    <contour>
      <point x="170" y="1300" type="line"/>
      <point x="578" y="1300" type="line"/>
      <point x="871" y="463" type="line"/>
      <point x="871" y="1320" type="line"/>
      <point x="1120" y="1320" type="line"/>
      <point x="1120" y="-20" type="line"/>
      <point x="832" y="-20" type="line"/>
      <point x="442" y="997" type="line"/>
      <point x="387" y="1167" type="line"/>
      <point x="409" y="997" type="line"/>
      <point x="409" y="-20" type="line"/>
      <point x="170" y="-20" type="line"/>
    </contour>
  </outline>
</glyph>
<glyph name="O" format="2">
  <advance width="1200"/>
  <unicode hex="004F"/>
  <anchor x="599" y="0" name="Anchor-2"/>
  <anchor x="599" y="1300" name="Anchor-0"/>
  <outline>
    <contour>
      <point x="599" y="-20" type="curve" smooth="yes"/>
      <point x="243" y="-20"/>
      <point x="50" y="194"/>
      <point x="50" y="650" type="curve" smooth="yes"/>
      <point x="50" y="1096"/>
      <point x="262" y="1320"/>
      <point x="599" y="1320" type="curve" smooth="yes"/>
      <point x="936" y="1320"/>
      <point x="1149" y="1096"/>
      <point x="1149" y="650" type="curve" smooth="yes"/>
      <point x="1149" y="194"/>
      <point x="955" y="-20"/>
    </contour>
    <contour>
      <point x="599" y="1080" type="curve" smooth="yes"/>
      <point x="451" y="1080"/>
      <point x="360" y="973"/>
      <point x="360" y="650" type="curve" smooth="yes"/>
      <point x="360" y="317"/>
      <point x="431" y="220"/>
      <point x="599" y="220" type="curve" smooth="yes"/>
      <point x="767" y="220"/>
      <point x="839" y="317"/>
      <point x="839" y="650" type="curve" smooth="yes"/>
      <point x="839" y="973"/>
      <point x="747" y="1080"/>
    </contour>
  </outline>
</glyph>
<glyph name="P" format="2">
  <advance width="1200"/>
  <unicode hex="0050"/>
  <anchor x="362" y="0" name="Anchor-2"/>
  <anchor x="566" y="1300" name="Anchor-0"/>
  <outline>
    <contour>
      <point x="100" y="0" type="line"/>
      <point x="100" y="230" type="line"/>
      <point x="220" y="230" type="line"/>
      <point x="220" y="1070" type="line"/>
      <point x="100" y="1070" type="line"/>
      <point x="100" y="1300" type="line"/>
      <point x="662" y="1300" type="line" smooth="yes"/>
      <point x="1018" y="1300"/>
      <point x="1171" y="1161"/>
      <point x="1171" y="885" type="curve" smooth="yes"/>
      <point x="1171" y="619"/>
      <point x="999" y="480"/>
      <point x="662" y="480" type="curve" smooth="yes"/>
      <point x="479" y="480" type="line"/>
      <point x="479" y="230" type="line"/>
      <point x="669" y="230" type="line"/>
      <point x="669" y="0" type="line"/>
    </contour>
    <contour>
      <point x="479" y="710" type="line"/>
      <point x="662" y="710" type="line" smooth="yes"/>
      <point x="810" y="710"/>
      <point x="911" y="762"/>
      <point x="911" y="885" type="curve" smooth="yes"/>
      <point x="911" y="1018"/>
      <point x="830" y="1070"/>
      <point x="662" y="1070" type="curve" smooth="yes"/>
      <point x="479" y="1070" type="line"/>
    </contour>
  </outline>
</glyph>
<glyph name="Q" format="2">
  <advance width="1200"/>
  <unicode hex="0051"/>
  <anchor x="599" y="1300" name="Anchor-0"/>
  <outline>
    <contour>
      <point x="251" y="227" type="line"/>
      <point x="271" y="373"/>
      <point x="370" y="572"/>
      <point x="541" y="572" type="curve" smooth="yes"/>
      <point x="910" y="572"/>
      <point x="796" y="-158"/>
      <point x="960" y="-158" type="curve" smooth="yes"/>
      <point x="1009" y="-158"/>
      <point x="1010" y="-81"/>
      <point x="1040" y="1" type="curve"/>
      <point x="1250" y="-89" type="line"/>
      <point x="1200" y="-221"/>
      <point x="1113" y="-378"/>
      <point x="933" y="-378" type="curve" smooth="yes"/>
      <point x="523" y="-378"/>
      <point x="671" y="342"/>
      <point x="500" y="342" type="curve" smooth="yes"/>
      <point x="397" y="342"/>
      <point x="431" y="228"/>
      <point x="431" y="127" type="curve"/>
    </contour>
    <contour>
      <point x="599" y="-20" type="curve" smooth="yes"/>
      <point x="253" y="-20"/>
      <point x="50" y="184"/>
      <point x="50" y="650" type="curve" smooth="yes"/>
      <point x="50" y="1106"/>
      <point x="272" y="1320"/>
      <point x="599" y="1320" type="curve" smooth="yes"/>
      <point x="926" y="1320"/>
      <point x="1149" y="1106"/>
      <point x="1149" y="650" type="curve" smooth="yes"/>
      <point x="1149" y="184"/>
      <point x="945" y="-20"/>
    </contour>
    <contour>
      <point x="599" y="1080" type="curve" smooth="yes"/>
      <point x="441" y="1080"/>
      <point x="360" y="973"/>
      <point x="360" y="650" type="curve" smooth="yes"/>
      <point x="360" y="317"/>
      <point x="421" y="210"/>
      <point x="599" y="210" type="curve" smooth="yes"/>
      <point x="777" y="210"/>
      <point x="839" y="317"/>
      <point x="839" y="650" type="curve" smooth="yes"/>
      <point x="839" y="973"/>
      <point x="757" y="1080"/>
    </contour>
  </outline>
</glyph>
<glyph name="R" format="2">
  <advance width="1200"/>
  <unicode hex="0052"/>
  <anchor x="586" y="0" name="Anchor-2"/>
  <anchor x="546" y="1300" name="Anchor-0"/>
  <outline>
    <contour>
      <point x="40" y="0" type="line"/>
      <point x="40" y="230" type="line"/>
      <point x="150" y="230" type="line"/>
      <point x="150" y="1070" type="line"/>
      <point x="40" y="1070" type="line"/>
      <point x="40" y="1300" type="line"/>
      <point x="552" y="1300" type="line" smooth="yes"/>
      <point x="908" y="1300"/>
      <point x="1061" y="1176"/>
      <point x="1061" y="930" type="curve" smooth="yes"/>
      <point x="1061" y="644"/>
      <point x="809" y="585"/>
      <point x="572" y="575" type="curve"/>
      <point x="562" y="630" type="line"/>
      <point x="758" y="630"/>
      <point x="855.834" y="522.975"/>
      <point x="891" y="290" type="curve" smooth="yes"/>
      <point x="899" y="237"/>
      <point x="900" y="210"/>
      <point x="931" y="210" type="curve" smooth="yes"/>
      <point x="959" y="210"/>
      <point x="966" y="237"/>
      <point x="976" y="350" type="curve"/>
      <point x="1181" y="320" type="line"/>
      <point x="1171" y="134"/>
      <point x="1157" y="-40"/>
      <point x="931" y="-40" type="curve" smooth="yes"/>
      <point x="735" y="-40"/>
      <point x="676.395" y="80.7295"/>
      <point x="651" y="275" type="curve" smooth="yes"/>
      <point x="631" y="428"/>
      <point x="590" y="490"/>
      <point x="482" y="490" type="curve" smooth="yes"/>
      <point x="409" y="490" type="line"/>
      <point x="409" y="230" type="line"/>
      <point x="562" y="230" type="line"/>
      <point x="562" y="0" type="line"/>
    </contour>
    <contour>
      <point x="409" y="720" type="line"/>
      <point x="522" y="720" type="line" smooth="yes"/>
      <point x="690" y="720"/>
      <point x="791" y="767"/>
      <point x="791" y="890" type="curve" smooth="yes"/>
      <point x="791" y="1023"/>
      <point x="720" y="1070"/>
      <point x="552" y="1070" type="curve" smooth="yes"/>
      <point x="409" y="1070" type="line"/>
    </contour>
  </outline>
</glyph>
<glyph name="S" format="2">
  <advance width="1200"/>
  <unicode hex="0053"/>
  <anchor x="636" y="0" name="Anchor-3"/>
  <anchor x="635" y="0" name="Anchor-2"/>
  <anchor x="606" y="1300" name="Anchor-0"/>
  <outline>
    <contour>
      <point x="892" y="1310" type="line"/>
      <point x="1082" y="1310" type="line"/>
      <point x="1082" y="809" type="line"/>
      <point x="832" y="809" type="line"/>
      <point x="762" y="962"/>
      <point x="622" y="1080"/>
      <point x="504" y="1080" type="curve" smooth="yes"/>
      <point x="423" y="1080"/>
      <point x="369" y="1044"/>
      <point x="369" y="981" type="curve" smooth="yes"/>
      <point x="369" y="901"/>
      <point x="501" y="839"/>
      <point x="661" y="792" type="curve" smooth="yes"/>
      <point x="877" y="729"/>
      <point x="1139" y="663"/>
      <point x="1139" y="350" type="curve" smooth="yes"/>
      <point x="1139" y="70"/>
      <point x="922" y="-29"/>
      <point x="710" y="-29" type="curve" smooth="yes"/>
      <point x="443" y="-29"/>
      <point x="182" y="141"/>
      <point x="182" y="531" type="curve"/>
      <point x="317" y="401" type="line"/>
      <point x="252" y="-10" type="line"/>
      <point x="57" y="-10" type="line"/>
      <point x="57" y="581" type="line"/>
      <point x="302" y="581" type="line"/>
      <point x="332" y="313"/>
      <point x="497" y="201"/>
      <point x="670" y="201" type="curve" smooth="yes"/>
      <point x="812" y="201"/>
      <point x="879" y="262"/>
      <point x="879" y="351" type="curve" smooth="yes"/>
      <point x="879" y="465"/>
      <point x="765" y="508"/>
      <point x="611" y="549" type="curve" smooth="yes"/>
      <point x="424" y="599"/>
      <point x="109" y="698"/>
      <point x="109" y="1000" type="curve" smooth="yes"/>
      <point x="109" y="1191"/>
      <point x="268" y="1320"/>
      <point x="504" y="1320" type="curve" smooth="yes"/>
      <point x="760" y="1320"/>
      <point x="937" y="1049"/>
      <point x="937" y="859" type="curve"/>
      <point x="817" y="979" type="line"/>
    </contour>
  </outline>
</glyph>
<glyph name="T" format="2">
  <advance width="1200"/>
  <unicode hex="0054"/>
  <anchor x="601" y="0" name="Anchor-3"/>
  <anchor x="599" y="1300" name="Anchor-0"/>
  <anchor x="599" y="0" name="Anchor-2"/>
  <outline>
    <contour>
      <point x="229" y="740" type="line"/>
      <point x="20" y="740" type="line"/>
      <point x="20" y="1300" type="line"/>
      <point x="1180" y="1300" type="line"/>
      <point x="1180" y="740" type="line"/>
      <point x="971" y="740" type="line"/>
      <point x="935" y="1070" type="line"/>
      <point x="729" y="1070" type="line"/>
      <point x="729" y="230" type="line"/>
      <point x="919" y="230" type="line"/>
      <point x="919" y="0" type="line"/>
      <point x="270" y="0" type="line"/>
      <point x="270" y="230" type="line"/>
      <point x="460" y="230" type="line"/>
      <point x="460" y="1070" type="line"/>
      <point x="265" y="1070" type="line"/>
    </contour>
  </outline>
</glyph>
<glyph name="U" format="2">
  <advance width="1200"/>
  <unicode hex="0055"/>
  <anchor x="599" y="1300" name="Anchor-0"/>
  <anchor x="599" y="0" name="Anchor-2"/>
  <anchor x="731" y="80" name="Anchor-3"/>
  <outline>
    <contour>
      <point x="150" y="430" type="curve" smooth="yes"/>
      <point x="150" y="1070" type="line"/>
      <point x="40" y="1070" type="line"/>
      <point x="40" y="1300" type="line"/>
      <point x="529" y="1300" type="line"/>
      <point x="529" y="1070" type="line"/>
      <point x="410" y="1070" type="line"/>
      <point x="410" y="430" type="line" smooth="yes"/>
      <point x="410" y="287"/>
      <point x="491" y="220"/>
      <point x="599" y="220" type="curve" smooth="yes"/>
      <point x="707" y="220"/>
      <point x="788.777" y="287"/>
      <point x="789" y="430" type="curve" smooth="yes"/>
      <point x="790" y="1070" type="line"/>
      <point x="671" y="1070" type="line"/>
      <point x="671" y="1300" type="line"/>
      <point x="1160" y="1300" type="line"/>
      <point x="1160" y="1070" type="line"/>
      <point x="1050" y="1070" type="line"/>
      <point x="1049" y="430" type="line" smooth="yes"/>
      <point x="1048.49" y="104.001"/>
      <point x="865" y="-20"/>
      <point x="599" y="-20" type="curve" smooth="yes"/>
      <point x="333" y="-20"/>
      <point x="150" y="104"/>
    </contour>
  </outline>
</glyph>
<glyph name="V" format="2">
  <advance width="1200"/>
  <unicode hex="0056"/>
  <anchor x="599" y="1300" name="Anchor-0"/>
  <anchor x="599" y="0" name="Anchor-2"/>
  <outline>
    <contour>
      <point x="751" y="1070" type="line"/>
      <point x="661" y="1070" type="line"/>
      <point x="661" y="1300" type="line"/>
      <point x="1170" y="1300" type="line"/>
      <point x="1170" y="1070" type="line"/>
      <point x="1043" y="1070" type="line"/>
      <point x="740" y="-20" type="line"/>
      <point x="460" y="-20" type="line"/>
      <point x="157" y="1070" type="line"/>
      <point x="30" y="1070" type="line"/>
      <point x="30" y="1300" type="line"/>
      <point x="539" y="1300" type="line"/>
      <point x="539" y="1070" type="line"/>
      <point x="449" y="1070" type="line"/>
      <point x="660" y="110" type="line"/>
      <point x="540" y="110" type="line"/>
    </contour>
  </outline>
</glyph>
<glyph name="W" format="2">
  <advance width="1200"/>
  <unicode hex="0057"/>
  <anchor x="599" y="1300" name="Anchor-0"/>
  <anchor x="599" y="0" name="Anchor-2"/>
  <outline>
    <contour>
      <point x="356" y="1070" type="line"/>
      <point x="397" y="626" type="line"/>
      <point x="357" y="6" type="line"/>
      <point x="327" y="6" type="line"/>
      <point x="495" y="950" type="line"/>
      <point x="705" y="950" type="line"/>
      <point x="883" y="16" type="line"/>
      <point x="853" y="16" type="line"/>
      <point x="813" y="626" type="line"/>
      <point x="844" y="1070" type="line"/>
      <point x="681" y="1070" type="line"/>
      <point x="681" y="1300" type="line"/>
      <point x="1190" y="1300" type="line"/>
      <point x="1190" y="1070" type="line"/>
      <point x="1070" y="1070" type="line"/>
      <point x="985" y="0" type="line"/>
      <point x="712" y="0" type="line"/>
      <point x="560" y="690" type="line"/>
      <point x="640" y="690" type="line"/>
      <point x="488" y="0" type="line"/>
      <point x="215" y="0" type="line"/>
      <point x="130" y="1070" type="line"/>
      <point x="10" y="1070" type="line"/>
      <point x="10" y="1300" type="line"/>
      <point x="509" y="1300" type="line"/>
      <point x="509" y="1070" type="line"/>
    </contour>
  </outline>
</glyph>
<glyph name="X" format="2">
  <advance width="1200"/>
  <unicode hex="0058"/>
  <anchor x="599" y="1300" name="Anchor-0"/>
  <anchor x="599" y="0" name="Anchor-2"/>
  <outline>
    <contour>
      <point x="60" y="1300" type="line"/>
      <point x="549" y="1300" type="line"/>
      <point x="549" y="1070" type="line"/>
      <point x="459" y="1070" type="line"/>
      <point x="600" y="812" type="line"/>
      <point x="741" y="1070" type="line"/>
      <point x="651" y="1070" type="line"/>
      <point x="651" y="1300" type="line"/>
      <point x="1140" y="1300" type="line"/>
      <point x="1140" y="1070" type="line"/>
      <point x="1011" y="1070" type="line"/>
      <point x="765" y="654" type="line"/>
      <point x="1031" y="230" type="line"/>
      <point x="1160" y="230" type="line"/>
      <point x="1160" y="0" type="line"/>
      <point x="641" y="0" type="line"/>
      <point x="641" y="230" type="line"/>
      <point x="741" y="230" type="line"/>
      <point x="600" y="486" type="line"/>
      <point x="459" y="230" type="line"/>
      <point x="559" y="230" type="line"/>
      <point x="559" y="0" type="line"/>
      <point x="40" y="0" type="line"/>
      <point x="40" y="230" type="line"/>
      <point x="169" y="230" type="line"/>
      <point x="435" y="644" type="line"/>
      <point x="189" y="1070" type="line"/>
      <point x="60" y="1070" type="line"/>
    </contour>
  </outline>
</glyph>
<glyph name="Y" format="2">
  <advance width="1200"/>
  <unicode hex="0059"/>
  <anchor x="599" y="1300" name="Anchor-0"/>
  <anchor x="599" y="0" name="Anchor-2"/>
  <outline>
    <contour>
      <point x="270" y="0" type="line"/>
      <point x="270" y="230" type="line"/>
      <point x="460" y="230" type="line"/>
      <point x="460" y="480" type="line"/>
      <point x="164" y="1070" type="line"/>
      <point x="30" y="1070" type="line"/>
      <point x="30" y="1300" type="line"/>
      <point x="538" y="1300" type="line"/>
      <point x="538" y="1070" type="line"/>
      <point x="419" y="1070" type="line"/>
      <point x="619" y="610" type="line"/>
      <point x="570" y="610" type="line"/>
      <point x="781" y="1070" type="line"/>
      <point x="680" y="1070" type="line"/>
      <point x="680" y="1300" type="line"/>
      <point x="1170" y="1300" type="line"/>
      <point x="1170" y="1070" type="line"/>
      <point x="1036" y="1070" type="line"/>
      <point x="729" y="480" type="line"/>
      <point x="729" y="230" type="line"/>
      <point x="919" y="230" type="line"/>
      <point x="919" y="0" type="line"/>
    </contour>
  </outline>
</glyph>
<glyph name="Z" format="2">
  <advance width="1200"/>
  <unicode hex="005A"/>
  <anchor x="599" y="1300" name="Anchor-0"/>
  <anchor x="599" y="0" name="Anchor-2"/>
  <outline>
    <contour>
      <point x="891" y="560" type="line"/>
      <point x="1100" y="560" type="line"/>
      <point x="1060" y="0" type="line"/>
      <point x="90" y="0" type="line"/>
      <point x="20" y="150" type="line"/>
      <point x="752" y="1060" type="line"/>
      <point x="349" y="1060" type="line"/>
      <point x="319" y="800" type="line"/>
      <point x="110" y="800" type="line"/>
      <point x="110" y="1300" type="line"/>
      <point x="1030" y="1300" type="line"/>
      <point x="1100" y="1150" type="line"/>
      <point x="368" y="240" type="line"/>
      <point x="808" y="240" type="line"/>
    </contour>
  </outline>
</glyph>
<glyph name="bracketleft" format="2">
  <advance width="1200"/>
  <unicode hex="005B"/>
  <outline>
    <contour>
      <point x="229" y="-51" type="line"/>
      <point x="229" y="1350" type="line"/>
      <point x="921" y="1350" type="line"/>
      <point x="921" y="1120" type="line"/>
      <point x="511" y="1120" type="line"/>
      <point x="511" y="179" type="line"/>
      <point x="921" y="179" type="line"/>
      <point x="921" y="-51" type="line"/>
    </contour>
  </outline>
</glyph>
<glyph name="backslash" format="2">
  <advance width="1200"/>
  <unicode hex="005C"/>
  <outline>
    <contour>
      <point x="416" y="1375" type="line"/>
      <point x="1046" y="-85" type="line"/>
      <point x="844" y="-185" type="line"/>
      <point x="214" y="1275" type="line"/>
    </contour>
  </outline>
</glyph>
<glyph name="bracketright" format="2">
  <advance width="1200"/>
  <unicode hex="005D"/>
  <outline>
    <contour>
      <point x="971" y="1350" type="line"/>
      <point x="971" y="-51" type="line"/>
      <point x="279" y="-51" type="line"/>
      <point x="279" y="179" type="line"/>
      <point x="689" y="179" type="line"/>
      <point x="689" y="1120" type="line"/>
      <point x="279" y="1120" type="line"/>
      <point x="279" y="1350" type="line"/>
    </contour>
  </outline>
</glyph>
<glyph name="asciicircum" format="2">
  <advance width="1200"/>
  <unicode hex="005E"/>
  <outline>
    <contour>
      <point x="254" y="731" type="line"/>
      <point x="142" y="801" type="line"/>
      <point x="472" y="1300" type="line"/>
      <point x="739" y="1300" type="line"/>
      <point x="1058" y="801" type="line"/>
      <point x="947" y="731" type="line"/>
      <point x="572" y="1100" type="line"/>
      <point x="639" y="1100" type="line"/>
    </contour>
  </outline>
</glyph>
<glyph name="underscore" format="2">
  <advance width="1200"/>
  <unicode hex="005F"/>
  <outline>
    <contour>
      <point x="219" y="0" type="line"/>
      <point x="981" y="0" type="line"/>
      <point x="981" y="-230" type="line"/>
      <point x="219" y="-230" type="line"/>
    </contour>
  </outline>
</glyph>
<glyph name="a" format="2">
  <advance width="1200"/>
  <unicode hex="0061"/>
  <anchor x="990" y="30" name="Anchor-3"/>
  <anchor x="556" y="0" name="Anchor-2"/>
  <anchor x="616" y="920" name="Anchor-0"/>
  <outline>
    <contour>
      <point x="1022" y="630" type="curve" smooth="yes"/>
      <point x="1022" y="245" type="line" smooth="yes"/>
      <point x="1022" y="218"/>
      <point x="1026" y="210"/>
      <point x="1036" y="210" type="curve" smooth="yes"/>
      <point x="1056" y="210"/>
      <point x="1109" y="223"/>
      <point x="1129" y="243" type="curve"/>
      <point x="1179" y="33" type="line"/>
      <point x="1119" y="3"/>
      <point x="1072" y="-25"/>
      <point x="972" y="-25" type="curve" smooth="yes"/>
      <point x="852" y="-25"/>
      <point x="763" y="60"/>
      <point x="763" y="150" type="curve" smooth="yes"/>
      <point x="763" y="620" type="line" smooth="yes"/>
      <point x="763" y="683"/>
      <point x="735" y="720"/>
      <point x="657" y="720" type="curve" smooth="yes"/>
      <point x="509" y="720"/>
      <point x="336" y="620"/>
      <point x="241" y="557" type="curve"/>
      <point x="132" y="790" type="line"/>
      <point x="252" y="856"/>
      <point x="515" y="940"/>
      <point x="692" y="940" type="curve" smooth="yes"/>
      <point x="929" y="940"/>
      <point x="1022" y="817"/>
    </contour>
    <contour>
      <point x="374" y="256" type="curve" smooth="yes"/>
      <point x="374" y="240"/>
      <point x="383" y="215"/>
      <point x="433" y="215" type="curve" smooth="yes"/>
      <point x="571" y="215"/>
      <point x="743" y="297"/>
      <point x="843" y="390" type="curve"/>
      <point x="903" y="260" type="line"/>
      <point x="773" y="144"/>
      <point x="610" y="-20"/>
      <point x="373" y="-20" type="curve" smooth="yes"/>
      <point x="187" y="-20"/>
      <point x="74" y="54"/>
      <point x="74" y="220" type="curve" smooth="yes"/>
      <point x="74" y="403"/>
      <point x="299" y="538"/>
      <point x="812" y="589" type="curve"/>
      <point x="852" y="458" type="line"/>
      <point x="516" y="383"/>
      <point x="374" y="320"/>
    </contour>
  </outline>
</glyph>
<glyph name="c" format="2">
  <advance width="1200"/>
  <unicode hex="0063"/>
  <anchor x="636" y="2" name="Anchor-3"/>
  <anchor x="636" y="0" name="Anchor-2"/>
  <anchor x="656" y="920" name="Anchor-0"/>
  <outline>
    <contour>
      <point x="620" y="720" type="line"/>
      <point x="477" y="720"/>
      <point x="377" y="631"/>
      <point x="377" y="458" type="curve" smooth="yes"/>
      <point x="377" y="315"/>
      <point x="466" y="215"/>
      <point x="644" y="215" type="curve"/>
      <point x="624" y="-20" type="line"/>
      <point x="323" y="-20"/>
      <point x="75" y="134"/>
      <point x="75" y="430" type="curve" smooth="yes"/>
      <point x="75" y="736"/>
      <point x="288" y="940"/>
      <point x="640" y="940" type="curve"/>
    </contour>
    <contour>
      <point x="620" y="720" type="curve"/>
      <point x="640" y="940" type="line"/>
      <point x="880" y="940"/>
      <point x="1071" y="814"/>
      <point x="1071" y="667" type="curve" smooth="yes"/>
      <point x="1071" y="579"/>
      <point x="1060" y="530"/>
      <point x="1059" y="510" type="curve"/>
      <point x="801" y="510" type="line"/>
      <point x="803" y="531"/>
      <point x="804" y="551"/>
      <point x="804" y="581" type="curve" smooth="yes"/>
      <point x="804" y="656"/>
      <point x="731" y="720"/>
    </contour>
    <contour>
      <point x="1082" y="103" type="line"/>
      <point x="992" y="39"/>
      <point x="820" y="-20"/>
      <point x="624" y="-20" type="curve"/>
      <point x="644" y="215" type="line"/>
      <point x="811" y="215"/>
      <point x="927" y="277"/>
      <point x="997" y="320" type="curve"/>
    </contour>
  </outline>
</glyph>
<glyph name="d" format="2">
  <advance width="1200"/>
  <unicode hex="0064"/>
  <anchor x="656" y="0" name="Anchor-2"/>
  <anchor x="1149" y="920" name="Anchor-1"/>
  <anchor x="495" y="920" name="Anchor-0"/>
  <outline>
    <contour>
      <point x="617" y="690" type="curve" smooth="yes"/>
      <point x="479" y="690"/>
      <point x="372" y="613"/>
      <point x="372" y="460" type="curve" smooth="yes"/>
      <point x="372" y="317"/>
      <point x="469" y="225"/>
      <point x="607" y="225" type="curve" smooth="yes"/>
      <point x="745" y="225"/>
      <point x="851" y="297"/>
      <point x="851" y="460" type="curve" smooth="yes"/>
      <point x="851" y="603"/>
      <point x="745" y="690"/>
    </contour>
    <contour>
      <point x="527" y="-20" type="curve" smooth="yes"/>
      <point x="301" y="-20"/>
      <point x="82" y="154"/>
      <point x="82" y="460" type="curve" smooth="yes"/>
      <point x="82" y="746"/>
      <point x="280" y="940"/>
      <point x="547" y="940" type="curve" smooth="yes"/>
      <point x="804" y="940"/>
      <point x="931" y="696"/>
      <point x="931" y="460" type="curve" smooth="yes"/>
      <point x="931" y="194"/>
      <point x="813" y="-20"/>
    </contour>
    <contour>
      <point x="681" y="1330" type="line"/>
      <point x="901" y="1330" type="line"/>
      <point x="901" y="1090" type="line"/>
      <point x="681" y="1090" type="line"/>
    </contour>
    <contour>
      <point x="851" y="190" type="line"/>
      <point x="851" y="1330" type="line"/>
      <point x="1110" y="1330" type="line"/>
      <point x="1110" y="0" type="line"/>
      <point x="941" y="0" type="line"/>
    </contour>
  </outline>
</glyph>
<glyph name="e" format="2">
  <advance width="1200"/>
  <unicode hex="0065"/>
  <anchor x="736" y="37" name="Anchor-3"/>
  <anchor x="665" y="0" name="Anchor-2"/>
  <anchor x="645" y="920" name="Anchor-0"/>
  <outline>
    <contour>
      <point x="1041" y="109" type="line"/>
      <point x="961" y="43"/>
      <point x="820" y="-20"/>
      <point x="644" y="-20" type="curve"/>
      <point x="654" y="222" type="line"/>
      <point x="781" y="222"/>
      <point x="914" y="284"/>
      <point x="963" y="322" type="curve"/>
    </contour>
    <contour>
      <point x="644" y="-20" type="line"/>
      <point x="298" y="-20"/>
      <point x="86" y="154"/>
      <point x="86" y="440" type="curve" smooth="yes"/>
      <point x="86" y="736"/>
      <point x="312" y="940"/>
      <point x="649" y="940" type="curve" smooth="yes"/>
      <point x="926" y="940"/>
      <point x="1079" y="785"/>
      <point x="1079" y="602" type="curve" smooth="yes"/>
      <point x="1079" y="534"/>
      <point x="1072" y="447"/>
      <point x="1062" y="397" type="curve"/>
      <point x="323" y="367" type="line"/>
      <point x="323" y="537" type="line"/>
      <point x="830" y="577" type="line"/>
      <point x="843" y="687"/>
      <point x="729" y="725"/>
      <point x="649" y="725" type="curve" smooth="yes"/>
      <point x="511" y="725"/>
      <point x="353" y="653"/>
      <point x="353" y="460" type="curve" smooth="yes"/>
      <point x="353" y="297"/>
      <point x="436" y="222"/>
      <point x="654" y="222" type="curve"/>
    </contour>
  </outline>
</glyph>
<glyph name="f" format="2">
  <advance width="1200"/>
  <unicode hex="0066"/>
  <anchor x="516" y="0" name="Anchor-2"/>
  <anchor x="840" y="1420" name="Anchor-0"/>
  <outline>
    <contour>
      <point x="819" y="1200" type="curve"/>
      <point x="839" y="1440" type="line"/>
      <point x="1026" y="1440"/>
      <point x="1139" y="1361"/>
      <point x="1224" y="1301" type="curve"/>
      <point x="1118" y="1080" type="line"/>
      <point x="1076" y="1110"/>
      <point x="907" y="1200"/>
    </contour>
    <contour>
      <point x="160" y="0" type="line"/>
      <point x="160" y="230" type="line"/>
      <point x="380" y="230" type="line"/>
      <point x="380" y="690" type="line"/>
      <point x="160" y="690" type="line"/>
      <point x="160" y="920" type="line"/>
      <point x="379" y="920" type="line"/>
      <point x="379" y="1000" type="line" smooth="yes"/>
      <point x="379" y="1246"/>
      <point x="532" y="1440"/>
      <point x="839" y="1440" type="curve"/>
      <point x="819" y="1200" type="line"/>
      <point x="701" y="1200"/>
      <point x="659" y="1153"/>
      <point x="659" y="1000" type="curve" smooth="yes"/>
      <point x="659" y="920" type="line"/>
      <point x="1050" y="920" type="line"/>
      <point x="1050" y="670" type="line"/>
      <point x="659" y="710" type="line"/>
      <point x="659" y="230" type="line"/>
      <point x="1000" y="230" type="line"/>
      <point x="1000" y="0" type="line"/>
    </contour>
  </outline>
</glyph>
<glyph name="g" format="2">
  <advance width="1200"/>
  <unicode hex="0067"/>
  <anchor x="545" y="-340" name="Anchor-2"/>
  <anchor x="689" y="920" name="Anchor-0"/>
  <outline>
    <contour>
      <point x="951" y="732" type="curve"/>
      <point x="895" y="829" type="line"/>
      <point x="967" y="891"/>
      <point x="1038" y="950"/>
      <point x="1138" y="970" type="curve"/>
      <point x="1159" y="734" type="line"/>
      <point x="1104" y="744"/>
      <point x="1014" y="755"/>
    </contour>
    <contour>
      <point x="572" y="735" type="curve" smooth="yes"/>
      <point x="474" y="735"/>
      <point x="418" y="688"/>
      <point x="418" y="625" type="curve" smooth="yes"/>
      <point x="418" y="552"/>
      <point x="474" y="515"/>
      <point x="572" y="515" type="curve" smooth="yes"/>
      <point x="670" y="515"/>
      <point x="737" y="552"/>
      <point x="737" y="625" type="curve" smooth="yes"/>
      <point x="737" y="688"/>
      <point x="670" y="735"/>
    </contour>
    <contour>
      <point x="572" y="300" type="curve" smooth="yes"/>
      <point x="296" y="300"/>
      <point x="153" y="419"/>
      <point x="153" y="625" type="curve" smooth="yes"/>
      <point x="153" y="821"/>
      <point x="315" y="950"/>
      <point x="572" y="950" type="curve" smooth="yes"/>
      <point x="829" y="950"/>
      <point x="1002" y="821"/>
      <point x="1002" y="625" type="curve" smooth="yes"/>
      <point x="1002" y="419"/>
      <point x="848" y="300"/>
    </contour>
    <contour>
      <point x="472" y="330" type="line"/>
      <point x="411" y="320"/>
      <point x="377" y="294"/>
      <point x="377" y="261" type="curve" smooth="yes"/>
      <point x="377" y="228"/>
      <point x="411" y="215"/>
      <point x="487" y="215" type="curve" smooth="yes"/>
      <point x="757" y="215" type="line" smooth="yes"/>
      <point x="943" y="215"/>
      <point x="1117" y="183"/>
      <point x="1117" y="-30" type="curve" smooth="yes"/>
      <point x="1117" y="-270"/>
      <point x="840" y="-359"/>
      <point x="548" y="-359" type="curve" smooth="yes"/>
      <point x="221" y="-359"/>
      <point x="85" y="-269"/>
      <point x="85" y="-139" type="curve" smooth="yes"/>
      <point x="85" y="-39"/>
      <point x="152" y="41"/>
      <point x="399" y="71" type="curve"/>
      <point x="409" y="41" type="line"/>
      <point x="361" y="21"/>
      <point x="340" y="-9"/>
      <point x="340" y="-49" type="curve" smooth="yes"/>
      <point x="340" y="-97"/>
      <point x="405" y="-119"/>
      <point x="568" y="-119" type="curve" smooth="yes"/>
      <point x="770" y="-119"/>
      <point x="857" y="-94"/>
      <point x="857" y="-40" type="curve" smooth="yes"/>
      <point x="857" y="-1"/>
      <point x="813" y="17"/>
      <point x="719" y="17" type="curve" smooth="yes"/>
      <point x="409" y="17" type="line" smooth="yes"/>
      <point x="257" y="17"/>
      <point x="137" y="98"/>
      <point x="137" y="185" type="curve" smooth="yes"/>
      <point x="137" y="306"/>
      <point x="296" y="357"/>
      <point x="482" y="377" type="curve"/>
    </contour>
  </outline>
</glyph>
<glyph name="h" format="2">
  <advance width="1200"/>
  <unicode hex="0068"/>
  <anchor x="618" y="0" name="Anchor-2"/>
  <anchor x="780" y="1030" name="Anchor-0"/>
  <outline>
    <contour>
      <point x="1098" y="570" type="curve" smooth="yes"/>
      <point x="1098" y="0" type="line"/>
      <point x="829" y="0" type="line"/>
      <point x="829" y="570" type="line" smooth="yes"/>
      <point x="829" y="673"/>
      <point x="766" y="710"/>
      <point x="668" y="710" type="curve" smooth="yes"/>
      <point x="570" y="710"/>
      <point x="439" y="653"/>
      <point x="439" y="390" type="curve" smooth="yes"/>
      <point x="439" y="0" type="line"/>
      <point x="170" y="0" type="line"/>
      <point x="170" y="1090" type="line"/>
      <point x="10" y="1090" type="line"/>
      <point x="10" y="1330" type="line"/>
      <point x="439" y="1330" type="line"/>
      <point x="439" y="750" type="line"/>
      <point x="349" y="550" type="line"/>
      <point x="349" y="706"/>
      <point x="481" y="940"/>
      <point x="758" y="940" type="curve" smooth="yes"/>
      <point x="985" y="940"/>
      <point x="1098" y="806"/>
    </contour>
  </outline>
</glyph>
<glyph name="i" format="2">
  <advance width="1200"/>
  <unicode hex="0069"/>
  <anchor x="590" y="0" name="Anchor-3"/>
  <anchor x="595" y="0" name="Anchor-2"/>
  <outline>
    <contour>
      <point x="410" y="1255" type="curve" smooth="yes"/>
      <point x="410" y="1363"/>
      <point x="496" y="1430"/>
      <point x="594" y="1430" type="curve" smooth="yes"/>
      <point x="692" y="1430"/>
      <point x="779" y="1363"/>
      <point x="779" y="1255" type="curve" smooth="yes"/>
      <point x="779" y="1147"/>
      <point x="697" y="1080"/>
      <point x="599" y="1080" type="curve" smooth="yes"/>
      <point x="501" y="1080"/>
      <point x="410" y="1147"/>
    </contour>
    <contour>
      <point x="100" y="0" type="line"/>
      <point x="100" y="230" type="line"/>
      <point x="450" y="230" type="line"/>
      <point x="450" y="680" type="line"/>
      <point x="160" y="680" type="line"/>
      <point x="160" y="920" type="line"/>
      <point x="749" y="920" type="line"/>
      <point x="749" y="230" type="line"/>
      <point x="1100" y="230" type="line"/>
      <point x="1100" y="0" type="line"/>
    </contour>
  </outline>
</glyph>
<glyph name="j" format="2">
  <advance width="1200"/>
  <unicode hex="006A"/>
  <anchor x="496" y="-400" name="Anchor-2"/>
  <outline>
    <contour>
      <point x="500" y="-190" type="curve"/>
      <point x="500" y="-430" type="line"/>
      <point x="283" y="-430"/>
      <point x="130" y="-311"/>
      <point x="55" y="-211" type="curve"/>
      <point x="241" y="-30" type="line"/>
      <point x="283" y="-80"/>
      <point x="392" y="-190"/>
    </contour>
    <contour>
      <point x="640" y="1255" type="curve" smooth="yes"/>
      <point x="640" y="1368"/>
      <point x="731" y="1430"/>
      <point x="824" y="1430" type="curve" smooth="yes"/>
      <point x="927" y="1430"/>
      <point x="1009" y="1368"/>
      <point x="1009" y="1255" type="curve" smooth="yes"/>
      <point x="1009" y="1142"/>
      <point x="932" y="1080"/>
      <point x="829" y="1080" type="curve" smooth="yes"/>
      <point x="736" y="1080"/>
      <point x="640" y="1142"/>
    </contour>
    <contour>
      <point x="959" y="920" type="line"/>
      <point x="960" y="10" type="line" smooth="yes"/>
      <point x="960" y="-236"/>
      <point x="857" y="-430"/>
      <point x="500" y="-430" type="curve"/>
      <point x="500" y="-190" type="line"/>
      <point x="628" y="-190"/>
      <point x="690" y="-133"/>
      <point x="690" y="10" type="curve" smooth="yes"/>
      <point x="690" y="680" type="line"/>
      <point x="320" y="680" type="line"/>
      <point x="320" y="920" type="line"/>
    </contour>
  </outline>
</glyph>
<glyph name="k" format="2">
  <advance width="1200"/>
  <unicode hex="006B"/>
  <anchor x="596" y="0" name="Anchor-2"/>
  <anchor x="716" y="920" name="Anchor-0"/>
  <outline>
    <contour>
      <point x="860" y="0" type="line"/>
      <point x="470" y="420" type="line"/>
      <point x="670" y="550" type="line"/>
      <point x="1210" y="0" type="line"/>
    </contour>
    <contour>
      <point x="792" y="920" type="line"/>
      <point x="1132" y="920" type="line"/>
      <point x="430" y="170" type="line"/>
      <point x="430" y="0" type="line"/>
      <point x="170" y="0" type="line"/>
      <point x="170" y="1090" type="line"/>
      <point x="30" y="1090" type="line"/>
      <point x="30" y="1330" type="line"/>
      <point x="430" y="1330" type="line"/>
      <point x="430" y="484" type="line"/>
    </contour>
  </outline>
</glyph>
<glyph name="m" format="2">
  <advance width="1200"/>
  <unicode hex="006D"/>
  <anchor x="615" y="0" name="Anchor-2"/>
  <anchor x="636" y="920" name="Anchor-0"/>
  <outline>
    <contour>
      <point x="150" y="680" type="line"/>
      <point x="0" y="680" type="line"/>
      <point x="0" y="920" type="line"/>
      <point x="150" y="920" type="line"/>
    </contour>
    <contour>
      <point x="748" y="600" type="curve" smooth="yes"/>
      <point x="748" y="0" type="line"/>
      <point x="489" y="0" type="line"/>
      <point x="489" y="620" type="line" smooth="yes"/>
      <point x="489" y="683"/>
      <point x="456" y="710"/>
      <point x="418" y="710" type="curve" smooth="yes"/>
      <point x="370" y="710"/>
      <point x="359" y="653"/>
      <point x="359" y="490" type="curve" smooth="yes"/>
      <point x="359" y="0" type="line"/>
      <point x="100" y="0" type="line"/>
      <point x="100" y="920" type="line"/>
      <point x="259" y="920" type="line"/>
      <point x="299" y="730" type="line"/>
      <point x="229" y="550" type="line"/>
      <point x="229" y="706"/>
      <point x="326" y="940"/>
      <point x="523" y="940" type="curve" smooth="yes"/>
      <point x="670" y="940"/>
      <point x="748" y="806"/>
    </contour>
    <contour>
      <point x="1137" y="600" type="curve" smooth="yes"/>
      <point x="1137" y="0" type="line"/>
      <point x="878" y="0" type="line"/>
      <point x="878" y="620" type="line" smooth="yes"/>
      <point x="878" y="683"/>
      <point x="855" y="710"/>
      <point x="817" y="710" type="curve" smooth="yes"/>
      <point x="759" y="710"/>
      <point x="748" y="653"/>
      <point x="748" y="490" type="curve"/>
      <point x="658" y="550" type="line"/>
      <point x="658" y="706"/>
      <point x="715" y="940"/>
      <point x="912" y="940" type="curve" smooth="yes"/>
      <point x="1079" y="940"/>
      <point x="1137" y="806"/>
    </contour>
  </outline>
</glyph>
<glyph name="n" format="2">
  <advance width="1200"/>
  <unicode hex="006E"/>
  <anchor x="626" y="0" name="Anchor-2"/>
  <anchor x="636" y="920" name="Anchor-0"/>
  <outline>
    <contour>
      <point x="160" y="680" type="line"/>
      <point x="40" y="680" type="line"/>
      <point x="40" y="920" type="line"/>
      <point x="160" y="920" type="line"/>
    </contour>
    <contour>
      <point x="1088" y="570" type="curve" smooth="yes"/>
      <point x="1088" y="0" type="line"/>
      <point x="814" y="0" type="line"/>
      <point x="814" y="540" type="line" smooth="yes"/>
      <point x="814" y="643"/>
      <point x="751" y="710"/>
      <point x="653" y="710" type="curve" smooth="yes"/>
      <point x="525" y="710"/>
      <point x="434" y="633"/>
      <point x="434" y="460" type="curve" smooth="yes"/>
      <point x="434" y="0" type="line"/>
      <point x="160" y="0" type="line"/>
      <point x="160" y="920" type="line"/>
      <point x="364" y="920" type="line"/>
      <point x="422" y="630" type="line"/>
      <point x="344" y="550" type="line"/>
      <point x="344" y="706"/>
      <point x="496" y="940"/>
      <point x="763" y="940" type="curve" smooth="yes"/>
      <point x="975" y="940"/>
      <point x="1088" y="806"/>
    </contour>
  </outline>
</glyph>
<glyph name="o" format="2">
  <advance width="1200"/>
  <unicode hex="006F"/>
  <anchor x="593" y="0" name="Anchor-2"/>
  <anchor x="594" y="920" name="Anchor-0"/>
  <outline>
    <contour>
      <point x="594" y="-20" type="curve" smooth="yes"/>
      <point x="278" y="-20"/>
      <point x="76" y="144"/>
      <point x="76" y="460" type="curve" smooth="yes"/>
      <point x="76" y="766"/>
      <point x="297" y="940"/>
      <point x="594" y="940" type="curve" smooth="yes"/>
      <point x="891" y="940"/>
      <point x="1124" y="766"/>
      <point x="1124" y="460" type="curve" smooth="yes"/>
      <point x="1124" y="144"/>
      <point x="910" y="-20"/>
    </contour>
    <contour>
      <point x="594" y="715" type="curve" smooth="yes"/>
      <point x="466" y="715"/>
      <point x="370" y="633"/>
      <point x="370" y="460" type="curve" smooth="yes"/>
      <point x="370" y="287"/>
      <point x="446" y="205"/>
      <point x="594" y="205" type="curve" smooth="yes"/>
      <point x="742" y="205"/>
      <point x="830" y="287"/>
      <point x="830" y="460" type="curve" smooth="yes"/>
      <point x="830" y="633"/>
      <point x="722" y="715"/>
    </contour>
  </outline>
</glyph>
<glyph name="q" format="2">
  <advance width="1200"/>
  <unicode hex="0071"/>
  <anchor x="456" y="0" name="Anchor-2"/>
  <anchor x="536" y="920" name="Anchor-0"/>
  <outline>
    <contour>
      <point x="598" y="695" type="curve" smooth="yes"/>
      <point x="460" y="695"/>
      <point x="353" y="603"/>
      <point x="353" y="450" type="curve" smooth="yes"/>
      <point x="353" y="307"/>
      <point x="450" y="230"/>
      <point x="578" y="230" type="curve" smooth="yes"/>
      <point x="716" y="230"/>
      <point x="832" y="277"/>
      <point x="832" y="470" type="curve" smooth="yes"/>
      <point x="832" y="613"/>
      <point x="726" y="695"/>
    </contour>
    <contour>
      <point x="488" y="-20" type="curve" smooth="yes"/>
      <point x="262" y="-20"/>
      <point x="53" y="144"/>
      <point x="53" y="440" type="curve" smooth="yes"/>
      <point x="53" y="736"/>
      <point x="271" y="940"/>
      <point x="528" y="940" type="curve" smooth="yes"/>
      <point x="755" y="940"/>
      <point x="912" y="746"/>
      <point x="912" y="480" type="curve" smooth="yes"/>
      <point x="912" y="164"/>
      <point x="774" y="-20"/>
    </contour>
    <contour>
      <point x="1091" y="920" type="line"/>
      <point x="1091" y="-110" type="line"/>
      <point x="1211" y="-110" type="line"/>
      <point x="1211" y="-330" type="line"/>
      <point x="672" y="-330" type="line"/>
      <point x="672" y="-110" type="line"/>
      <point x="832" y="-110" type="line"/>
      <point x="832" y="750" type="line"/>
      <point x="913" y="920" type="line"/>
    </contour>
  </outline>
</glyph>
<glyph name="r" format="2">
  <advance width="1200"/>
  <unicode hex="0072"/>
  <anchor x="411" y="0" name="Anchor-2"/>
  <anchor x="581" y="920" name="Anchor-0"/>
  <outline>
    <contour>
      <point x="1132" y="440" type="line"/>
      <point x="943" y="430" type="line"/>
      <point x="873" y="850" type="line"/>
      <point x="1132" y="900" type="line"/>
    </contour>
    <contour>
      <point x="948" y="690" type="line"/>
      <point x="710" y="690"/>
      <point x="564" y="633"/>
      <point x="564" y="450" type="curve" smooth="yes"/>
      <point x="564" y="230" type="line"/>
      <point x="794" y="230" type="line"/>
      <point x="794" y="0" type="line"/>
      <point x="105" y="0" type="line"/>
      <point x="105" y="230" type="line"/>
      <point x="275" y="230" type="line"/>
      <point x="275" y="690" type="line"/>
      <point x="85" y="690" type="line"/>
      <point x="85" y="920" type="line"/>
      <point x="464" y="920" type="line"/>
      <point x="494" y="690" type="line"/>
      <point x="414" y="540" type="line"/>
      <point x="414" y="726"/>
      <point x="616" y="940"/>
      <point x="943" y="940" type="curve"/>
    </contour>
    <contour>
      <point x="948" y="690" type="curve"/>
      <point x="943" y="940" type="line"/>
      <point x="1010" y="940"/>
      <point x="1110" y="912"/>
      <point x="1132" y="900" type="curve"/>
      <point x="997" y="673" type="line"/>
      <point x="985" y="680"/>
      <point x="1004" y="690"/>
    </contour>
  </outline>
</glyph>
<glyph name="s" format="2">
  <advance width="1200"/>
  <unicode hex="0073"/>
  <anchor x="596" y="0" name="Anchor-3"/>
  <anchor x="596" y="0" name="Anchor-2"/>
  <anchor x="596" y="920" name="Anchor-0"/>
  <outline>
    <contour>
      <point x="1053" y="819" type="curve"/>
      <point x="951" y="630" type="line"/>
      <point x="771" y="703"/>
      <point x="626" y="739"/>
      <point x="528" y="739" type="curve" smooth="yes"/>
      <point x="477" y="739"/>
      <point x="437" y="722"/>
      <point x="437" y="688" type="curve" smooth="yes"/>
      <point x="437" y="624"/>
      <point x="605" y="619"/>
      <point x="744" y="579" type="curve" smooth="yes"/>
      <point x="976.031" y="512.228"/>
      <point x="1089" y="454"/>
      <point x="1089" y="276" type="curve" smooth="yes"/>
      <point x="1089" y="66"/>
      <point x="882" y="-29"/>
      <point x="620" y="-29" type="curve" smooth="yes"/>
      <point x="403" y="-29"/>
      <point x="230" y="67"/>
      <point x="100" y="121" type="curve"/>
      <point x="210" y="337" type="line"/>
      <point x="390" y="230"/>
      <point x="593" y="206"/>
      <point x="675" y="206" type="curve" smooth="yes"/>
      <point x="737" y="206"/>
      <point x="807" y="216"/>
      <point x="807" y="256" type="curve" smooth="yes"/>
      <point x="807" y="312"/>
      <point x="689" y="334"/>
      <point x="512" y="381" type="curve" smooth="yes"/>
      <point x="333" y="429"/>
      <point x="149" y="474"/>
      <point x="149" y="650" type="curve" smooth="yes"/>
      <point x="149" y="826"/>
      <point x="307" y="940"/>
      <point x="583" y="940" type="curve" smooth="yes"/>
      <point x="779" y="940"/>
      <point x="951" y="869"/>
    </contour>
  </outline>
</glyph>
<glyph name="t" format="2">
  <advance width="1200"/>
  <unicode hex="0074"/>
  <anchor x="628" y="0" name="Anchor-3"/>
  <anchor x="706" y="0" name="Anchor-2"/>
  <anchor x="724" y="1020" name="Anchor-1"/>
  <anchor x="476" y="1130" name="Anchor-0"/>
  <outline>
    <contour>
      <point x="729" y="240" type="line"/>
      <point x="857" y="240"/>
      <point x="963" y="312"/>
      <point x="1005" y="352" type="curve"/>
      <point x="1131" y="136" type="line"/>
      <point x="1056" y="76"/>
      <point x="896" y="-10"/>
      <point x="719" y="-10" type="curve"/>
    </contour>
    <contour>
      <point x="569" y="1170" type="line"/>
      <point x="569" y="920" type="line"/>
      <point x="1019" y="920" type="line"/>
      <point x="1019" y="670" type="line"/>
      <point x="568" y="720" type="line"/>
      <point x="568" y="430" type="line" smooth="yes"/>
      <point x="568" y="297"/>
      <point x="611" y="240"/>
      <point x="729" y="240" type="curve"/>
      <point x="719" y="-10" type="line"/>
      <point x="392" y="-10"/>
      <point x="300" y="154"/>
      <point x="300" y="390" type="curve" smooth="yes"/>
      <point x="300" y="679" type="line"/>
      <point x="100" y="679" type="line"/>
      <point x="100" y="920" type="line"/>
      <point x="300" y="920" type="line"/>
      <point x="400" y="1170" type="line"/>
    </contour>
  </outline>
</glyph>
<glyph name="u" format="2">
  <advance width="1200"/>
  <unicode hex="0075"/>
  <anchor x="956" y="0" name="Anchor-3"/>
  <anchor x="526" y="0" name="Anchor-2"/>
  <anchor x="566" y="920" name="Anchor-0"/>
  <outline>
    <contour>
      <point x="980" y="230" type="line"/>
      <point x="1140" y="230" type="line"/>
      <point x="1140" y="0" type="line"/>
      <point x="980" y="0" type="line"/>
    </contour>
    <contour>
      <point x="102" y="350" type="curve" smooth="yes"/>
      <point x="102" y="920" type="line"/>
      <point x="366" y="920" type="line"/>
      <point x="366" y="360" type="line" smooth="yes"/>
      <point x="366" y="247"/>
      <point x="434" y="210"/>
      <point x="532" y="210" type="curve" smooth="yes"/>
      <point x="650" y="210"/>
      <point x="766" y="287"/>
      <point x="766" y="500" type="curve" smooth="yes"/>
      <point x="766" y="920" type="line"/>
      <point x="1030" y="920" type="line"/>
      <point x="1030" y="0" type="line"/>
      <point x="856" y="0" type="line"/>
      <point x="816" y="190" type="line"/>
      <point x="896" y="370" type="line"/>
      <point x="896" y="214"/>
      <point x="724" y="-20"/>
      <point x="467" y="-20" type="curve" smooth="yes"/>
      <point x="235" y="-20"/>
      <point x="102" y="114"/>
    </contour>
  </outline>
</glyph>
<glyph name="v" format="2">
  <advance width="1200"/>
  <unicode hex="0076"/>
  <anchor x="597" y="0" name="Anchor-2"/>
  <anchor x="596" y="920" name="Anchor-0"/>
  <outline>
    <contour>
      <point x="851" y="920" type="line"/>
      <point x="1173" y="920" type="line"/>
      <point x="770" y="0" type="line"/>
      <point x="430" y="0" type="line"/>
      <point x="27" y="920" type="line"/>
      <point x="339" y="920" type="line"/>
      <point x="620" y="170" type="line"/>
      <point x="580" y="170" type="line"/>
    </contour>
  </outline>
</glyph>
<glyph name="w" format="2">
  <advance width="1200"/>
  <unicode hex="0077"/>
  <anchor x="596" y="920" name="Anchor-0"/>
  <anchor x="597" y="0" name="Anchor-2"/>
  <outline>
    <contour>
      <point x="291" y="920" type="line"/>
      <point x="381" y="136" type="line"/>
      <point x="301" y="126" type="line"/>
      <point x="510" y="720" type="line"/>
      <point x="690" y="720" type="line"/>
      <point x="908" y="126" type="line"/>
      <point x="828" y="136" type="line"/>
      <point x="909" y="920" type="line"/>
      <point x="1185" y="920" type="line"/>
      <point x="995" y="0" type="line"/>
      <point x="732" y="0" type="line"/>
      <point x="570" y="430" type="line"/>
      <point x="630" y="430" type="line"/>
      <point x="468" y="0" type="line"/>
      <point x="205" y="0" type="line"/>
      <point x="15" y="920" type="line"/>
    </contour>
  </outline>
</glyph>
<glyph name="x" format="2">
  <advance width="1200"/>
  <unicode hex="0078"/>
  <anchor x="596" y="920" name="Anchor-0"/>
  <anchor x="597" y="0" name="Anchor-2"/>
  <outline>
    <contour>
      <point x="606" y="629" type="line"/>
      <point x="779" y="920" type="line"/>
      <point x="1131" y="920" type="line"/>
      <point x="777" y="475" type="line"/>
      <point x="1161" y="0" type="line"/>
      <point x="812" y="0" type="line"/>
      <point x="610" y="300" type="line"/>
      <point x="408" y="0" type="line"/>
      <point x="57" y="0" type="line"/>
      <point x="442" y="475" type="line"/>
      <point x="88" y="920" type="line"/>
      <point x="437" y="920" type="line"/>
    </contour>
  </outline>
</glyph>
<glyph name="y" format="2">
  <advance width="1200"/>
  <unicode hex="0079"/>
  <anchor x="306" y="-400" name="Anchor-2"/>
  <anchor x="596" y="920" name="Anchor-0"/>
  <outline>
    <contour>
      <point x="280" y="-145" type="curve"/>
      <point x="300" y="-400" type="line"/>
      <point x="123" y="-400"/>
      <point x="10" y="-329"/>
      <point x="-75" y="-259" type="curve"/>
      <point x="61" y="-40" type="line"/>
      <point x="113" y="-80"/>
      <point x="212" y="-145"/>
    </contour>
    <contour>
      <point x="454" y="25" type="curve"/>
      <point x="37" y="920" type="line"/>
      <point x="369" y="920" type="line"/>
      <point x="676" y="98" type="line"/>
      <point x="541" y="98" type="line"/>
      <point x="846" y="920" type="line"/>
      <point x="1173" y="920" type="line"/>
      <point x="760" y="30" type="line" smooth="yes"/>
      <point x="660" y="-186"/>
      <point x="577" y="-400"/>
      <point x="300" y="-400" type="curve"/>
      <point x="280" y="-145" type="line"/>
      <point x="362" y="-145"/>
      <point x="394" y="-111"/>
    </contour>
  </outline>
</glyph>
<glyph name="z" format="2">
  <advance width="1200"/>
  <unicode hex="007A"/>
  <anchor x="596" y="920" name="Anchor-0"/>
  <anchor x="597" y="0" name="Anchor-2"/>
  <outline>
    <contour>
      <point x="952" y="510" type="line"/>
      <point x="1110" y="510" type="line"/>
      <point x="1110" y="0" type="line"/>
      <point x="120" y="0" type="line"/>
      <point x="90" y="200" type="line"/>
      <point x="687" y="680" type="line"/>
      <point x="319" y="680" type="line"/>
      <point x="269" y="470" type="line"/>
      <point x="110" y="470" type="line"/>
      <point x="110" y="920" type="line"/>
      <point x="1060" y="920" type="line"/>
      <point x="1090" y="720" type="line"/>
      <point x="483" y="240" type="line"/>
      <point x="899" y="240" type="line"/>
    </contour>
  </outline>
</glyph>
<glyph name="braceleft" format="2">
  <advance width="1200"/>
  <unicode hex="007B"/>
  <outline>
    <contour>
      <point x="590" y="1010" type="curve" smooth="yes"/>
      <point x="620" y="874" type="line" smooth="yes"/>
      <point x="649.644" y="739.615"/>
      <point x="552" y="714"/>
      <point x="384" y="664" type="curve"/>
      <point x="384" y="684" type="line"/>
      <point x="542" y="634"/>
      <point x="668.073" y="552.254"/>
      <point x="620" y="384" type="curve" smooth="yes"/>
      <point x="590" y="279" type="line" smooth="yes"/>
      <point x="575.875" y="229.563"/>
      <point x="606" y="179"/>
      <point x="716" y="179" type="curve" smooth="yes"/>
      <point x="966" y="179" type="line"/>
      <point x="966" y="-51" type="line"/>
      <point x="626" y="-51" type="line" smooth="yes"/>
      <point x="448" y="-51"/>
      <point x="290.12" y="-15.2229"/>
      <point x="320" y="179" type="curve" smooth="yes"/>
      <point x="350" y="374" type="line" smooth="yes"/>
      <point x="372.902" y="522.864"/>
      <point x="264" y="550"/>
      <point x="204" y="550" type="curve" smooth="yes"/>
      <point x="134" y="550" type="line"/>
      <point x="134" y="800" type="line"/>
      <point x="204" y="800" type="line" smooth="yes"/>
      <point x="264" y="800"/>
      <point x="382.188" y="828.079"/>
      <point x="350" y="974" type="curve" smooth="yes"/>
      <point x="320" y="1110" type="line" smooth="yes"/>
      <point x="277.975" y="1300.51"/>
      <point x="448" y="1350"/>
      <point x="626" y="1350" type="curve" smooth="yes"/>
      <point x="966" y="1350" type="line"/>
      <point x="966" y="1120" type="line"/>
      <point x="716" y="1120" type="line" smooth="yes"/>
      <point x="606" y="1120"/>
      <point x="581.167" y="1050.04"/>
    </contour>
  </outline>
</glyph>
<glyph name="braceright" format="2">
  <advance width="1200"/>
  <unicode hex="007D"/>
  <outline>
    <contour>
      <point x="610" y="279" type="curve" smooth="yes"/>
      <point x="580" y="384" type="line" smooth="yes"/>
      <point x="531.928" y="552.254"/>
      <point x="658" y="634"/>
      <point x="816" y="684" type="curve"/>
      <point x="816" y="664" type="line"/>
      <point x="648" y="714"/>
      <point x="550.356" y="739.615"/>
      <point x="580" y="874" type="curve" smooth="yes"/>
      <point x="610" y="1010" type="line" smooth="yes"/>
      <point x="618.833" y="1050.04"/>
      <point x="594" y="1120"/>
      <point x="484" y="1120" type="curve" smooth="yes"/>
      <point x="234" y="1120" type="line"/>
      <point x="234" y="1350" type="line"/>
      <point x="574" y="1350" type="line" smooth="yes"/>
      <point x="752" y="1350"/>
      <point x="922.025" y="1300.51"/>
      <point x="880" y="1110" type="curve" smooth="yes"/>
      <point x="850" y="974" type="line" smooth="yes"/>
      <point x="817.812" y="828.079"/>
      <point x="936" y="800"/>
      <point x="996" y="800" type="curve" smooth="yes"/>
      <point x="1066" y="800" type="line"/>
      <point x="1066" y="550" type="line"/>
      <point x="996" y="550" type="line" smooth="yes"/>
      <point x="936" y="550"/>
      <point x="827.098" y="522.864"/>
      <point x="850" y="374" type="curve" smooth="yes"/>
      <point x="880" y="179" type="line" smooth="yes"/>
      <point x="909.881" y="-15.2227"/>
      <point x="752" y="-51"/>
      <point x="574" y="-51" type="curve" smooth="yes"/>
      <point x="234" y="-51" type="line"/>
      <point x="234" y="179" type="line"/>
      <point x="484" y="179" type="line" smooth="yes"/>
      <point x="594" y="179"/>
      <point x="624.125" y="229.562"/>
    </contour>
  </outline>
</glyph>
<glyph name="asciitilde" format="2">
  <advance width="1200"/>
  <unicode hex="007E"/>
  <outline>
    <contour>
      <point x="108" y="489" type="line"/>
      <point x="108" y="777"/>
      <point x="247" y="887"/>
      <point x="389" y="887" type="curve" smooth="yes"/>
      <point x="526" y="887"/>
      <point x="583" y="822"/>
      <point x="641" y="775" type="curve" smooth="yes"/>
      <point x="700" y="726"/>
      <point x="745" y="693"/>
      <point x="781" y="693" type="curve" smooth="yes"/>
      <point x="839" y="693"/>
      <point x="862" y="748"/>
      <point x="862" y="861" type="curve"/>
      <point x="1092" y="861" type="line"/>
      <point x="1092" y="572"/>
      <point x="953" y="463"/>
      <point x="811" y="463" type="curve" smooth="yes"/>
      <point x="674" y="463"/>
      <point x="617" y="528"/>
      <point x="559" y="575" type="curve" smooth="yes"/>
      <point x="500" y="624"/>
      <point x="455" y="657"/>
      <point x="419" y="657" type="curve" smooth="yes"/>
      <point x="361" y="657"/>
      <point x="338" y="602"/>
      <point x="338" y="489" type="curve"/>
    </contour>
  </outline>
</glyph>
<glyph name="cent" format="2">
  <advance width="1200"/>
  <unicode hex="00A2"/>
  <outline>
    <contour>
      <point x="1038" y="797" type="curve"/>
      <point x="953" y="570" type="line"/>
      <point x="903" y="613"/>
      <point x="757" y="700"/>
      <point x="630" y="700" type="curve"/>
      <point x="660" y="940" type="line"/>
      <point x="816" y="940"/>
      <point x="958" y="870"/>
    </contour>
    <contour>
      <point x="720" y="40" type="line"/>
      <point x="780" y="-260" type="line"/>
      <point x="500" y="-260" type="line"/>
      <point x="560" y="40" type="line"/>
    </contour>
    <contour>
      <point x="560" y="880" type="line"/>
      <point x="500" y="1180" type="line"/>
      <point x="780" y="1180" type="line"/>
      <point x="720" y="880" type="line"/>
    </contour>
    <contour>
      <point x="630" y="700" type="line"/>
      <point x="477" y="700"/>
      <point x="357" y="611"/>
      <point x="357" y="448" type="curve" smooth="yes"/>
      <point x="357" y="285"/>
      <point x="456" y="225"/>
      <point x="634" y="225" type="curve"/>
      <point x="644" y="-20" type="line"/>
      <point x="273" y="-20"/>
      <point x="85" y="164"/>
      <point x="85" y="430" type="curve" smooth="yes"/>
      <point x="85" y="736"/>
      <point x="308" y="940"/>
      <point x="660" y="940" type="curve"/>
    </contour>
    <contour>
      <point x="1042" y="103" type="line"/>
      <point x="962" y="40"/>
      <point x="780" y="-20"/>
      <point x="644" y="-20" type="curve"/>
      <point x="634" y="225" type="line"/>
      <point x="741" y="225"/>
      <point x="907" y="297"/>
      <point x="957" y="330" type="curve"/>
    </contour>
  </outline>
</glyph>
<glyph name="sterling" format="2">
  <advance width="1200"/>
  <unicode hex="00A3"/>
  <outline>
    <contour>
      <point x="49" y="690" type="line"/>
      <point x="751" y="690" type="line"/>
      <point x="751" y="460" type="line"/>
      <point x="49" y="460" type="line"/>
    </contour>
    <contour>
      <point x="1120" y="900" type="curve"/>
      <point x="860" y="900" type="line"/>
      <point x="840" y="1013"/>
      <point x="774" y="1076"/>
      <point x="656" y="1076" type="curve" smooth="yes"/>
      <point x="538" y="1076"/>
      <point x="462" y="1022"/>
      <point x="461" y="870" type="curve"/>
      <point x="461" y="620"/>
      <point x="530" y="480"/>
      <point x="410" y="230" type="curve"/>
      <point x="1079" y="230" type="line"/>
      <point x="1079" y="0" type="line"/>
      <point x="60" y="0" type="line"/>
      <point x="60" y="230" type="line"/>
      <point x="150" y="230" type="line"/>
      <point x="270" y="480"/>
      <point x="201" y="620"/>
      <point x="201" y="870" type="curve"/>
      <point x="201" y="1145"/>
      <point x="365" y="1320"/>
      <point x="661" y="1320" type="curve" smooth="yes"/>
      <point x="947" y="1320"/>
      <point x="1110" y="1136"/>
    </contour>
  </outline>
</glyph>
<glyph name="currency" format="2">
  <advance width="1200"/>
  <unicode hex="00A4"/>
  <outline>
    <contour>
      <point x="905" y="263" type="line"/>
      <point x="1146" y="79" type="line"/>
      <point x="978" y="-89" type="line"/>
      <point x="794" y="152" type="line"/>
    </contour>
    <contour>
      <point x="283" y="657" type="line"/>
      <point x="42" y="841" type="line"/>
      <point x="210" y="1009" type="line"/>
      <point x="394" y="768" type="line"/>
    </contour>
    <contour>
      <point x="794" y="769" type="line"/>
      <point x="978" y="1009" type="line"/>
      <point x="1146" y="842" type="line"/>
      <point x="905" y="658" type="line"/>
    </contour>
    <contour>
      <point x="394" y="152" type="line"/>
      <point x="210" y="-89" type="line"/>
      <point x="43" y="79" type="line"/>
      <point x="283" y="263" type="line"/>
    </contour>
    <contour>
      <point x="594" y="20" type="curve" smooth="yes"/>
      <point x="308" y="20"/>
      <point x="126" y="174"/>
      <point x="126" y="460" type="curve" smooth="yes"/>
      <point x="126" y="736"/>
      <point x="327" y="900"/>
      <point x="594" y="900" type="curve" smooth="yes"/>
      <point x="861" y="900"/>
      <point x="1074" y="736"/>
      <point x="1074" y="460" type="curve" smooth="yes"/>
      <point x="1074" y="174"/>
      <point x="890" y="20"/>
    </contour>
    <contour>
      <point x="594" y="665" type="curve" smooth="yes"/>
      <point x="466" y="665"/>
      <point x="400" y="593"/>
      <point x="400" y="460" type="curve" smooth="yes"/>
      <point x="400" y="317"/>
      <point x="456" y="255"/>
      <point x="594" y="255" type="curve" smooth="yes"/>
      <point x="732" y="255"/>
      <point x="800" y="317"/>
      <point x="800" y="460" type="curve" smooth="yes"/>
      <point x="800" y="593"/>
      <point x="722" y="665"/>
    </contour>
  </outline>
</glyph>
<glyph name="yen" format="2">
  <advance width="1200"/>
  <unicode hex="00A5"/>
  <outline>
    <contour>
      <point x="30" y="1300" type="line"/>
      <point x="538" y="1300" type="line"/>
      <point x="538" y="1070" type="line"/>
      <point x="30" y="1070" type="line"/>
    </contour>
    <contour>
      <point x="680" y="1300" type="line"/>
      <point x="1170" y="1300" type="line"/>
      <point x="1170" y="1070" type="line"/>
      <point x="680" y="1070" type="line"/>
    </contour>
    <contour>
      <point x="460" y="0" type="line"/>
      <point x="460" y="480" type="line"/>
      <point x="122" y="1150" type="line"/>
      <point x="384" y="1150" type="line"/>
      <point x="619" y="610" type="line"/>
      <point x="570" y="610" type="line"/>
      <point x="818" y="1150" type="line"/>
      <point x="1080" y="1150" type="line"/>
      <point x="729" y="480" type="line"/>
      <point x="729" y="0" type="line"/>
    </contour>
    <contour>
      <point x="510" y="450" type="line"/>
      <point x="210" y="440" type="line"/>
      <point x="210" y="670" type="line"/>
      <point x="510" y="630" type="line"/>
    </contour>
    <contour>
      <point x="510" y="160" type="line"/>
      <point x="210" y="120" type="line"/>
      <point x="210" y="350" type="line"/>
      <point x="510" y="340" type="line"/>
    </contour>
    <contour>
      <point x="679" y="340" type="line"/>
      <point x="979" y="350" type="line"/>
      <point x="979" y="120" type="line"/>
      <point x="679" y="160" type="line"/>
    </contour>
    <contour>
      <point x="679" y="630" type="line"/>
      <point x="979" y="670" type="line"/>
      <point x="979" y="440" type="line"/>
      <point x="679" y="450" type="line"/>
    </contour>
  </outline>
</glyph>
<glyph name="brokenbar" format="2">
  <advance width="1200"/>
  <unicode hex="00A6"/>
  <outline>
    <contour>
      <point x="466" y="350" type="line"/>
      <point x="734" y="350" type="line"/>
      <point x="734" y="-330" type="line"/>
      <point x="466" y="-330" type="line"/>
    </contour>
    <contour>
      <point x="466" y="1300" type="line"/>
      <point x="734" y="1300" type="line"/>
      <point x="734" y="620" type="line"/>
      <point x="466" y="620" type="line"/>
    </contour>
  </outline>
</glyph>
<glyph name="section" format="2">
  <advance width="1200"/>
  <unicode hex="00A7"/>
  <outline>
    <contour>
      <point x="1039" y="1159" type="curve"/>
      <point x="928" y="950" type="line"/>
      <point x="848" y="1023"/>
      <point x="702" y="1064"/>
      <point x="574" y="1064" type="curve" smooth="yes"/>
      <point x="473" y="1064"/>
      <point x="403" y="1042"/>
      <point x="403" y="988" type="curve" smooth="yes"/>
      <point x="403" y="924"/>
      <point x="493" y="900"/>
      <point x="630" y="859" type="curve" smooth="yes"/>
      <point x="866" y="788"/>
      <point x="1075" y="684"/>
      <point x="1075" y="486" type="curve" smooth="yes"/>
      <point x="1075" y="276"/>
      <point x="828" y="221"/>
      <point x="606" y="221" type="curve"/>
      <point x="606" y="311" type="line"/>
      <point x="758" y="311"/>
      <point x="813" y="427"/>
      <point x="813" y="456" type="curve" smooth="yes"/>
      <point x="813" y="522"/>
      <point x="745" y="564"/>
      <point x="568" y="611" type="curve" smooth="yes"/>
      <point x="389" y="659"/>
      <point x="135" y="754"/>
      <point x="135" y="970" type="curve" smooth="yes"/>
      <point x="135" y="1166"/>
      <point x="313" y="1310"/>
      <point x="589" y="1310" type="curve" smooth="yes"/>
      <point x="785" y="1310"/>
      <point x="967" y="1229"/>
    </contour>
    <contour>
      <point x="574" y="614" type="line"/>
      <point x="443" y="614"/>
      <point x="393" y="552"/>
      <point x="393" y="488" type="curve" smooth="yes"/>
      <point x="393" y="404"/>
      <point x="491" y="349"/>
      <point x="630" y="319" type="curve" smooth="yes"/>
      <point x="866" y="268"/>
      <point x="1085" y="164"/>
      <point x="1085" y="-54" type="curve" smooth="yes"/>
      <point x="1085" y="-334"/>
      <point x="828" y="-399"/>
      <point x="606" y="-399" type="curve" smooth="yes"/>
      <point x="389" y="-399"/>
      <point x="156" y="-323"/>
      <point x="56" y="-219" type="curve"/>
      <point x="151" y="-8" type="line"/>
      <point x="241" y="-85"/>
      <point x="444" y="-159"/>
      <point x="606" y="-159" type="curve" smooth="yes"/>
      <point x="758" y="-159"/>
      <point x="813" y="-123"/>
      <point x="813" y="-64" type="curve" smooth="yes"/>
      <point x="813" y="-8"/>
      <point x="725" y="24"/>
      <point x="548" y="71" type="curve" smooth="yes"/>
      <point x="369" y="119"/>
      <point x="125" y="174"/>
      <point x="125" y="420" type="curve" smooth="yes"/>
      <point x="125" y="616"/>
      <point x="313" y="715"/>
      <point x="589" y="715" type="curve"/>
    </contour>
  </outline>
</glyph>
<glyph name="dieresis" format="2">
  <advance width="1200"/>
  <unicode hex="00A8"/>
  <outline>
    <contour>
      <point x="658" y="1190" type="curve" smooth="yes"/>
      <point x="658" y="1281"/>
      <point x="729" y="1352"/>
      <point x="820" y="1352" type="curve" smooth="yes"/>
      <point x="911" y="1352"/>
      <point x="982" y="1281"/>
      <point x="982" y="1190" type="curve" smooth="yes"/>
      <point x="982" y="1099"/>
      <point x="915" y="1028"/>
      <point x="824" y="1028" type="curve" smooth="yes"/>
      <point x="733" y="1028"/>
      <point x="658" y="1099"/>
    </contour>
    <contour>
      <point x="218" y="1190" type="curve" smooth="yes"/>
      <point x="218" y="1281"/>
      <point x="289" y="1352"/>
      <point x="380" y="1352" type="curve" smooth="yes"/>
      <point x="471" y="1352"/>
      <point x="542" y="1281"/>
      <point x="542" y="1190" type="curve" smooth="yes"/>
      <point x="542" y="1099"/>
      <point x="475" y="1028"/>
      <point x="384" y="1028" type="curve" smooth="yes"/>
      <point x="293" y="1028"/>
      <point x="218" y="1099"/>
    </contour>
  </outline>
</glyph>
<glyph name="copyright" format="2">
  <advance width="1200"/>
  <unicode hex="00A9"/>
  <outline>
    <contour>
      <point x="853" y="576" type="curve"/>
      <point x="718" y="504" type="line"/>
      <point x="693" y="541"/>
      <point x="661" y="578"/>
      <point x="612" y="578" type="curve"/>
      <point x="619" y="746" type="line"/>
      <point x="738" y="746"/>
      <point x="837" y="644"/>
    </contour>
    <contour>
      <point x="612" y="578" type="line"/>
      <point x="557" y="578"/>
      <point x="511" y="538"/>
      <point x="511" y="472" type="curve" smooth="yes"/>
      <point x="511" y="396"/>
      <point x="561" y="356"/>
      <point x="614" y="356" type="curve"/>
      <point x="607" y="184" type="line"/>
      <point x="415" y="184"/>
      <point x="321" y="313"/>
      <point x="321" y="459" type="curve" smooth="yes"/>
      <point x="321" y="633"/>
      <point x="431" y="746"/>
      <point x="619" y="746" type="curve"/>
    </contour>
    <contour>
      <point x="866" y="330" type="line"/>
      <point x="820" y="269"/>
      <point x="732" y="184"/>
      <point x="607" y="184" type="curve"/>
      <point x="614" y="356" type="line"/>
      <point x="679" y="356"/>
      <point x="708" y="392"/>
      <point x="733" y="432" type="curve"/>
    </contour>
    <contour>
      <point x="594" y="-20" type="curve" smooth="yes"/>
      <point x="318" y="-20"/>
      <point x="96" y="144"/>
      <point x="96" y="460" type="curve" smooth="yes"/>
      <point x="96" y="766"/>
      <point x="337" y="940"/>
      <point x="594" y="940" type="curve" smooth="yes"/>
      <point x="851" y="940"/>
      <point x="1104" y="766"/>
      <point x="1104" y="460" type="curve" smooth="yes"/>
      <point x="1104" y="144"/>
      <point x="870" y="-20"/>
    </contour>
    <contour>
      <point x="594" y="785" type="curve" smooth="yes"/>
      <point x="406" y="785"/>
      <point x="260" y="683"/>
      <point x="260" y="460" type="curve" smooth="yes"/>
      <point x="260" y="227"/>
      <point x="386" y="135"/>
      <point x="594" y="135" type="curve" smooth="yes"/>
      <point x="792" y="135"/>
      <point x="940" y="227"/>
      <point x="940" y="460" type="curve" smooth="yes"/>
      <point x="940" y="683"/>
      <point x="772" y="785"/>
    </contour>
  </outline>
</glyph>
<glyph name="ordfeminine" format="2">
  <advance width="1200"/>
  <unicode hex="00AA"/>
  <outline>
    <contour>
      <point x="933" y="1104" type="curve" smooth="yes"/>
      <point x="933" y="656" type="line"/>
      <point x="683" y="656" type="line"/>
      <point x="683" y="1094" type="line" smooth="yes"/>
      <point x="683" y="1139"/>
      <point x="657" y="1153"/>
      <point x="620" y="1153" type="curve" smooth="yes"/>
      <point x="547" y="1153"/>
      <point x="458" y="1111"/>
      <point x="382" y="1057" type="curve"/>
      <point x="272" y="1242" type="line"/>
      <point x="356" y="1269"/>
      <point x="493" y="1321"/>
      <point x="640" y="1321" type="curve" smooth="yes"/>
      <point x="846" y="1321"/>
      <point x="933" y="1244"/>
    </contour>
    <contour>
      <point x="464" y="851" type="curve" smooth="yes"/>
      <point x="464" y="823"/>
      <point x="489" y="814"/>
      <point x="511" y="814" type="curve" smooth="yes"/>
      <point x="588" y="814"/>
      <point x="704" y="868"/>
      <point x="774" y="933" type="curve"/>
      <point x="816" y="820" type="line"/>
      <point x="725" y="739"/>
      <point x="585" y="649"/>
      <point x="424" y="649" type="curve" smooth="yes"/>
      <point x="314" y="649"/>
      <point x="215" y="685"/>
      <point x="215" y="817" type="curve" smooth="yes"/>
      <point x="215" y="994"/>
      <point x="498" y="1033"/>
      <point x="752" y="1090" type="curve"/>
      <point x="780" y="972" type="line"/>
      <point x="545" y="919"/>
      <point x="464" y="892"/>
    </contour>
  </outline>
</glyph>
<glyph name="guillemotleft" format="2">
  <advance width="1200"/>
  <unicode hex="00AB"/>
  <outline>
    <contour>
      <point x="539" y="525" type="line"/>
      <point x="871" y="920" type="line"/>
      <point x="1031" y="810" type="line"/>
      <point x="819" y="525" type="line"/>
      <point x="1031" y="240" type="line"/>
      <point x="871" y="130" type="line"/>
    </contour>
    <contour>
      <point x="139" y="525" type="line"/>
      <point x="471" y="920" type="line"/>
      <point x="631" y="810" type="line"/>
      <point x="419" y="525" type="line"/>
      <point x="631" y="240" type="line"/>
      <point x="471" y="130" type="line"/>
    </contour>
  </outline>
</glyph>
<glyph name="logicalnot" format="2">
  <advance width="1200"/>
  <unicode hex="00AC"/>
  <outline>
    <contour>
      <point x="269" y="790" type="line"/>
      <point x="931" y="790" type="line"/>
      <point x="931" y="380" type="line"/>
      <point x="691" y="380" type="line"/>
      <point x="691" y="560" type="line"/>
      <point x="269" y="560" type="line"/>
    </contour>
  </outline>
</glyph>
<glyph name="registered" format="2">
  <advance width="1200"/>
  <unicode hex="00AE"/>
  <outline>
    <contour>
      <point x="705" y="446" type="line"/>
      <point x="855" y="276" type="line"/>
      <point x="692" y="176" type="line"/>
      <point x="562" y="416" type="line"/>
    </contour>
    <contour>
      <point x="392" y="196" type="line"/>
      <point x="392" y="714" type="line"/>
      <point x="597" y="714" type="line" smooth="yes"/>
      <point x="737" y="714"/>
      <point x="838" y="661"/>
      <point x="838" y="562" type="curve" smooth="yes"/>
      <point x="838" y="440"/>
      <point x="724" y="396"/>
      <point x="597" y="396" type="curve" smooth="yes"/>
      <point x="553" y="396" type="line"/>
      <point x="553" y="196" type="line"/>
    </contour>
    <contour>
      <point x="553" y="497" type="line"/>
      <point x="607" y="497" type="line" smooth="yes"/>
      <point x="640" y="497"/>
      <point x="666" y="506"/>
      <point x="666" y="537" type="curve" smooth="yes"/>
      <point x="666" y="565"/>
      <point x="644" y="574"/>
      <point x="607" y="574" type="curve" smooth="yes"/>
      <point x="553" y="574" type="line"/>
    </contour>
    <contour>
      <point x="594" y="-20" type="curve" smooth="yes"/>
      <point x="318" y="-20"/>
      <point x="96" y="144"/>
      <point x="96" y="460" type="curve" smooth="yes"/>
      <point x="96" y="766"/>
      <point x="337" y="940"/>
      <point x="594" y="940" type="curve" smooth="yes"/>
      <point x="851" y="940"/>
      <point x="1104" y="766"/>
      <point x="1104" y="460" type="curve" smooth="yes"/>
      <point x="1104" y="144"/>
      <point x="870" y="-20"/>
    </contour>
    <contour>
      <point x="594" y="785" type="curve" smooth="yes"/>
      <point x="406" y="785"/>
      <point x="260" y="683"/>
      <point x="260" y="460" type="curve" smooth="yes"/>
      <point x="260" y="227"/>
      <point x="386" y="135"/>
      <point x="594" y="135" type="curve" smooth="yes"/>
      <point x="792" y="135"/>
      <point x="940" y="227"/>
      <point x="940" y="460" type="curve" smooth="yes"/>
      <point x="940" y="683"/>
      <point x="772" y="785"/>
    </contour>
  </outline>
</glyph>
<glyph name="degree" format="2">
  <advance width="1200"/>
  <unicode hex="00B0"/>
  <outline>
    <contour>
      <point x="596" y="848" type="curve" smooth="yes"/>
      <point x="443" y="848"/>
      <point x="348" y="943"/>
      <point x="348" y="1084" type="curve" smooth="yes"/>
      <point x="348" y="1218"/>
      <point x="456" y="1320"/>
      <point x="596" y="1320" type="curve" smooth="yes"/>
      <point x="726" y="1320"/>
      <point x="842" y="1218"/>
      <point x="842" y="1084" type="curve" smooth="yes"/>
      <point x="842" y="943"/>
      <point x="739" y="848"/>
    </contour>
    <contour>
      <point x="596" y="1166" type="curve" smooth="yes"/>
      <point x="543" y="1166"/>
      <point x="520" y="1138"/>
      <point x="520" y="1084" type="curve" smooth="yes"/>
      <point x="520" y="1023"/>
      <point x="539" y="1002"/>
      <point x="596" y="1002" type="curve" smooth="yes"/>
      <point x="653" y="1002"/>
      <point x="670" y="1023"/>
      <point x="670" y="1084" type="curve" smooth="yes"/>
      <point x="670" y="1138"/>
      <point x="649" y="1166"/>
    </contour>
  </outline>
</glyph>
<glyph name="plusminus" format="2">
  <advance width="1200"/>
  <unicode hex="00B1"/>
  <outline>
    <contour>
      <point x="229" y="230" type="line"/>
      <point x="971" y="230" type="line"/>
      <point x="971" y="0" type="line"/>
      <point x="229" y="0" type="line"/>
    </contour>
    <contour>
      <point x="489" y="1030" type="line"/>
      <point x="711" y="1030" type="line"/>
      <point x="711" y="320" type="line"/>
      <point x="489" y="320" type="line"/>
    </contour>
    <contour>
      <point x="229" y="780" type="line"/>
      <point x="971" y="780" type="line"/>
      <point x="971" y="570" type="line"/>
      <point x="229" y="570" type="line"/>
    </contour>
  </outline>
</glyph>
<glyph name="mu" format="2">
  <advance width="1200"/>
  <unicode hex="00B5"/>
  <outline>
    <contour>
      <point x="102" y="920" type="line"/>
      <point x="366" y="920" type="line"/>
      <point x="366" y="-400" type="line"/>
      <point x="102" y="-400" type="line"/>
    </contour>
    <contour>
      <point x="980" y="230" type="line"/>
      <point x="1140" y="230" type="line"/>
      <point x="1140" y="0" type="line"/>
      <point x="980" y="0" type="line"/>
    </contour>
    <contour>
      <point x="272" y="350" type="curve" smooth="yes"/>
      <point x="272" y="920" type="line"/>
      <point x="366" y="920" type="line"/>
      <point x="366" y="360" type="line" smooth="yes"/>
      <point x="366" y="247"/>
      <point x="434" y="210"/>
      <point x="532" y="210" type="curve" smooth="yes"/>
      <point x="650" y="210"/>
      <point x="766" y="287"/>
      <point x="766" y="500" type="curve" smooth="yes"/>
      <point x="766" y="920" type="line"/>
      <point x="1030" y="920" type="line"/>
      <point x="1030" y="0" type="line"/>
      <point x="856" y="0" type="line"/>
      <point x="816" y="190" type="line"/>
      <point x="896" y="370" type="line"/>
      <point x="896" y="214"/>
      <point x="754" y="-20"/>
      <point x="567" y="-20" type="curve" smooth="yes"/>
      <point x="395" y="-20"/>
      <point x="272" y="114"/>
    </contour>
  </outline>
</glyph>
<glyph name="paragraph" format="2">
  <advance width="1200"/>
  <unicode hex="00B6"/>
  <outline>
    <contour>
      <point x="787" y="-210" type="line"/>
      <point x="787" y="1190" type="line"/>
      <point x="1026" y="1190" type="line"/>
      <point x="1026" y="-210" type="line"/>
    </contour>
    <contour>
      <point x="457" y="-210" type="line"/>
      <point x="457" y="530" type="line"/>
      <point x="434" y="530" type="line" smooth="yes"/>
      <point x="267" y="530"/>
      <point x="75" y="664"/>
      <point x="75" y="910" type="curve" smooth="yes"/>
      <point x="75" y="1166"/>
      <point x="248" y="1300"/>
      <point x="534" y="1300" type="curve" smooth="yes"/>
      <point x="1146" y="1300" type="line"/>
      <point x="1146" y="1060" type="line"/>
      <point x="696" y="1090" type="line"/>
      <point x="696" y="-210" type="line"/>
    </contour>
  </outline>
</glyph>
<glyph name="periodcentered" format="2">
  <advance width="1200"/>
  <unicode hex="00B7"/>
  <outline>
    <contour>
      <point x="438" y="676" type="curve" smooth="yes"/>
      <point x="438" y="765"/>
      <point x="511" y="838"/>
      <point x="600" y="838" type="curve" smooth="yes"/>
      <point x="689" y="838"/>
      <point x="762" y="765"/>
      <point x="762" y="676" type="curve" smooth="yes"/>
      <point x="762" y="587"/>
      <point x="693" y="514"/>
      <point x="604" y="514" type="curve" smooth="yes"/>
      <point x="515" y="514"/>
      <point x="438" y="587"/>
    </contour>
  </outline>
</glyph>
<glyph name="cedilla" format="2">
  <advance width="1200"/>
  <unicode hex="00B8"/>
  <outline>
    <contour>
      <point x="587" y="-540" type="curve" smooth="yes"/>
      <point x="503" y="-540"/>
      <point x="415" y="-524"/>
      <point x="359" y="-484" type="curve"/>
      <point x="405" y="-284" type="line"/>
      <point x="461" y="-316"/>
      <point x="505" y="-322"/>
      <point x="557" y="-322" type="curve" smooth="yes"/>
      <point x="631" y="-322"/>
      <point x="667" y="-299"/>
      <point x="667" y="-267" type="curve" smooth="yes"/>
      <point x="667" y="-240"/>
      <point x="635" y="-210"/>
      <point x="497" y="-210" type="curve"/>
      <point x="423" y="-106" type="line"/>
      <point x="593" y="70" type="line"/>
      <point x="835" y="70" type="line"/>
      <point x="645" y="-124" type="line"/>
      <point x="537" y="-154" type="line"/>
      <point x="557" y="-114"/>
      <point x="615" y="-84"/>
      <point x="665" y="-84" type="curve" smooth="yes"/>
      <point x="751" y="-84"/>
      <point x="891" y="-142"/>
      <point x="891" y="-312" type="curve" smooth="yes"/>
      <point x="891" y="-470"/>
      <point x="761" y="-540"/>
    </contour>
  </outline>
</glyph>
<glyph name="ordmasculine" format="2">
  <advance width="1200"/>
  <unicode hex="00BA"/>
  <outline>
    <contour>
      <point x="596" y="648" type="curve" smooth="yes"/>
      <point x="403" y="648"/>
      <point x="258" y="763"/>
      <point x="258" y="984" type="curve" smooth="yes"/>
      <point x="258" y="1198"/>
      <point x="416" y="1320"/>
      <point x="596" y="1320" type="curve" smooth="yes"/>
      <point x="776" y="1320"/>
      <point x="942" y="1198"/>
      <point x="942" y="984" type="curve" smooth="yes"/>
      <point x="942" y="763"/>
      <point x="789" y="648"/>
    </contour>
    <contour>
      <point x="596" y="1156" type="curve" smooth="yes"/>
      <point x="528" y="1156"/>
      <point x="500" y="1093"/>
      <point x="500" y="984" type="curve" smooth="yes"/>
      <point x="500" y="868"/>
      <point x="514" y="812"/>
      <point x="596" y="812" type="curve" smooth="yes"/>
      <point x="678" y="812"/>
      <point x="700" y="868"/>
      <point x="700" y="984" type="curve" smooth="yes"/>
      <point x="700" y="1093"/>
      <point x="664" y="1156"/>
    </contour>
  </outline>
</glyph>
<glyph name="onequarter" format="2">
  <advance width="1200"/>
  <unicode hex="00BC"/>
  <outline>
    <contour>
      <point x="99" y="730" type="line"/>
      <point x="1101" y="730" type="line"/>
      <point x="1101" y="520" type="line"/>
      <point x="99" y="520" type="line"/>
    </contour>
    <component base="uni2071" yOffset="300"/>
    <component base="uni2074" yOffset="-1010"/>
  </outline>
</glyph>
<glyph name="AE" format="2">
  <advance width="1200"/>
  <unicode hex="00C6"/>
  <outline>
    <contour>
      <point x="81" y="1300" type="line"/>
      <point x="380" y="1300" type="line"/>
      <point x="480" y="1120" type="line"/>
      <point x="81" y="1070" type="line"/>
    </contour>
    <contour>
      <point x="239" y="-20" type="line"/>
      <point x="-33" y="-20" type="line"/>
      <point x="380" y="1300" type="line"/>
      <point x="680" y="1300" type="line"/>
      <point x="600" y="1230" type="line"/>
    </contour>
    <contour>
      <point x="219" y="600" type="line"/>
      <point x="732" y="600" type="line"/>
      <point x="732" y="370" type="line"/>
      <point x="219" y="370" type="line"/>
    </contour>
    <contour>
      <point x="1011" y="810" type="line"/>
      <point x="1011" y="535" type="line"/>
      <point x="809" y="565" type="line"/>
      <point x="809" y="230" type="line"/>
      <point x="938" y="230" type="line"/>
      <point x="971" y="450" type="line"/>
      <point x="1140" y="450" type="line"/>
      <point x="1140" y="0" type="line"/>
      <point x="400" y="0" type="line"/>
      <point x="400" y="230" type="line"/>
      <point x="540" y="230" type="line"/>
      <point x="540" y="1300" type="line"/>
      <point x="1130" y="1300" type="line"/>
      <point x="1140" y="900" type="line"/>
      <point x="921" y="900" type="line"/>
      <point x="881" y="1070" type="line"/>
      <point x="809" y="1070" type="line"/>
      <point x="809" y="770" type="line"/>
    </contour>
  </outline>
</glyph>
<glyph name="multiply" format="2">
  <advance width="1200"/>
  <unicode hex="00D7"/>
  <outline>
    <contour>
      <point x="240" y="877" type="line"/>
      <point x="398" y="1035" type="line"/>
      <point x="960" y="473" type="line"/>
      <point x="802" y="315" type="line"/>
    </contour>
    <contour>
      <point x="240" y="473" type="line"/>
      <point x="802" y="1035" type="line"/>
      <point x="960" y="877" type="line"/>
      <point x="398" y="315" type="line"/>
    </contour>
  </outline>
</glyph>
<glyph name="Oslash" format="2">
  <advance width="1200"/>
  <unicode hex="00D8"/>
  <outline>
    <contour>
      <point x="874.5" y="1440" type="line"/>
      <point x="1056.5" y="1330" type="line"/>
      <point x="286.5" y="-130" type="line"/>
      <point x="104.5" y="-20" type="line"/>
    </contour>
    <component base="O" xOffset="0.5"/>
  </outline>
</glyph>
<glyph name="Thorn" format="2">
  <advance width="1200"/>
  <unicode hex="00DE"/>
  <outline>
    <contour>
      <point x="75" y="0" type="line"/>
      <point x="75" y="230" type="line"/>
      <point x="195" y="230" type="line"/>
      <point x="195" y="1070" type="line"/>
      <point x="75" y="1070" type="line"/>
      <point x="75" y="1300" type="line"/>
      <point x="454" y="1300" type="line"/>
      <point x="454" y="1080" type="line"/>
      <point x="657" y="1080" type="line" smooth="yes"/>
      <point x="993" y="1080"/>
      <point x="1146" y="956"/>
      <point x="1146" y="720" type="curve" smooth="yes"/>
      <point x="1146" y="494"/>
      <point x="974" y="370"/>
      <point x="657" y="370" type="curve" smooth="yes"/>
      <point x="454" y="370" type="line"/>
      <point x="454" y="230" type="line"/>
      <point x="644" y="230" type="line"/>
      <point x="644" y="0" type="line"/>
    </contour>
    <contour>
      <point x="454" y="600" type="line"/>
      <point x="657" y="600" type="line" smooth="yes"/>
      <point x="765" y="600"/>
      <point x="836" y="627"/>
      <point x="836" y="720" type="curve" smooth="yes"/>
      <point x="836" y="823"/>
      <point x="785" y="850"/>
      <point x="657" y="850" type="curve" smooth="yes"/>
      <point x="454" y="850" type="line"/>
    </contour>
  </outline>
</glyph>
<glyph name="germandbls" format="2">
  <advance width="1200"/>
  <unicode hex="00DF"/>
  <outline>
    <contour>
      <point x="70" y="0" type="line"/>
      <point x="70" y="230" type="line"/>
      <point x="150" y="230" type="line"/>
      <point x="149" y="1000" type="line" smooth="yes"/>
      <point x="149" y="1246"/>
      <point x="302" y="1440"/>
      <point x="609" y="1440" type="curve"/>
      <point x="609" y="1200" type="line"/>
      <point x="521" y="1200"/>
      <point x="409" y="1153"/>
      <point x="409" y="1000" type="curve" smooth="yes"/>
      <point x="409" y="230" type="line"/>
      <point x="500" y="230" type="line"/>
      <point x="500" y="0" type="line"/>
    </contour>
    <contour>
      <point x="609" y="1440" type="line"/>
      <point x="827" y="1440"/>
      <point x="977" y="1311"/>
      <point x="977" y="1169" type="curve" smooth="yes"/>
      <point x="977" y="1062"/>
      <point x="887" y="1000"/>
      <point x="815" y="947" type="curve" smooth="yes"/>
      <point x="759.193" y="905.92"/>
      <point x="713" y="863"/>
      <point x="713" y="817" type="curve" smooth="yes"/>
      <point x="713" y="769"/>
      <point x="782" y="742"/>
      <point x="881" y="696" type="curve" smooth="yes"/>
      <point x="1028" y="628"/>
      <point x="1169" y="552"/>
      <point x="1169" y="346" type="curve" smooth="yes"/>
      <point x="1169" y="151"/>
      <point x="1039" y="1"/>
      <point x="831" y="1" type="curve" smooth="yes"/>
      <point x="777" y="1"/>
      <point x="646" y="11"/>
      <point x="580" y="43" type="curve"/>
      <point x="630" y="278" type="line"/>
      <point x="681" y="252"/>
      <point x="725" y="245"/>
      <point x="763" y="245" type="curve" smooth="yes"/>
      <point x="803" y="245"/>
      <point x="847" y="263"/>
      <point x="847" y="334" type="curve" smooth="yes"/>
      <point x="847" y="407"/>
      <point x="785" y="469"/>
      <point x="671" y="526" type="curve" smooth="yes"/>
      <point x="566.628" y="578.186"/>
      <point x="443" y="665"/>
      <point x="443" y="787" type="curve" smooth="yes"/>
      <point x="443" y="914"/>
      <point x="537.571" y="991.304"/>
      <point x="595" y="1039" type="curve" smooth="yes"/>
      <point x="654" y="1088"/>
      <point x="707" y="1113"/>
      <point x="707" y="1149" type="curve" smooth="yes"/>
      <point x="707" y="1187"/>
      <point x="662" y="1200"/>
      <point x="609" y="1200" type="curve"/>
    </contour>
  </outline>
</glyph>
<glyph name="ae" format="2">
  <advance width="1200"/>
  <unicode hex="00E6"/>
  <outline>
    <contour>
      <point x="696" y="630" type="curve" smooth="yes"/>
      <point x="626" y="155" type="line"/>
      <point x="487" y="120" type="line"/>
      <point x="487" y="610" type="line" smooth="yes"/>
      <point x="487" y="673"/>
      <point x="479" y="720"/>
      <point x="431" y="720" type="curve" smooth="yes"/>
      <point x="363" y="720"/>
      <point x="310" y="660"/>
      <point x="235" y="567" type="curve"/>
      <point x="136" y="770" type="line"/>
      <point x="246" y="896"/>
      <point x="339" y="940"/>
      <point x="446" y="940" type="curve" smooth="yes"/>
      <point x="633" y="940"/>
      <point x="696" y="787"/>
    </contour>
    <contour>
      <point x="348" y="256" type="curve" smooth="yes"/>
      <point x="348" y="230"/>
      <point x="359" y="215"/>
      <point x="387" y="215" type="curve" smooth="yes"/>
      <point x="435" y="215"/>
      <point x="487" y="277"/>
      <point x="577" y="350" type="curve"/>
      <point x="657" y="210" type="line"/>
      <point x="587" y="74"/>
      <point x="464" y="-20"/>
      <point x="317" y="-20" type="curve" smooth="yes"/>
      <point x="161" y="-20"/>
      <point x="78" y="74"/>
      <point x="78" y="200" type="curve" smooth="yes"/>
      <point x="78" y="423"/>
      <point x="283" y="508"/>
      <point x="536" y="619" type="curve"/>
      <point x="576" y="478" type="line"/>
      <point x="410" y="383"/>
      <point x="348" y="320"/>
    </contour>
    <contour>
      <point x="1121" y="79" type="line"/>
      <point x="1061" y="23"/>
      <point x="990" y="-20"/>
      <point x="894" y="-20" type="curve"/>
      <point x="874" y="222" type="line"/>
      <point x="931" y="222"/>
      <point x="994" y="254"/>
      <point x="1043" y="292" type="curve"/>
    </contour>
    <contour>
      <point x="894" y="-20" type="line"/>
      <point x="638" y="-20"/>
      <point x="577" y="194"/>
      <point x="577" y="480" type="curve" smooth="yes"/>
      <point x="577" y="756"/>
      <point x="672" y="940"/>
      <point x="889" y="940" type="curve" smooth="yes"/>
      <point x="1076" y="940"/>
      <point x="1109" y="785"/>
      <point x="1109" y="602" type="curve" smooth="yes"/>
      <point x="1109" y="534"/>
      <point x="1098" y="437"/>
      <point x="1082" y="387" type="curve"/>
      <point x="673" y="357" type="line"/>
      <point x="673" y="567" type="line"/>
      <point x="900" y="607" type="line"/>
      <point x="913" y="667"/>
      <point x="899" y="705"/>
      <point x="859" y="705" type="curve" smooth="yes"/>
      <point x="781" y="705"/>
      <point x="743" y="653"/>
      <point x="743" y="460" type="curve" smooth="yes"/>
      <point x="743" y="327"/>
      <point x="726" y="222"/>
      <point x="874" y="222" type="curve"/>
    </contour>
  </outline>
</glyph>
<glyph name="eth" format="2">
  <advance width="1200"/>
  <unicode hex="00F0"/>
  <outline>
    <contour>
      <point x="590" y="-20" type="curve" smooth="yes"/>
      <point x="302" y="-20"/>
      <point x="64" y="140"/>
      <point x="64" y="460" type="curve" smooth="yes"/>
      <point x="64" y="762"/>
      <point x="278" y="940"/>
      <point x="478" y="940" type="curve" smooth="yes"/>
      <point x="648" y="940"/>
      <point x="808" y="866"/>
      <point x="912" y="742" type="curve"/>
      <point x="750" y="772" type="line"/>
      <point x="662" y="958"/>
      <point x="528" y="1092"/>
      <point x="300" y="1298" type="curve"/>
      <point x="476" y="1470" type="line"/>
      <point x="904" y="1042"/>
      <point x="1116" y="728"/>
      <point x="1116" y="460" type="curve" smooth="yes"/>
      <point x="1116" y="140"/>
      <point x="878" y="-20"/>
    </contour>
    <contour>
      <point x="590" y="234" type="curve" smooth="yes"/>
      <point x="774" y="234"/>
      <point x="854" y="312"/>
      <point x="854" y="460" type="curve" smooth="yes"/>
      <point x="854" y="600"/>
      <point x="770" y="716"/>
      <point x="590" y="716" type="curve" smooth="yes"/>
      <point x="410" y="716"/>
      <point x="326" y="600"/>
      <point x="326" y="460" type="curve" smooth="yes"/>
      <point x="326" y="312"/>
      <point x="416" y="234"/>
    </contour>
    <contour>
      <point x="382" y="976" type="line"/>
      <point x="306" y="1150" type="line"/>
      <point x="866" y="1394" type="line"/>
      <point x="942" y="1220" type="line"/>
    </contour>
  </outline>
</glyph>
<glyph name="divide" format="2">
  <advance width="1200"/>
  <unicode hex="00F7"/>
  <outline>
    <contour>
      <point x="189" y="780" type="line"/>
      <point x="1011" y="780" type="line"/>
      <point x="1011" y="570" type="line"/>
      <point x="189" y="570" type="line"/>
    </contour>
    <component base="period" xScale="0.75" yScale="0.75" xOffset="150" yOffset="865"/>
    <component base="period" xScale="0.75" yScale="0.75" xOffset="150" yOffset="215"/>
  </outline>
</glyph>
<glyph name="thorn" format="2">
  <advance width="1200"/>
  <unicode hex="00FE"/>
  <outline>
    <contour>
      <point x="654" y="215" type="curve" smooth="yes"/>
      <point x="802" y="215"/>
      <point x="869" y="297"/>
      <point x="869" y="460" type="curve" smooth="yes"/>
      <point x="869" y="613"/>
      <point x="772" y="700"/>
      <point x="654" y="700" type="curve" smooth="yes"/>
      <point x="526" y="700"/>
      <point x="420" y="633"/>
      <point x="420" y="460" type="curve" smooth="yes"/>
      <point x="420" y="277"/>
      <point x="526" y="215"/>
    </contour>
    <contour>
      <point x="724" y="940" type="curve" smooth="yes"/>
      <point x="920" y="940"/>
      <point x="1149" y="786"/>
      <point x="1149" y="460" type="curve" smooth="yes"/>
      <point x="1149" y="144"/>
      <point x="921" y="-20"/>
      <point x="724" y="-20" type="curve" smooth="yes"/>
      <point x="467" y="-20"/>
      <point x="350" y="164"/>
      <point x="350" y="480" type="curve" smooth="yes"/>
      <point x="350" y="766"/>
      <point x="458" y="940"/>
    </contour>
    <contour>
      <point x="421" y="1330" type="line"/>
      <point x="421" y="-110" type="line"/>
      <point x="601" y="-110" type="line"/>
      <point x="601" y="-330" type="line"/>
      <point x="52" y="-330" type="line"/>
      <point x="52" y="-110" type="line"/>
      <point x="162" y="-110" type="line"/>
      <point x="162" y="1090" type="line"/>
      <point x="42" y="1090" type="line"/>
      <point x="42" y="1330" type="line"/>
    </contour>
  </outline>
</glyph>
<glyph name="dcroat" format="2">
  <advance width="1200"/>
  <unicode hex="0111"/>
  <outline>
    <contour>
      <point x="699" y="1210" type="line"/>
      <point x="1201" y="1210" type="line"/>
      <point x="1201" y="980" type="line"/>
      <point x="699" y="980" type="line"/>
    </contour>
    <contour>
      <point x="617" y="690" type="curve" smooth="yes"/>
      <point x="479" y="690"/>
      <point x="372" y="613"/>
      <point x="372" y="460" type="curve" smooth="yes"/>
      <point x="372" y="317"/>
      <point x="469" y="225"/>
      <point x="607" y="225" type="curve" smooth="yes"/>
      <point x="745" y="225"/>
      <point x="851" y="297"/>
      <point x="851" y="460" type="curve" smooth="yes"/>
      <point x="851" y="603"/>
      <point x="745" y="690"/>
    </contour>
    <contour>
      <point x="527" y="-20" type="curve" smooth="yes"/>
      <point x="301" y="-20"/>
      <point x="82" y="154"/>
      <point x="82" y="460" type="curve" smooth="yes"/>
      <point x="82" y="746"/>
      <point x="280" y="940"/>
      <point x="547" y="940" type="curve" smooth="yes"/>
      <point x="804" y="940"/>
      <point x="931" y="696"/>
      <point x="931" y="460" type="curve" smooth="yes"/>
      <point x="931" y="194"/>
      <point x="813" y="-20"/>
    </contour>
    <contour>
      <point x="851" y="190" type="line"/>
      <point x="851" y="1330" type="line"/>
      <point x="1110" y="1330" type="line"/>
      <point x="1110" y="0" type="line"/>
      <point x="941" y="0" type="line"/>
    </contour>
  </outline>
</glyph>
<glyph name="Hbar" format="2">
  <advance width="1200"/>
  <unicode hex="0126"/>
  <outline>
    <contour>
      <point x="781" y="410" type="line"/>
      <point x="419" y="410" type="line"/>
      <point x="419" y="230" type="line"/>
      <point x="558" y="230" type="line"/>
      <point x="558" y="0" type="line"/>
      <point x="40" y="0" type="line"/>
      <point x="40" y="230" type="line"/>
      <point x="160" y="230" type="line"/>
      <point x="160" y="1070" type="line"/>
      <point x="40" y="1070" type="line"/>
      <point x="40" y="1300" type="line"/>
      <point x="558" y="1300" type="line"/>
      <point x="558" y="1070" type="line"/>
      <point x="419" y="1070" type="line"/>
      <point x="419" y="640" type="line"/>
      <point x="781" y="640" type="line"/>
      <point x="781" y="1070" type="line"/>
      <point x="642" y="1070" type="line"/>
      <point x="642" y="1300" type="line"/>
      <point x="1160" y="1300" type="line"/>
      <point x="1160" y="1070" type="line"/>
      <point x="1040" y="1070" type="line"/>
      <point x="1040" y="230" type="line"/>
      <point x="1160" y="230" type="line"/>
      <point x="1160" y="0" type="line"/>
      <point x="642" y="0" type="line"/>
      <point x="642" y="230" type="line"/>
      <point x="781" y="230" type="line"/>
    </contour>
    <contour>
      <point x="39" y="970" type="line"/>
      <point x="1161" y="970" type="line"/>
      <point x="1161" y="740" type="line"/>
      <point x="39" y="740" type="line"/>
    </contour>
  </outline>
</glyph>
<glyph name="dotlessi" format="2">
  <advance width="1200"/>
  <unicode hex="0131"/>
  <anchor x="597" y="0" name="Anchor-2"/>
  <anchor x="596" y="920" name="Anchor-0"/>
  <outline>
    <contour>
      <point x="100" y="0" type="line"/>
      <point x="100" y="230" type="line"/>
      <point x="450" y="230" type="line"/>
      <point x="450" y="680" type="line"/>
      <point x="160" y="680" type="line"/>
      <point x="160" y="920" type="line"/>
      <point x="749" y="920" type="line"/>
      <point x="749" y="230" type="line"/>
      <point x="1100" y="230" type="line"/>
      <point x="1100" y="0" type="line"/>
    </contour>
  </outline>
</glyph>
<glyph name="IJ" format="2">
  <advance width="1200"/>
  <unicode hex="0132"/>
  <outline>
    <contour>
      <point x="65" y="0" type="line"/>
      <point x="65" y="230" type="line"/>
      <point x="170" y="230" type="line"/>
      <point x="170" y="1070" type="line"/>
      <point x="75" y="1070" type="line"/>
      <point x="75" y="1300" type="line"/>
      <point x="535" y="1300" type="line"/>
      <point x="535" y="1070" type="line"/>
      <point x="440" y="1070" type="line"/>
      <point x="440" y="230" type="line"/>
      <point x="545" y="230" type="line"/>
      <point x="545" y="0" type="line"/>
    </contour>
    <contour>
      <point x="659" y="224" type="line"/>
      <point x="807" y="224"/>
      <point x="873.792" y="297"/>
      <point x="874" y="430" type="curve" smooth="yes"/>
      <point x="875" y="1070" type="line"/>
      <point x="656" y="1070" type="line"/>
      <point x="656" y="1300" type="line"/>
      <point x="1135" y="1300" type="line"/>
      <point x="1134" y="430" type="line" smooth="yes"/>
      <point x="1134" y="174"/>
      <point x="930" y="-20"/>
      <point x="664" y="-20" type="curve"/>
    </contour>
  </outline>
</glyph>
<glyph name="ij" format="2">
  <advance width="1200"/>
  <unicode hex="0133"/>
  <outline>
    <contour>
      <point x="175" y="1255" type="curve" smooth="yes"/>
      <point x="175" y="1358"/>
      <point x="256" y="1430"/>
      <point x="349" y="1430" type="curve" smooth="yes"/>
      <point x="442" y="1430"/>
      <point x="524" y="1358"/>
      <point x="524" y="1255" type="curve" smooth="yes"/>
      <point x="524" y="1152"/>
      <point x="447" y="1080"/>
      <point x="354" y="1080" type="curve" smooth="yes"/>
      <point x="261" y="1080"/>
      <point x="175" y="1152"/>
    </contour>
    <contour>
      <point x="55" y="0" type="line"/>
      <point x="55" y="230" type="line"/>
      <point x="215" y="230" type="line"/>
      <point x="215" y="680" type="line"/>
      <point x="65" y="680" type="line"/>
      <point x="65" y="920" type="line"/>
      <point x="494" y="920" type="line"/>
      <point x="494" y="230" type="line"/>
      <point x="655" y="230" type="line"/>
      <point x="655" y="0" type="line"/>
    </contour>
    <contour>
      <point x="595" y="-190" type="curve"/>
      <point x="575" y="-430" type="line"/>
      <point x="388" y="-430"/>
      <point x="225" y="-331"/>
      <point x="150" y="-231" type="curve"/>
      <point x="356" y="-70" type="line"/>
      <point x="398" y="-120"/>
      <point x="487" y="-190"/>
    </contour>
    <contour>
      <point x="725" y="1255" type="curve" smooth="yes"/>
      <point x="725" y="1358"/>
      <point x="806" y="1430"/>
      <point x="899" y="1430" type="curve" smooth="yes"/>
      <point x="992" y="1430"/>
      <point x="1074" y="1358"/>
      <point x="1074" y="1255" type="curve" smooth="yes"/>
      <point x="1074" y="1152"/>
      <point x="997" y="1080"/>
      <point x="904" y="1080" type="curve" smooth="yes"/>
      <point x="811" y="1080"/>
      <point x="725" y="1152"/>
    </contour>
    <contour>
      <point x="1034" y="920" type="line"/>
      <point x="1035" y="10" type="line" smooth="yes"/>
      <point x="1035" y="-236"/>
      <point x="882" y="-430"/>
      <point x="575" y="-430" type="curve"/>
      <point x="595" y="-190" type="line"/>
      <point x="693" y="-190"/>
      <point x="765" y="-143"/>
      <point x="765" y="10" type="curve" smooth="yes"/>
      <point x="765" y="680" type="line"/>
      <point x="625" y="680" type="line"/>
      <point x="625" y="920" type="line"/>
    </contour>
  </outline>
</glyph>
<glyph name="kgreenlandic" format="2">
  <advance width="1200"/>
  <unicode hex="0138"/>
  <anchor x="626" y="0" name="Anchor-2"/>
  <anchor x="636" y="920" name="Anchor-0"/>
  <outline>
    <contour>
      <point x="860" y="0" type="line"/>
      <point x="470" y="420" type="line"/>
      <point x="670" y="550" type="line"/>
      <point x="1210" y="0" type="line"/>
    </contour>
    <contour>
      <point x="792" y="920" type="line"/>
      <point x="1132" y="920" type="line"/>
      <point x="430" y="170" type="line"/>
      <point x="430" y="0" type="line"/>
      <point x="170" y="0" type="line"/>
      <point x="170" y="680" type="line"/>
      <point x="30" y="680" type="line"/>
      <point x="30" y="920" type="line"/>
      <point x="430" y="920" type="line"/>
      <point x="430" y="484" type="line"/>
    </contour>
  </outline>
</glyph>
<glyph name="Lslash" format="2">
  <advance width="1200"/>
  <unicode hex="0141"/>
  <outline>
    <contour>
      <point x="95" y="510" type="line"/>
      <point x="5" y="685" type="line"/>
      <point x="615" y="975" type="line"/>
      <point x="705" y="800" type="line"/>
    </contour>
    <component base="L"/>
  </outline>
</glyph>
<glyph name="lslash" format="2">
  <advance width="1200"/>
  <unicode hex="0142"/>
  <outline>
    <contour>
      <point x="365" y="540" type="line"/>
      <point x="275" y="705" type="line"/>
      <point x="895" y="1005" type="line"/>
      <point x="985" y="840" type="line"/>
    </contour>
    <component base="l"/>
  </outline>
</glyph>
<glyph name="Eng" format="2">
  <advance width="1200"/>
  <unicode hex="014A"/>
  <outline>
    <contour>
      <point x="1088" y="0" type="line"/>
      <point x="1088" y="-246"/>
      <point x="941" y="-440"/>
      <point x="634" y="-440" type="curve"/>
      <point x="634" y="-200" type="line"/>
      <point x="762" y="-200"/>
      <point x="814" y="-153"/>
      <point x="814" y="0" type="curve"/>
    </contour>
    <contour>
      <point x="210" y="1060" type="line"/>
      <point x="40" y="1060" type="line"/>
      <point x="40" y="1300" type="line"/>
      <point x="210" y="1300" type="line"/>
    </contour>
    <contour>
      <point x="1088" y="950" type="curve" smooth="yes"/>
      <point x="1088" y="0" type="line"/>
      <point x="814" y="0" type="line"/>
      <point x="814" y="920" type="line" smooth="yes"/>
      <point x="814" y="1033"/>
      <point x="751" y="1090"/>
      <point x="653" y="1090" type="curve" smooth="yes"/>
      <point x="535" y="1090"/>
      <point x="434" y="1033"/>
      <point x="434" y="820" type="curve" smooth="yes"/>
      <point x="434" y="0" type="line"/>
      <point x="160" y="0" type="line"/>
      <point x="160" y="1300" type="line"/>
      <point x="364" y="1300" type="line"/>
      <point x="404" y="1110" type="line"/>
      <point x="344" y="930" type="line"/>
      <point x="344" y="1086"/>
      <point x="496" y="1320"/>
      <point x="763" y="1320" type="curve" smooth="yes"/>
      <point x="975" y="1320"/>
      <point x="1088" y="1186"/>
    </contour>
  </outline>
</glyph>
<glyph name="eng" format="2">
  <advance width="1200"/>
  <unicode hex="014B"/>
  <outline>
    <contour>
      <point x="1088" y="0" type="line"/>
      <point x="1088" y="-246"/>
      <point x="941" y="-440"/>
      <point x="634" y="-440" type="curve"/>
      <point x="634" y="-200" type="line"/>
      <point x="762" y="-200"/>
      <point x="814" y="-153"/>
      <point x="814" y="0" type="curve"/>
    </contour>
    <contour>
      <point x="210" y="680" type="line"/>
      <point x="40" y="680" type="line"/>
      <point x="40" y="920" type="line"/>
      <point x="210" y="920" type="line"/>
    </contour>
    <contour>
      <point x="1088" y="570" type="curve" smooth="yes"/>
      <point x="1088" y="0" type="line"/>
      <point x="814" y="0" type="line"/>
      <point x="814" y="540" type="line" smooth="yes"/>
      <point x="814" y="653"/>
      <point x="751" y="710"/>
      <point x="653" y="710" type="curve" smooth="yes"/>
      <point x="535" y="710"/>
      <point x="434" y="653"/>
      <point x="434" y="440" type="curve" smooth="yes"/>
      <point x="434" y="0" type="line"/>
      <point x="160" y="0" type="line"/>
      <point x="160" y="920" type="line"/>
      <point x="364" y="920" type="line"/>
      <point x="404" y="730" type="line"/>
      <point x="344" y="550" type="line"/>
      <point x="344" y="706"/>
      <point x="496" y="940"/>
      <point x="763" y="940" type="curve" smooth="yes"/>
      <point x="975" y="940"/>
      <point x="1088" y="806"/>
    </contour>
  </outline>
</glyph>
<glyph name="OE" format="2">
  <advance width="1200"/>
  <unicode hex="0152"/>
  <outline>
    <contour>
      <point x="540" y="1300" type="curve"/>
      <point x="540" y="1060" type="line"/>
      <point x="422" y="1060"/>
      <point x="310" y="1003"/>
      <point x="310" y="650" type="curve" smooth="yes"/>
      <point x="310" y="287"/>
      <point x="402" y="240"/>
      <point x="540" y="240" type="curve"/>
      <point x="540" y="0" type="line"/>
      <point x="224" y="0"/>
      <point x="50" y="214"/>
      <point x="50" y="650" type="curve" smooth="yes"/>
      <point x="50" y="1076"/>
      <point x="243" y="1300"/>
    </contour>
    <contour>
      <point x="1011" y="790" type="line"/>
      <point x="1011" y="555" type="line"/>
      <point x="809" y="565" type="line"/>
      <point x="809" y="230" type="line"/>
      <point x="928" y="230" type="line"/>
      <point x="961" y="450" type="line"/>
      <point x="1140" y="450" type="line"/>
      <point x="1140" y="0" type="line"/>
      <point x="540" y="0" type="line"/>
      <point x="540" y="1300" type="line"/>
      <point x="1100" y="1300" type="line"/>
      <point x="1140" y="900" type="line"/>
      <point x="961" y="900" type="line"/>
      <point x="891" y="1070" type="line"/>
      <point x="809" y="1070" type="line"/>
      <point x="809" y="780" type="line"/>
    </contour>
  </outline>
</glyph>
<glyph name="oe" format="2">
  <advance width="1200"/>
  <unicode hex="0153"/>
  <outline>
    <contour>
      <point x="379" y="-20" type="curve" smooth="yes"/>
      <point x="173" y="-20"/>
      <point x="91" y="144"/>
      <point x="91" y="460" type="curve" smooth="yes"/>
      <point x="91" y="766"/>
      <point x="192" y="940"/>
      <point x="379" y="940" type="curve" smooth="yes"/>
      <point x="596" y="940"/>
      <point x="649" y="766"/>
      <point x="649" y="460" type="curve" smooth="yes"/>
      <point x="649" y="144"/>
      <point x="615" y="-20"/>
    </contour>
    <contour>
      <point x="429" y="705" type="curve" smooth="yes"/>
      <point x="391" y="705"/>
      <point x="365" y="673"/>
      <point x="365" y="460" type="curve" smooth="yes"/>
      <point x="365" y="237"/>
      <point x="381" y="215"/>
      <point x="419" y="215" type="curve" smooth="yes"/>
      <point x="467" y="215"/>
      <point x="485" y="237"/>
      <point x="485" y="460" type="curve" smooth="yes"/>
      <point x="485" y="673"/>
      <point x="477" y="705"/>
    </contour>
    <contour>
      <point x="1121" y="79" type="line"/>
      <point x="1061" y="23"/>
      <point x="990" y="-20"/>
      <point x="894" y="-20" type="curve"/>
      <point x="874" y="222" type="line"/>
      <point x="931" y="222"/>
      <point x="994" y="254"/>
      <point x="1043" y="292" type="curve"/>
    </contour>
    <contour>
      <point x="894" y="-20" type="line"/>
      <point x="638" y="-20"/>
      <point x="577" y="194"/>
      <point x="577" y="480" type="curve" smooth="yes"/>
      <point x="577" y="756"/>
      <point x="672" y="940"/>
      <point x="889" y="940" type="curve" smooth="yes"/>
      <point x="1076" y="940"/>
      <point x="1109" y="785"/>
      <point x="1109" y="602" type="curve" smooth="yes"/>
      <point x="1109" y="534"/>
      <point x="1098" y="487"/>
      <point x="1082" y="437" type="curve"/>
      <point x="673" y="407" type="line"/>
      <point x="673" y="517" type="line"/>
      <point x="850" y="557" type="line"/>
      <point x="873" y="627"/>
      <point x="869" y="705"/>
      <point x="819" y="705" type="curve" smooth="yes"/>
      <point x="771" y="705"/>
      <point x="743" y="653"/>
      <point x="743" y="460" type="curve" smooth="yes"/>
      <point x="743" y="297"/>
      <point x="796" y="222"/>
      <point x="874" y="222" type="curve"/>
    </contour>
  </outline>
</glyph>
<glyph name="Tbar" format="2">
  <advance width="1200"/>
  <unicode hex="0166"/>
  <outline>
    <contour>
      <point x="299" y="670" type="line"/>
      <point x="901" y="670" type="line"/>
      <point x="901" y="440" type="line"/>
      <point x="299" y="440" type="line"/>
    </contour>
    <component base="T"/>
  </outline>
</glyph>
<glyph name="florin" format="2">
  <advance width="1200"/>
  <unicode hex="0192"/>
  <outline>
    <contour>
      <point x="290" y="-180" type="curve"/>
      <point x="290" y="-420" type="line"/>
      <point x="143" y="-420"/>
      <point x="30" y="-371"/>
      <point x="-45" y="-271" type="curve"/>
      <point x="81" y="-40" type="line"/>
      <point x="123" y="-90"/>
      <point x="232" y="-180"/>
    </contour>
    <contour>
      <point x="659" y="130" type="line"/>
      <point x="660" y="20" type="line" smooth="yes"/>
      <point x="660" y="-226"/>
      <point x="567" y="-420"/>
      <point x="290" y="-420" type="curve"/>
      <point x="290" y="-180" type="line"/>
      <point x="368" y="-180"/>
      <point x="380" y="-133"/>
      <point x="380" y="20" type="curve" smooth="yes"/>
      <point x="380" y="130" type="line"/>
    </contour>
    <contour>
      <point x="819" y="1200" type="curve"/>
      <point x="839" y="1440" type="line"/>
      <point x="996" y="1440"/>
      <point x="1149" y="1371"/>
      <point x="1224" y="1301" type="curve"/>
      <point x="1118" y="1080" type="line"/>
      <point x="1076" y="1110"/>
      <point x="917" y="1200"/>
    </contour>
    <contour>
      <point x="380" y="130" type="line"/>
      <point x="380" y="690" type="line"/>
      <point x="160" y="690" type="line"/>
      <point x="160" y="920" type="line"/>
      <point x="379" y="920" type="line"/>
      <point x="379" y="1000" type="line" smooth="yes"/>
      <point x="379" y="1246"/>
      <point x="532" y="1440"/>
      <point x="839" y="1440" type="curve"/>
      <point x="819" y="1200" type="line"/>
      <point x="701" y="1200"/>
      <point x="659" y="1153"/>
      <point x="659" y="1000" type="curve" smooth="yes"/>
      <point x="659" y="920" type="line"/>
      <point x="1050" y="920" type="line"/>
      <point x="1050" y="670" type="line"/>
      <point x="659" y="690" type="line"/>
      <point x="659" y="130" type="line"/>
    </contour>
  </outline>
</glyph>
<glyph name="uni0237" format="2">
  <advance width="1200"/>
  <unicode hex="0237"/>
  <anchor x="596" y="920" name="Anchor-0"/>
  <outline>
    <contour>
      <point x="500" y="-190" type="curve"/>
      <point x="500" y="-430" type="line"/>
      <point x="283" y="-430"/>
      <point x="130" y="-311"/>
      <point x="55" y="-211" type="curve"/>
      <point x="241" y="-30" type="line"/>
      <point x="283" y="-80"/>
      <point x="392" y="-190"/>
    </contour>
    <contour>
      <point x="959" y="920" type="line"/>
      <point x="960" y="10" type="line" smooth="yes"/>
      <point x="960" y="-236"/>
      <point x="857" y="-430"/>
      <point x="500" y="-430" type="curve"/>
      <point x="500" y="-190" type="line"/>
      <point x="628" y="-190"/>
      <point x="690" y="-133"/>
      <point x="690" y="10" type="curve" smooth="yes"/>
      <point x="690" y="680" type="line"/>
      <point x="320" y="680" type="line"/>
      <point x="320" y="920" type="line"/>
    </contour>
  </outline>
</glyph>
<glyph name="uni02BC" format="2">
  <advance width="1200"/>
  <unicode hex="02BC"/>
  <anchor x="206" y="920" name="_Anchor-1"/>
  <outline>
    <contour>
      <point x="440" y="726" type="line"/>
      <point x="460" y="1336" type="line"/>
      <point x="770" y="1336" type="line"/>
      <point x="620" y="726" type="line"/>
    </contour>
  </outline>
</glyph>
<glyph name="uni02C9" format="2">
  <advance width="1200"/>
  <unicode hex="02C9"/>
  <outline>
    <contour>
      <point x="349" y="1270" type="line"/>
      <point x="851" y="1270" type="line"/>
      <point x="851" y="1040" type="line"/>
      <point x="349" y="1040" type="line"/>
    </contour>
  </outline>
</glyph>
<glyph name="uni02CA" format="2">
  <advance width="1200"/>
  <unicode hex="02CA"/>
  <outline>
    <contour>
      <point x="422" y="1105" type="line"/>
      <point x="576" y="1421" type="line"/>
      <point x="810" y="1261" type="line"/>
      <point x="552" y="1015" type="line"/>
    </contour>
  </outline>
</glyph>
<glyph name="uni02CB" format="2">
  <advance width="1200"/>
  <unicode hex="02CB"/>
  <outline>
    <contour>
      <point x="778" y="1105" type="line"/>
      <point x="648" y="1015" type="line"/>
      <point x="390" y="1261" type="line"/>
      <point x="624" y="1421" type="line"/>
    </contour>
  </outline>
</glyph>
<glyph name="breve" format="2">
  <advance width="1200"/>
  <unicode hex="02D8"/>
  <outline>
    <contour>
      <point x="284" y="1310" type="curve"/>
      <point x="526" y="1290" type="line"/>
      <point x="516" y="1248"/>
      <point x="530" y="1190"/>
      <point x="600" y="1190" type="curve" smooth="yes"/>
      <point x="669" y="1190"/>
      <point x="684" y="1248"/>
      <point x="674" y="1290" type="curve"/>
      <point x="916" y="1310" type="line"/>
      <point x="926" y="1112"/>
      <point x="820" y="980"/>
      <point x="600" y="980" type="curve" smooth="yes"/>
      <point x="380" y="980"/>
      <point x="274" y="1112"/>
    </contour>
  </outline>
</glyph>
<glyph name="dotaccent" format="2">
  <advance width="1200"/>
  <unicode hex="02D9"/>
  <outline>
    <contour>
      <point x="438" y="1240" type="curve" smooth="yes"/>
      <point x="438" y="1331"/>
      <point x="509" y="1402"/>
      <point x="600" y="1402" type="curve" smooth="yes"/>
      <point x="691" y="1402"/>
      <point x="762" y="1331"/>
      <point x="762" y="1240" type="curve" smooth="yes"/>
      <point x="762" y="1149"/>
      <point x="695" y="1078"/>
      <point x="604" y="1078" type="curve" smooth="yes"/>
      <point x="513" y="1078"/>
      <point x="438" y="1149"/>
    </contour>
  </outline>
</glyph>
<glyph name="tildecomb" format="2">
  <advance width="1200"/>
  <unicode hex="0303"/>
  <anchor x="-596" y="920" name="_Anchor-0"/>
  <outline>
    <contour>
      <point x="-992" y="1075" type="line"/>
      <point x="-992" y="1243"/>
      <point x="-873" y="1363"/>
      <point x="-741" y="1363" type="curve" smooth="yes"/>
      <point x="-684" y="1363"/>
      <point x="-648.906" y="1345.54"/>
      <point x="-579" y="1301" type="curve" smooth="yes"/>
      <point x="-538.014" y="1274.88"/>
      <point x="-515" y="1259"/>
      <point x="-489" y="1259" type="curve" smooth="yes"/>
      <point x="-451" y="1259"/>
      <point x="-438" y="1304"/>
      <point x="-438" y="1337" type="curve"/>
      <point x="-208" y="1337" type="line"/>
      <point x="-208" y="1168"/>
      <point x="-317" y="1049"/>
      <point x="-459" y="1049" type="curve" smooth="yes"/>
      <point x="-526" y="1049"/>
      <point x="-581.094" y="1086.46"/>
      <point x="-621" y="1111" type="curve" smooth="yes"/>
      <point x="-662.396" y="1136.46"/>
      <point x="-675" y="1153"/>
      <point x="-701" y="1153" type="curve" smooth="yes"/>
      <point x="-739" y="1153"/>
      <point x="-762" y="1108"/>
      <point x="-762" y="1075" type="curve"/>
    </contour>
  </outline>
</glyph>
<glyph name="uni0304" format="2">
  <advance width="1200"/>
  <unicode hex="0304"/>
  <anchor x="-596" y="920" name="_Anchor-0"/>
  <outline>
    <contour>
      <point x="-851" y="1270" type="line"/>
      <point x="-349" y="1270" type="line"/>
      <point x="-349" y="1040" type="line"/>
      <point x="-851" y="1040" type="line"/>
    </contour>
  </outline>
</glyph>
<glyph name="uni0306" format="2">
  <advance width="1200"/>
  <unicode hex="0306"/>
  <anchor x="-604" y="920" name="_Anchor-0"/>
  <outline>
    <contour>
      <point x="-916" y="1360" type="curve"/>
      <point x="-674" y="1340" type="line"/>
      <point x="-684" y="1298"/>
      <point x="-670" y="1240"/>
      <point x="-600" y="1240" type="curve" smooth="yes"/>
      <point x="-531" y="1240"/>
      <point x="-516" y="1298"/>
      <point x="-526" y="1340" type="curve"/>
      <point x="-284" y="1360" type="line"/>
      <point x="-274" y="1162"/>
      <point x="-380" y="1030"/>
      <point x="-600" y="1030" type="curve" smooth="yes"/>
      <point x="-820" y="1030"/>
      <point x="-926" y="1162"/>
    </contour>
  </outline>
</glyph>
<glyph name="uni0307" format="2">
  <advance width="1200"/>
  <unicode hex="0307"/>
  <anchor x="-604" y="920" name="_Anchor-0"/>
  <outline>
    <contour>
      <point x="-762" y="1240" type="curve" smooth="yes"/>
      <point x="-762" y="1331"/>
      <point x="-691" y="1402"/>
      <point x="-600" y="1402" type="curve" smooth="yes"/>
      <point x="-509" y="1402"/>
      <point x="-438" y="1331"/>
      <point x="-438" y="1240" type="curve" smooth="yes"/>
      <point x="-438" y="1149"/>
      <point x="-505" y="1078"/>
      <point x="-596" y="1078" type="curve" smooth="yes"/>
      <point x="-687" y="1078"/>
      <point x="-762" y="1149"/>
    </contour>
  </outline>
</glyph>
<glyph name="uni030C" format="2">
  <advance width="1200"/>
  <unicode hex="030C"/>
  <anchor x="-596" y="920" name="_Anchor-0"/>
  <outline>
    <contour>
      <point x="-458" y="1430" type="line"/>
      <point x="-266" y="1300" type="line"/>
      <point x="-606" y="1021" type="line"/>
      <point x="-934" y="1300" type="line"/>
      <point x="-744" y="1430" type="line"/>
      <point x="-526" y="1191" type="line"/>
      <point x="-686" y="1191" type="line"/>
    </contour>
  </outline>
</glyph>
<glyph name="uni0312" format="2">
  <advance width="1200"/>
  <unicode hex="0312"/>
  <outline>
    <contour>
      <point x="-471" y="1264" type="line"/>
      <point x="-481" y="806" type="line"/>
      <point x="-739" y="806" type="line"/>
      <point x="-621" y="1264" type="line"/>
    </contour>
  </outline>
</glyph>
<glyph name="dotbelowcomb" format="2">
  <advance width="1200"/>
  <unicode hex="0323"/>
  <anchor x="-600" y="0" name="_Anchor-3"/>
  <outline>
    <contour>
      <point x="-762" y="-352" type="curve" smooth="yes"/>
      <point x="-762" y="-261"/>
      <point x="-691" y="-190"/>
      <point x="-600" y="-190" type="curve" smooth="yes"/>
      <point x="-509" y="-190"/>
      <point x="-438" y="-261"/>
      <point x="-438" y="-352" type="curve" smooth="yes"/>
      <point x="-438" y="-444"/>
      <point x="-505" y="-514"/>
      <point x="-596" y="-514" type="curve" smooth="yes"/>
      <point x="-687" y="-514"/>
      <point x="-762" y="-444"/>
    </contour>
  </outline>
</glyph>
<glyph name="uni0326" format="2">
  <advance width="1200"/>
  <unicode hex="0326"/>
  <anchor x="-600" y="0" name="_Anchor-3"/>
  <outline>
    <contour>
      <point x="-739" y="-618" type="line"/>
      <point x="-729" y="-160" type="line"/>
      <point x="-471" y="-160" type="line"/>
      <point x="-589" y="-618" type="line"/>
    </contour>
  </outline>
</glyph>
<glyph name="uni0327" format="2">
  <advance width="1200"/>
  <unicode hex="0327"/>
  <anchor x="-600" y="0" name="_Anchor-3"/>
  <outline>
    <contour>
      <point x="-613" y="-540" type="curve" smooth="yes"/>
      <point x="-697" y="-540"/>
      <point x="-785" y="-524"/>
      <point x="-841" y="-484" type="curve"/>
      <point x="-795" y="-284" type="line"/>
      <point x="-739" y="-316"/>
      <point x="-695" y="-322"/>
      <point x="-643" y="-322" type="curve" smooth="yes"/>
      <point x="-569" y="-322"/>
      <point x="-533" y="-299"/>
      <point x="-533" y="-267" type="curve" smooth="yes"/>
      <point x="-533" y="-240"/>
      <point x="-565" y="-210"/>
      <point x="-703" y="-210" type="curve"/>
      <point x="-777" y="-106" type="line"/>
      <point x="-607" y="70" type="line"/>
      <point x="-365" y="70" type="line"/>
      <point x="-555" y="-124" type="line"/>
      <point x="-663" y="-154" type="line"/>
      <point x="-643" y="-114"/>
      <point x="-585" y="-84"/>
      <point x="-535" y="-84" type="curve" smooth="yes"/>
      <point x="-449" y="-84"/>
      <point x="-309" y="-142"/>
      <point x="-309" y="-312" type="curve" smooth="yes"/>
      <point x="-309" y="-470"/>
      <point x="-439" y="-540"/>
    </contour>
  </outline>
</glyph>
<glyph name="uni0394" format="2">
  <advance width="1200"/>
  <unicode hex="0394"/>
  <outline>
    <contour>
      <point x="289" y="0" type="line"/>
      <point x="17" y="0" type="line"/>
      <point x="460" y="1300" type="line"/>
      <point x="760" y="1300" type="line"/>
      <point x="1183" y="0" type="line"/>
      <point x="911" y="0" type="line"/>
      <point x="540" y="1230" type="line"/>
      <point x="680" y="1230" type="line"/>
    </contour>
    <contour>
      <point x="205" y="230" type="line"/>
      <point x="1002" y="230" type="line"/>
      <point x="1002" y="0" type="line"/>
      <point x="205" y="0" type="line"/>
    </contour>
  </outline>
</glyph>
<glyph name="uni03A9" format="2">
  <advance width="1200"/>
  <unicode hex="03A9"/>
  <outline>
    <contour>
      <point x="509" y="0" type="line"/>
      <point x="79" y="0" type="line"/>
      <point x="79" y="230" type="line"/>
      <point x="330" y="230" type="line"/>
      <point x="330" y="322.943" type="line"/>
      <point x="251.82" y="387.11"/>
      <point x="50" y="485.474"/>
      <point x="50" y="780" type="curve" smooth="yes"/>
      <point x="50" y="1156"/>
      <point x="302" y="1320"/>
      <point x="599" y="1320" type="curve" smooth="yes"/>
      <point x="896" y="1320"/>
      <point x="1149" y="1156"/>
      <point x="1149" y="780" type="curve" smooth="yes"/>
      <point x="1149" y="485.057"/>
      <point x="946.76" y="386.484"/>
      <point x="868" y="322.305" type="curve"/>
      <point x="868" y="230" type="line"/>
      <point x="1119" y="230" type="line"/>
      <point x="1119" y="0" type="line"/>
      <point x="689" y="0" type="line"/>
      <point x="689" y="324.23" type="line"/>
      <point x="777.828" y="386.216"/>
      <point x="889" y="555.116"/>
      <point x="889" y="750" type="curve" smooth="yes"/>
      <point x="889" y="953"/>
      <point x="787" y="1080"/>
      <point x="599" y="1080" type="curve" smooth="yes"/>
      <point x="411" y="1080"/>
      <point x="310" y="953"/>
      <point x="310" y="750" type="curve" smooth="yes"/>
      <point x="310" y="555.352"/>
      <point x="420.662" y="386.503"/>
      <point x="508.999" y="324.455" type="curve"/>
      <point x="509" y="0.224609" type="line"/>
    </contour>
  </outline>
</glyph>
<glyph name="pi" format="2">
  <advance width="1200"/>
  <unicode hex="03C0"/>
  <outline>
    <contour>
      <point x="50" y="470" type="line"/>
      <point x="50" y="920" type="line"/>
      <point x="239" y="680" type="line"/>
      <point x="209" y="470" type="line"/>
    </contour>
    <contour>
      <point x="300" y="860" type="line"/>
      <point x="560" y="860" type="line"/>
      <point x="560" y="0" type="line"/>
      <point x="300" y="0" type="line"/>
    </contour>
    <contour>
      <point x="50" y="920" type="line"/>
      <point x="1120" y="920" type="line"/>
      <point x="1120" y="670" type="line"/>
      <point x="50" y="670" type="line"/>
    </contour>
    <contour>
      <point x="710" y="860" type="line"/>
      <point x="970" y="860" type="line"/>
      <point x="970" y="312" type="line" smooth="yes"/>
      <point x="970" y="230"/>
      <point x="1016" y="222"/>
      <point x="1076" y="222" type="curve"/>
      <point x="1076" y="-18" type="line"/>
      <point x="908" y="-18"/>
      <point x="710" y="4"/>
      <point x="710" y="222" type="curve" smooth="yes"/>
    </contour>
  </outline>
</glyph>
<glyph name="uni1E9E" format="2">
  <advance width="1200"/>
  <unicode hex="1E9E"/>
  <outline>
    <contour>
      <point x="70" y="0" type="line"/>
      <point x="70" y="230" type="line"/>
      <point x="150" y="230" type="line"/>
      <point x="149" y="880" type="line" smooth="yes"/>
      <point x="149" y="1126"/>
      <point x="332" y="1320"/>
      <point x="639" y="1320" type="curve"/>
      <point x="639" y="1080" type="line"/>
      <point x="501" y="1080"/>
      <point x="409" y="1033"/>
      <point x="409" y="880" type="curve" smooth="yes"/>
      <point x="409" y="230" type="line"/>
      <point x="500" y="230" type="line"/>
      <point x="500" y="0" type="line"/>
    </contour>
    <contour>
      <point x="639" y="1320" type="line"/>
      <point x="867" y="1320"/>
      <point x="1087" y="1181"/>
      <point x="1187" y="1069" type="curve"/>
      <point x="873" y="757" type="line"/>
      <point x="1005.51" y="732.588"/>
      <point x="1169" y="657.982"/>
      <point x="1169" y="386" type="curve" smooth="yes"/>
      <point x="1169" y="131"/>
      <point x="999" y="-19"/>
      <point x="781" y="-19" type="curve" smooth="yes"/>
      <point x="727" y="-19"/>
      <point x="646" y="-9"/>
      <point x="580" y="23" type="curve"/>
      <point x="630" y="258" type="line"/>
      <point x="681" y="232"/>
      <point x="725" y="225"/>
      <point x="763" y="225" type="curve" smooth="yes"/>
      <point x="853" y="225"/>
      <point x="897" y="293"/>
      <point x="897" y="354" type="curve" smooth="yes"/>
      <point x="897" y="510.649"/>
      <point x="672.111" y="609.184"/>
      <point x="523" y="657" type="curve"/>
      <point x="847" y="1029" type="line"/>
      <point x="797" y="1057"/>
      <point x="722" y="1080"/>
      <point x="639" y="1080" type="curve"/>
    </contour>
  </outline>
</glyph>
<glyph name="figuredash" format="2">
  <advance width="1200"/>
  <unicode hex="2012"/>
  <outline>
    <contour>
      <point x="189" y="790" type="line"/>
      <point x="1011" y="790" type="line"/>
      <point x="1011" y="560" type="line"/>
      <point x="189" y="560" type="line"/>
    </contour>
  </outline>
</glyph>
<glyph name="emdash" format="2">
  <advance width="1200"/>
  <unicode hex="2014"/>
  <outline>
    <contour>
      <point x="29" y="790" type="line"/>
      <point x="1171" y="790" type="line"/>
      <point x="1171" y="560" type="line"/>
      <point x="29" y="560" type="line"/>
    </contour>
  </outline>
</glyph>
<glyph name="uni2015" format="2">
  <advance width="1200"/>
  <unicode hex="2015"/>
  <outline>
    <contour>
      <point x="-51" y="790" type="line"/>
      <point x="1251" y="790" type="line"/>
      <point x="1251" y="560" type="line"/>
      <point x="-51" y="560" type="line"/>
    </contour>
  </outline>
</glyph>
<glyph name="quotereversed" format="2">
  <advance width="1200"/>
  <unicode hex="201B"/>
  <outline>
    <contour>
      <point x="780" y="690" type="line"/>
      <point x="590" y="690" type="line"/>
      <point x="440" y="1300" type="line"/>
      <point x="750" y="1300" type="line"/>
    </contour>
  </outline>
</glyph>
<glyph name="quotedblright" format="2">
  <advance width="1200"/>
  <unicode hex="201D"/>
  <outline>
    <contour>
      <point x="690" y="730" type="line"/>
      <point x="710" y="1340" type="line"/>
      <point x="1020" y="1340" type="line"/>
      <point x="870" y="730" type="line"/>
    </contour>
    <contour>
      <point x="230" y="730" type="line"/>
      <point x="250" y="1340" type="line"/>
      <point x="560" y="1340" type="line"/>
      <point x="410" y="730" type="line"/>
    </contour>
  </outline>
</glyph>
<glyph name="dagger" format="2">
  <advance width="1200"/>
  <unicode hex="2020"/>
  <outline>
    <contour>
      <point x="479" y="1300" type="line"/>
      <point x="721" y="1300" type="line"/>
      <point x="721" y="0" type="line"/>
      <point x="479" y="0" type="line"/>
    </contour>
    <contour>
      <point x="119" y="1050" type="line"/>
      <point x="1081" y="1050" type="line"/>
      <point x="1081" y="830" type="line"/>
      <point x="119" y="830" type="line"/>
    </contour>
  </outline>
</glyph>
<glyph name="perthousand" format="2">
  <advance width="1200"/>
  <unicode hex="2030"/>
  <outline>
    <contour>
      <point x="978" y="230" type="curve" smooth="yes"/>
      <point x="978" y="283"/>
      <point x="962" y="295"/>
      <point x="944" y="295" type="curve" smooth="yes"/>
      <point x="916" y="295"/>
      <point x="900" y="283"/>
      <point x="900" y="230" type="curve" smooth="yes"/>
      <point x="900" y="177"/>
      <point x="906" y="165"/>
      <point x="934" y="165" type="curve" smooth="yes"/>
      <point x="962" y="165"/>
      <point x="978" y="177"/>
    </contour>
    <contour>
      <point x="754" y="230" type="curve" smooth="yes"/>
      <point x="754" y="376"/>
      <point x="807" y="480"/>
      <point x="944" y="480" type="curve" smooth="yes"/>
      <point x="1081" y="480"/>
      <point x="1154" y="376"/>
      <point x="1154" y="230" type="curve" smooth="yes"/>
      <point x="1154" y="74"/>
      <point x="1091" y="-20"/>
      <point x="954" y="-20" type="curve" smooth="yes"/>
      <point x="817" y="-20"/>
      <point x="754" y="74"/>
    </contour>
    <contour>
      <point x="648" y="230" type="curve" smooth="yes"/>
      <point x="648" y="283"/>
      <point x="632" y="295"/>
      <point x="614" y="295" type="curve" smooth="yes"/>
      <point x="586" y="295"/>
      <point x="570" y="283"/>
      <point x="570" y="230" type="curve" smooth="yes"/>
      <point x="570" y="177"/>
      <point x="576" y="165"/>
      <point x="604" y="165" type="curve" smooth="yes"/>
      <point x="632" y="165"/>
      <point x="648" y="177"/>
    </contour>
    <contour>
      <point x="394" y="230" type="curve" smooth="yes"/>
      <point x="394" y="376"/>
      <point x="467" y="480"/>
      <point x="594" y="480" type="curve" smooth="yes"/>
      <point x="741" y="480"/>
      <point x="794" y="376"/>
      <point x="794" y="230" type="curve" smooth="yes"/>
      <point x="794" y="74"/>
      <point x="751" y="-20"/>
      <point x="604" y="-20" type="curve" smooth="yes"/>
      <point x="477" y="-20"/>
      <point x="394" y="74"/>
    </contour>
    <contour>
      <point x="350" y="1070" type="curve" smooth="yes"/>
      <point x="350" y="1113"/>
      <point x="334" y="1135"/>
      <point x="296" y="1135" type="curve" smooth="yes"/>
      <point x="258" y="1135"/>
      <point x="232" y="1113"/>
      <point x="232" y="1070" type="curve" smooth="yes"/>
      <point x="232" y="1037"/>
      <point x="248" y="1015"/>
      <point x="286" y="1015" type="curve" smooth="yes"/>
      <point x="324" y="1015"/>
      <point x="350" y="1037"/>
    </contour>
    <contour>
      <point x="46" y="1070" type="curve" smooth="yes"/>
      <point x="46" y="1216"/>
      <point x="129" y="1320"/>
      <point x="286" y="1320" type="curve" smooth="yes"/>
      <point x="412" y="1320"/>
      <point x="519" y="1246"/>
      <point x="675" y="1246" type="curve" smooth="yes"/>
      <point x="835" y="1246"/>
      <point x="910" y="1282"/>
      <point x="1014" y="1370" type="curve"/>
      <point x="1121" y="1265" type="line"/>
      <point x="121" y="105" type="line"/>
      <point x="-21" y="225" type="line"/>
      <point x="934" y="1299" type="line"/>
      <point x="949" y="1226" type="line"/>
      <point x="800" y="1117"/>
      <point x="702" y="1041"/>
      <point x="619" y="1041" type="curve" smooth="yes"/>
      <point x="505" y="1041"/>
      <point x="461" y="1178"/>
      <point x="439" y="1204" type="curve"/>
      <point x="471" y="1201" type="line"/>
      <point x="504" y="1164"/>
      <point x="536" y="1126"/>
      <point x="536" y="1040" type="curve" smooth="yes"/>
      <point x="536" y="924"/>
      <point x="443" y="820"/>
      <point x="296" y="820" type="curve" smooth="yes"/>
      <point x="159" y="820"/>
      <point x="46" y="894"/>
    </contour>
  </outline>
</glyph>
<glyph name="guilsinglleft" format="2">
  <advance width="1200"/>
  <unicode hex="2039"/>
  <outline>
    <contour>
      <point x="354" y="525" type="line"/>
      <point x="686" y="920" type="line"/>
      <point x="846" y="810" type="line"/>
      <point x="634" y="525" type="line"/>
      <point x="846" y="240" type="line"/>
      <point x="686" y="130" type="line"/>
    </contour>
  </outline>
</glyph>
<glyph name="uni203D" format="2">
  <advance width="1200"/>
  <unicode hex="203D"/>
  <outline>
    <contour>
      <point x="268" y="893" type="curve"/>
      <point x="123" y="999" type="line"/>
      <point x="243" y="1139"/>
      <point x="496" y="1320"/>
      <point x="792" y="1320" type="curve"/>
      <point x="702" y="1100" type="line"/>
      <point x="564" y="1100"/>
      <point x="400" y="996"/>
    </contour>
    <contour>
      <point x="401" y="180" type="curve" smooth="yes"/>
      <point x="401" y="293"/>
      <point x="487" y="380"/>
      <point x="600" y="380" type="curve" smooth="yes"/>
      <point x="713" y="380"/>
      <point x="799" y="293"/>
      <point x="799" y="180" type="curve" smooth="yes"/>
      <point x="799" y="67"/>
      <point x="718" y="-20"/>
      <point x="605" y="-20" type="curve" smooth="yes"/>
      <point x="492" y="-20"/>
      <point x="401" y="67"/>
    </contour>
    <contour>
      <point x="811" y="1020" type="curve" smooth="yes"/>
      <point x="811" y="1073"/>
      <point x="770" y="1100"/>
      <point x="702" y="1100" type="curve"/>
      <point x="792" y="1320" type="line"/>
      <point x="998" y="1320"/>
      <point x="1121" y="1236"/>
      <point x="1121" y="1060" type="curve" smooth="yes"/>
      <point x="1121" y="896"/>
      <point x="956" y="781"/>
      <point x="794" y="679" type="curve" smooth="yes"/>
      <point x="682" y="608"/>
      <point x="634" y="566"/>
      <point x="591" y="461" type="curve"/>
      <point x="501" y="602" type="line"/>
      <point x="512" y="656"/>
      <point x="564" y="722"/>
      <point x="636" y="790" type="curve" smooth="yes"/>
      <point x="745.489" y="893.407"/>
      <point x="811" y="940"/>
    </contour>
    <contour>
      <point x="520" y="430" type="line"/>
      <point x="400" y="920" type="line"/>
      <point x="720" y="980" type="line"/>
      <point x="680" y="430" type="line"/>
    </contour>
  </outline>
</glyph>
<glyph name="fraction" format="2">
  <advance width="1200"/>
  <unicode hex="2044"/>
  <outline>
    <contour>
      <point x="1030" y="1300" type="line"/>
      <point x="400" y="130" type="line"/>
      <point x="170" y="130" type="line"/>
      <point x="800" y="1300" type="line"/>
    </contour>
  </outline>
</glyph>
<glyph name="uni2070" format="2">
  <advance width="1200"/>
  <unicode hex="2070"/>
  <outline>
    <contour>
      <point x="596" y="590" type="curve" smooth="yes"/>
      <point x="333" y="590"/>
      <point x="188" y="735"/>
      <point x="188" y="956" type="curve" smooth="yes"/>
      <point x="188" y="1170"/>
      <point x="346" y="1320"/>
      <point x="596" y="1320" type="curve" smooth="yes"/>
      <point x="846" y="1320"/>
      <point x="1012" y="1170"/>
      <point x="1012" y="956" type="curve" smooth="yes"/>
      <point x="1012" y="735"/>
      <point x="859" y="590"/>
    </contour>
    <contour>
      <point x="596" y="1106" type="curve" smooth="yes"/>
      <point x="488" y="1106"/>
      <point x="430" y="1045"/>
      <point x="430" y="956" type="curve" smooth="yes"/>
      <point x="430" y="860"/>
      <point x="474" y="804"/>
      <point x="596" y="804" type="curve" smooth="yes"/>
      <point x="718" y="804"/>
      <point x="770" y="860"/>
      <point x="770" y="956" type="curve" smooth="yes"/>
      <point x="770" y="1045"/>
      <point x="704" y="1106"/>
    </contour>
  </outline>
</glyph>
<glyph name="uni2071" format="2">
  <advance width="1200"/>
  <unicode hex="2071"/>
  <outline>
    <contour>
      <point x="207" y="610" type="line"/>
      <point x="207" y="820" type="line"/>
      <point x="512" y="820" type="line"/>
      <point x="512" y="1100" type="line"/>
      <point x="283" y="1100" type="line"/>
      <point x="283" y="1300" type="line"/>
      <point x="735" y="1300" type="line"/>
      <point x="735" y="820" type="line"/>
      <point x="1003" y="820" type="line"/>
      <point x="1003" y="610" type="line"/>
    </contour>
  </outline>
</glyph>
<glyph name="uni2072" format="2">
  <advance width="1200"/>
  <unicode hex="2072"/>
  <outline>
    <contour>
      <point x="239" y="1145" type="line"/>
      <point x="357" y="1241"/>
      <point x="507" y="1320"/>
      <point x="679" y="1320" type="curve" smooth="yes"/>
      <point x="888" y="1320"/>
      <point x="959" y="1229"/>
      <point x="959" y="1105" type="curve" smooth="yes"/>
      <point x="959" y="953"/>
      <point x="771.263" y="905.55"/>
      <point x="699" y="877" type="curve" smooth="yes"/>
      <point x="664.46" y="863.354"/>
      <point x="632" y="857"/>
      <point x="628" y="836" type="curve"/>
      <point x="948" y="836" type="line"/>
      <point x="948" y="610" type="line"/>
      <point x="308" y="610" type="line"/>
      <point x="250" y="695" type="line"/>
      <point x="292" y="810"/>
      <point x="408.519" y="906.532"/>
      <point x="566" y="997" type="curve" smooth="yes"/>
      <point x="613" y="1024"/>
      <point x="696" y="1063"/>
      <point x="696" y="1090" type="curve" smooth="yes"/>
      <point x="696" y="1112"/>
      <point x="676" y="1127"/>
      <point x="634" y="1127" type="curve" smooth="yes"/>
      <point x="556" y="1127"/>
      <point x="457" y="1061"/>
      <point x="374" y="962" type="curve"/>
    </contour>
  </outline>
</glyph>
<glyph name="uni2073" format="2">
  <advance width="1200"/>
  <unicode hex="2073"/>
  <outline>
    <contour>
      <point x="349" y="1051" type="curve"/>
      <point x="271" y="1252" type="line"/>
      <point x="359" y="1289"/>
      <point x="469" y="1321"/>
      <point x="588" y="1321" type="curve" smooth="yes"/>
      <point x="823" y="1321"/>
      <point x="902" y="1233"/>
      <point x="902" y="1127" type="curve" smooth="yes"/>
      <point x="902" y="1026"/>
      <point x="837" y="1003"/>
      <point x="789" y="983" type="curve"/>
      <point x="837" y="973"/>
      <point x="942" y="950"/>
      <point x="942" y="819" type="curve" smooth="yes"/>
      <point x="942" y="693"/>
      <point x="813" y="590"/>
      <point x="608" y="590" type="curve" smooth="yes"/>
      <point x="419" y="590"/>
      <point x="329" y="637"/>
      <point x="241" y="674" type="curve"/>
      <point x="339" y="875" type="line"/>
      <point x="398" y="828"/>
      <point x="507" y="778"/>
      <point x="598" y="778" type="curve" smooth="yes"/>
      <point x="684" y="778"/>
      <point x="719" y="803"/>
      <point x="719" y="845" type="curve" smooth="yes"/>
      <point x="719" y="893"/>
      <point x="673" y="874"/>
      <point x="576" y="874" type="curve" smooth="yes"/>
      <point x="434" y="874" type="line"/>
      <point x="434" y="1052" type="line"/>
      <point x="536" y="1052" type="line" smooth="yes"/>
      <point x="633" y="1052"/>
      <point x="669" y="1065"/>
      <point x="669" y="1093" type="curve" smooth="yes"/>
      <point x="669" y="1115"/>
      <point x="644" y="1133"/>
      <point x="568" y="1133" type="curve" smooth="yes"/>
      <point x="487" y="1133"/>
      <point x="408" y="1088"/>
    </contour>
  </outline>
</glyph>
<glyph name="uni2074" format="2">
  <advance width="1200"/>
  <unicode hex="2074"/>
  <outline>
    <contour>
      <point x="654" y="610" type="line"/>
      <point x="654" y="1090" type="line"/>
      <point x="878" y="1160" type="line"/>
      <point x="878" y="610" type="line"/>
    </contour>
    <contour>
      <point x="429" y="950" type="line"/>
      <point x="1010" y="950" type="line"/>
      <point x="1010" y="740" type="line"/>
      <point x="280" y="740" type="line"/>
      <point x="200" y="920" type="line"/>
      <point x="549" y="1360" type="line"/>
      <point x="849" y="1360" type="line"/>
    </contour>
  </outline>
</glyph>
<glyph name="uni2075" format="2">
  <advance width="1200"/>
  <unicode hex="2075"/>
  <outline>
    <contour>
      <point x="917" y="1300" type="line"/>
      <point x="917" y="1100" type="line"/>
      <point x="510" y="1110" type="line"/>
      <point x="500" y="1047" type="line"/>
      <point x="653" y="1047" type="line" smooth="yes"/>
      <point x="863" y="1047"/>
      <point x="967" y="990"/>
      <point x="967" y="829" type="curve" smooth="yes"/>
      <point x="967" y="683"/>
      <point x="798" y="590"/>
      <point x="593" y="590" type="curve" smooth="yes"/>
      <point x="494" y="590"/>
      <point x="314" y="607"/>
      <point x="226" y="664" type="curve"/>
      <point x="344" y="835" type="line"/>
      <point x="423" y="778"/>
      <point x="572" y="778"/>
      <point x="623" y="778" type="curve" smooth="yes"/>
      <point x="669" y="778"/>
      <point x="744" y="791"/>
      <point x="744" y="833" type="curve" smooth="yes"/>
      <point x="744" y="861"/>
      <point x="698" y="874"/>
      <point x="601" y="874" type="curve" smooth="yes"/>
      <point x="360" y="874" type="line"/>
      <point x="290" y="1004" type="line"/>
      <point x="310" y="1300" type="line"/>
    </contour>
  </outline>
</glyph>
<glyph name="uni2076" format="2">
  <advance width="1200"/>
  <unicode hex="2076"/>
  <outline>
    <contour>
      <point x="895" y="1095" type="line"/>
      <point x="573" y="1185"/>
      <point x="454" y="1145"/>
      <point x="454" y="910" type="curve"/>
      <point x="424" y="902" type="line"/>
      <point x="474" y="995"/>
      <point x="566" y="1070"/>
      <point x="728" y="1070" type="curve" smooth="yes"/>
      <point x="894" y="1070"/>
      <point x="1004" y="1005"/>
      <point x="1004" y="845" type="curve" smooth="yes"/>
      <point x="1004" y="685"/>
      <point x="832" y="590"/>
      <point x="620" y="590" type="curve" smooth="yes"/>
      <point x="394" y="590"/>
      <point x="246" y="708"/>
      <point x="246" y="903" type="curve" smooth="yes"/>
      <point x="246" y="1269"/>
      <point x="531" y="1360"/>
      <point x="916" y="1300" type="curve"/>
    </contour>
    <contour>
      <point x="784" y="833" type="curve" smooth="yes"/>
      <point x="784" y="874"/>
      <point x="738" y="897"/>
      <point x="662" y="897" type="curve" smooth="yes"/>
      <point x="572" y="897"/>
      <point x="479" y="875"/>
      <point x="479" y="835" type="curve" smooth="yes"/>
      <point x="479" y="787"/>
      <point x="541" y="775"/>
      <point x="635" y="775" type="curve" smooth="yes"/>
      <point x="726" y="775"/>
      <point x="784" y="795"/>
    </contour>
  </outline>
</glyph>
<glyph name="uni2077" format="2">
  <advance width="1200"/>
  <unicode hex="2077"/>
  <outline>
    <contour>
      <point x="974" y="1300" type="line"/>
      <point x="1009" y="1198" type="line"/>
      <point x="801" y="1038"/>
      <point x="723" y="862"/>
      <point x="671" y="580" type="curve"/>
      <point x="436" y="602" type="line"/>
      <point x="496" y="884"/>
      <point x="579" y="972"/>
      <point x="707" y="1102" type="curve"/>
      <point x="413" y="1102" type="line"/>
      <point x="360" y="950" type="line"/>
      <point x="231" y="950" type="line"/>
      <point x="261" y="1300" type="line"/>
    </contour>
  </outline>
</glyph>
<glyph name="uni2078" format="2">
  <advance width="1200"/>
  <unicode hex="2078"/>
  <outline>
    <contour>
      <point x="595" y="963" type="curve" smooth="yes"/>
      <point x="368" y="963"/>
      <point x="250" y="1036"/>
      <point x="250" y="1140" type="curve" smooth="yes"/>
      <point x="250" y="1252"/>
      <point x="382" y="1320"/>
      <point x="595" y="1320" type="curve" smooth="yes"/>
      <point x="808" y="1320"/>
      <point x="947" y="1252"/>
      <point x="947" y="1140" type="curve" smooth="yes"/>
      <point x="947" y="1028"/>
      <point x="822" y="963"/>
    </contour>
    <contour>
      <point x="595" y="1167" type="curve" smooth="yes"/>
      <point x="519" y="1167"/>
      <point x="487" y="1138"/>
      <point x="487" y="1118" type="curve" smooth="yes"/>
      <point x="487" y="1083"/>
      <point x="519" y="1067"/>
      <point x="595" y="1067" type="curve" smooth="yes"/>
      <point x="679" y="1067"/>
      <point x="711" y="1086"/>
      <point x="711" y="1118" type="curve" smooth="yes"/>
      <point x="711" y="1138"/>
      <point x="679" y="1167"/>
    </contour>
    <contour>
      <point x="595" y="590" type="curve" smooth="yes"/>
      <point x="338" y="590"/>
      <point x="190" y="656"/>
      <point x="190" y="800" type="curve" smooth="yes"/>
      <point x="190" y="934"/>
      <point x="352" y="997"/>
      <point x="595" y="997" type="curve" smooth="yes"/>
      <point x="838" y="997"/>
      <point x="1000" y="934"/>
      <point x="1000" y="800" type="curve" smooth="yes"/>
      <point x="1000" y="656"/>
      <point x="852" y="590"/>
    </contour>
    <contour>
      <point x="595" y="885" type="curve" smooth="yes"/>
      <point x="489" y="885"/>
      <point x="434" y="865"/>
      <point x="434" y="835" type="curve" smooth="yes"/>
      <point x="434" y="798"/>
      <point x="474" y="771"/>
      <point x="595" y="771" type="curve" smooth="yes"/>
      <point x="716" y="771"/>
      <point x="756" y="798"/>
      <point x="756" y="835" type="curve" smooth="yes"/>
      <point x="756" y="865"/>
      <point x="701" y="885"/>
    </contour>
  </outline>
</glyph>
<glyph name="uni2079" format="2">
  <advance width="1200"/>
  <unicode hex="2079"/>
  <outline>
    <contour>
      <point x="355" y="815" type="line"/>
      <point x="677" y="725"/>
      <point x="796" y="765"/>
      <point x="796" y="1000" type="curve"/>
      <point x="826" y="1008" type="line"/>
      <point x="776" y="915"/>
      <point x="684" y="840"/>
      <point x="522" y="840" type="curve" smooth="yes"/>
      <point x="356" y="840"/>
      <point x="246" y="905"/>
      <point x="246" y="1065" type="curve" smooth="yes"/>
      <point x="246" y="1225"/>
      <point x="418" y="1320"/>
      <point x="630" y="1320" type="curve" smooth="yes"/>
      <point x="856" y="1320"/>
      <point x="1004" y="1202"/>
      <point x="1004" y="1007" type="curve" smooth="yes"/>
      <point x="1004" y="641"/>
      <point x="719" y="550"/>
      <point x="334" y="610" type="curve"/>
    </contour>
    <contour>
      <point x="466" y="1077" type="curve" smooth="yes"/>
      <point x="466" y="1036"/>
      <point x="512" y="1013"/>
      <point x="588" y="1013" type="curve" smooth="yes"/>
      <point x="678" y="1013"/>
      <point x="771" y="1035"/>
      <point x="771" y="1075" type="curve" smooth="yes"/>
      <point x="771" y="1123"/>
      <point x="709" y="1135"/>
      <point x="615" y="1135" type="curve" smooth="yes"/>
      <point x="524" y="1135"/>
      <point x="466" y="1115"/>
    </contour>
  </outline>
</glyph>
